STARTFONT 2.3
FONT -FontForge-Pacifico-Book-R-Normal--24-240-72-72-P-141-ISO10646-1
SIZE 24 72 72  2
FONTBOUNDINGBOX 54 47 -14 -11
COMMENT "Generated by fontforge, http://fontforge.sourceforge.net"
COMMENT "Copyright 2018 The Pacifico Project Authors (https://github.com/googlefonts/Pacifico)"
STARTPROPERTIES 41
FOUNDRY "FontForge"
FAMILY_NAME "Pacifico"
WEIGHT_NAME "Book"
SLANT "R"
SETWIDTH_NAME "Normal"
ADD_STYLE_NAME ""
PIXEL_SIZE 24
POINT_SIZE 240
RESOLUTION_X 72
RESOLUTION_Y 72
SPACING "P"
AVERAGE_WIDTH 141
CHARSET_REGISTRY "ISO10646"
CHARSET_ENCODING "1"
FONTNAME_REGISTRY ""
CHARSET_COLLECTIONS "ISO8859-2 ISO8859-5 ISO8859-9 ISO8859-4 ISO10646-1"
BITS_PER_PIXEL 2
FONT_NAME "Pacifico-Regular"
FACE_NAME "Pacifico Regular"
COPYRIGHT "Copyright 2018 The Pacifico Project Authors (https://github.com/googlefonts/Pacifico)"
FONT_VERSION "3.001"
FONT_ASCENT 19
FONT_DESCENT 5
UNDERLINE_POSITION -2
UNDERLINE_THICKNESS 2
X_HEIGHT 10
CAP_HEIGHT 19
DEFAULT_CHAR 1
RAW_ASCENT 800
RAW_DESCENT 200
NORM_SPACE 6
RELATIVE_WEIGHT 40
RELATIVE_SETWIDTH 50
SUPERSCRIPT_X 0
SUPERSCRIPT_Y 8
SUPERSCRIPT_SIZE 14
SUBSCRIPT_X 0
SUBSCRIPT_Y 1
SUBSCRIPT_SIZE 14
AVG_LOWERCASE_WIDTH 113
AVG_UPPERCASE_WIDTH 195
ENDPROPERTIES
CHARS 1514
STARTCHAR NULL.dup1
ENCODING 0
SWIDTH 0 0
DWIDTH 0 0
BBX 1 1 0 0
BITMAP
00
ENDCHAR
STARTCHAR nonmarkingreturn
ENCODING 13
SWIDTH 265 0
DWIDTH 6 0
BBX 1 1 0 0
BITMAP
00
ENDCHAR
STARTCHAR space
ENCODING 32
SWIDTH 265 0
DWIDTH 6 0
BBX 1 1 0 0
BITMAP
00
ENDCHAR
STARTCHAR exclam
ENCODING 33
SWIDTH 340 0
DWIDTH 8 0
BBX 8 20 1 0
BITMAP
007E
00BE
00FD
01FD
02FC
02F8
03F4
03F0
07E0
0BE0
0BD0
0FC0
0F80
1F40
0A00
0000
7E00
FF40
FF00
BD00
ENDCHAR
STARTCHAR quotedbl
ENCODING 34
SWIDTH 510 0
DWIDTH 12 0
BBX 10 8 2 12
BITMAP
0B82E0
2FC7F0
2F8BF0
3F8BE0
3F4BE0
3F0FD0
7E0FC0
3D0B80
ENDCHAR
STARTCHAR numbersign
ENCODING 35
SWIDTH 700 0
DWIDTH 17 0
BBX 16 14 1 0
BITMAP
002D02D0
007E0BD0
00BD0FC0
3FFFFFFC
3FFFFFFD
1BFABFA4
03F03F00
03F07E00
6BFABE90
FFFFFFF4
BFFFFFF0
1F82F400
2F42F000
1E02D000
ENDCHAR
STARTCHAR dollar
ENCODING 36
SWIDTH 524 0
DWIDTH 13 0
BBX 11 20 1 -3
BITMAP
000E00
001E00
001D00
02FF80
1FFFF0
3F6EF4
3E3CF8
3E3860
3FF800
1FFD00
02FFD0
00BFF0
B4B2F4
F8B2F4
FEF7F0
7FFFD0
0BF900
01D000
01D000
01C000
ENDCHAR
STARTCHAR percent
ENCODING 37
SWIDTH 896 0
DWIDTH 22 0
BBX 20 18 1 0
BITMAP
06F4001D00
2FFD003E00
7E7E00BD00
BC7F1BFC00
BC3FFFF400
BC2FFFE000
BD2F9FC000
3FFD1F8000
1BE43F0000
0000BD0BF4
0001F83FFD
0003F4BD3F
0007E0F82F
000FC0F82F
002F40F82F
007E00FD7E
00BD007FFC
0078001BE0
ENDCHAR
STARTCHAR ampersand
ENCODING 38
SWIDTH 851 0
DWIDTH 20 0
BBX 19 23 1 -2
BITMAP
0006F90000
002FFF4000
00BFAFC000
01FC0BD000
02F807D000
02F40BD000
02F80FC000
01FC2F8000
00FDFE0000
00BFF80000
00BFE00000
07FFD00014
1FFFF001FC
3F87F803F4
BF01FE0BE0
BE00BFAFC0
FE002FFF40
BF001FFC00
7FEABFFD00
1FFFFEFF40
02BFA47FC0
0000001FD0
0000000540
ENDCHAR
STARTCHAR quotesingle
ENCODING 39
SWIDTH 290 0
DWIDTH 7 0
BBX 5 8 2 12
BITMAP
0B80
2FC0
2F80
3F80
3F40
3F00
7E00
3D00
ENDCHAR
STARTCHAR parenleft
ENCODING 40
SWIDTH 613 0
DWIDTH 15 0
BBX 16 26 2 -4
BITMAP
00006FE4
0007FFFD
001FFAFE
007F8019
00FE0000
02F80000
07F40000
0BE00000
0FD00000
1FC00000
2F800000
3F400000
3F000000
7F000000
7E000000
BE000000
BE000000
BD000000
BD000000
BD000000
BE000400
7E002D00
3F41FD00
2FFFF800
0BFFD000
00650000
ENDCHAR
STARTCHAR parenright
ENCODING 41
SWIDTH 613 0
DWIDTH 15 0
BBX 16 26 -2 -4
BITMAP
0001BE40
001FFFE0
007FEBF8
00BD01FC
007400FD
000000BD
000000BE
000000BE
000000BE
000000BD
000000FD
000000FD
000001FC
000001F8
000002F8
000003F4
000007F0
00000BE0
00001FD0
00002F80
00007F40
1001FE00
B907F800
FFFFE000
7FFF4000
05940000
ENDCHAR
STARTCHAR asterisk
ENCODING 42
SWIDTH 520 0
DWIDTH 12 0
BBX 10 10 3 12
BITMAP
00B400
74F800
BDF400
2FF6D0
07FFD0
BFF800
F6EF40
03DFC0
07D780
028000
ENDCHAR
STARTCHAR plus
ENCODING 43
SWIDTH 700 0
DWIDTH 17 0
BBX 13 14 2 0
BITMAP
000B4000
000F8000
001F4000
001F4000
001F4000
002F0000
BFFFFFC0
FFFFFFC0
6ABFAA40
003E0000
007E0000
007D0000
007D0000
00780000
ENDCHAR
STARTCHAR comma
ENCODING 44
SWIDTH 257 0
DWIDTH 6 0
BBX 5 8 0 -4
BITMAP
1F40
3F80
3F80
3F40
7F00
7E00
BC00
7400
ENDCHAR
STARTCHAR hyphen
ENCODING 45
SWIDTH 403 0
DWIDTH 10 0
BBX 8 3 1 6
BITMAP
2AFE
BFFE
7FA9
ENDCHAR
STARTCHAR period
ENCODING 46
SWIDTH 257 0
DWIDTH 6 0
BBX 5 4 0 0
BITMAP
2F80
7FC0
7FC0
2F40
ENDCHAR
STARTCHAR slash
ENCODING 47
SWIDTH 509 0
DWIDTH 12 0
BBX 14 22 0 0
BITMAP
000002C0
00000BD0
00001FC0
00002F80
00007F00
0000BD00
0001FC00
0003F400
0007E000
000FD000
002F8000
003F4000
00BE0000
01FC0000
02F80000
07F00000
0BD00000
1FC00000
3F400000
7E000000
BD000000
78000000
ENDCHAR
STARTCHAR zero
ENCODING 48
SWIDTH 543 0
DWIDTH 13 0
BBX 11 14 1 0
BITMAP
01BF80
07FFE0
1FEBF4
2F41FC
7E00FC
7D00FC
BD00FC
BD00FC
BD00FC
BD01F8
7E03F4
3FAFE0
1FFF80
06F900
ENDCHAR
STARTCHAR one
ENCODING 49
SWIDTH 376 0
DWIDTH 9 0
BBX 7 14 1 0
BITMAP
06F8
7FFC
BFF8
16F8
02F4
03F4
03F4
07F0
07F0
07E0
0BE0
0BE0
0BD0
0780
ENDCHAR
STARTCHAR two
ENCODING 50
SWIDTH 560 0
DWIDTH 13 0
BBX 12 14 1 0
BITMAP
01BF90
0BFFF4
1FEBFC
3F41FC
3E01FC
2E01FC
0003F4
000BE0
002FC0
01BE00
1BF800
7FEAA8
FFFFFD
BFFFFC
ENDCHAR
STARTCHAR three
ENCODING 51
SWIDTH 520 0
DWIDTH 12 0
BBX 12 14 0 0
BITMAP
01BFE0
07FFFC
1FEAFE
2F40BE
1F00BD
0002F8
006FE0
007FE0
0016F8
2C00FD
7E00FD
7FABFC
2FFFF4
06FF80
ENDCHAR
STARTCHAR four
ENCODING 52
SWIDTH 577 0
DWIDTH 14 0
BBX 13 14 1 0
BITMAP
00B80000
02F80000
03F40000
0BE0B800
0FD0FC00
2F81F800
3F42F400
7E02F400
BEABF900
BFFFFF40
7FFFFE00
0007E000
0007E000
0003D000
ENDCHAR
STARTCHAR five
ENCODING 53
SWIDTH 518 0
DWIDTH 12 0
BBX 11 14 1 0
BITMAP
1BFFF8
7FFFFC
2FEAA4
1F8000
2F4000
2F9400
3FFF80
2FFFE0
001BF4
6402F4
FC03F4
BFAFF0
7FFFD0
0BFE00
ENDCHAR
STARTCHAR six
ENCODING 54
SWIDTH 541 0
DWIDTH 13 0
BBX 12 14 1 0
BITMAP
00BF90
07FFF8
0FEAFC
2F80BD
3F0028
7E1900
BEFFD0
BFFFF4
BF43F8
BE02F8
7E02F4
3FABF0
1FFFD0
06FE00
ENDCHAR
STARTCHAR seven
ENCODING 55
SWIDTH 497 0
DWIDTH 12 0
BBX 12 14 1 0
BITMAP
6A5568
FFFFFD
BFFFFD
000BF4
002F80
00BE00
01FC00
03F400
07F000
0BE000
0FD000
0FD000
0FC000
0B8000
ENDCHAR
STARTCHAR eight
ENCODING 56
SWIDTH 512 0
DWIDTH 12 0
BBX 11 14 1 0
BITMAP
02BF80
1FFFF0
2FEBF8
3F01F8
3F01F4
2F9BE0
1FFF80
0BFF80
7E5FF0
BC02F4
FC02F4
FFABF0
7FFFD0
1BFE00
ENDCHAR
STARTCHAR nine
ENCODING 57
SWIDTH 541 0
DWIDTH 13 0
BBX 11 14 1 0
BITMAP
01BE40
0BFFE0
2FEBF4
3F42F8
7E01FC
7F02FC
3FEBFC
1FFFFC
06F9F8
5002F4
FC07F0
FFAFD0
7FFF40
1BF900
ENDCHAR
STARTCHAR colon
ENCODING 58
SWIDTH 257 0
DWIDTH 6 0
BBX 6 11 0 0
BITMAP
0BD0
1FF0
1FF0
0BD0
0000
0000
0000
2F80
7FC0
7FC0
2F40
ENDCHAR
STARTCHAR semicolon
ENCODING 59
SWIDTH 257 0
DWIDTH 6 0
BBX 6 15 0 -4
BITMAP
0BD0
1FF0
1FF0
0BD0
0000
0000
0000
1F40
3F80
3F80
3F40
7F00
7E00
BC00
7400
ENDCHAR
STARTCHAR less
ENCODING 60
SWIDTH 700 0
DWIDTH 17 0
BBX 14 11 2 2
BITMAP
00000140
00006FD0
001BFFD0
06FFF900
7FFE4000
FF900000
FFE40000
2FFF9000
01BFFE00
0006FF40
00001F40
ENDCHAR
STARTCHAR equal
ENCODING 61
SWIDTH 700 0
DWIDTH 17 0
BBX 15 8 1 3
BITMAP
1FFFFFF4
2FFFFFF4
0AAAAA90
00000000
00000000
1AAAAA90
7FFFFFE0
3FFFFFD0
ENDCHAR
STARTCHAR greater
ENCODING 62
SWIDTH 700 0
DWIDTH 17 0
BBX 14 11 1 2
BITMAP
05000000
1FE40000
1FFF9000
01BFF900
0006FFE0
00006FF0
0001BFF0
006FFE40
1BFF9000
7FE40000
79000000
ENDCHAR
STARTCHAR question
ENCODING 63
SWIDTH 476 0
DWIDTH 11 0
BBX 12 20 1 0
BITMAP
01BF90
0BFFF8
1FEBFD
2F40FD
2F00FD
2F01FD
0402F8
000BF0
002FD0
00BF40
01FC00
02F000
03D000
07C000
024000
000000
2F4000
7FC000
7FC000
2F4000
ENDCHAR
STARTCHAR at
ENCODING 64
SWIDTH 1015 0
DWIDTH 24 0
BBX 23 25 1 -7
BITMAP
000005650000
0001BFFFF400
000BFFFFFE00
007FE401BF80
01FE00000FE0
07F8000003F0
0FE0000002F4
1FC006E001F4
3F402FFF01F8
7F00FFBF01F8
BE02FC3E01F4
BD03F47E02F4
FD07E0BD03F0
FC07D0BD07E0
FC0BD0FC0FD0
FC07FBFEBF80
FD03FFBFFE00
BE01BD0BE400
7F0000000000
2F8000000000
1FE000001B40
07FE4016FF40
01FFFFFFFD00
001FFFFF9000
00005A540000
ENDCHAR
STARTCHAR A
ENCODING 65
SWIDTH 786 0
DWIDTH 19 0
BBX 21 20 1 0
BITMAP
00001AFFA400
0002FFFFFC00
001FFFAFF800
00BFD0001000
02FE001F4000
07F8003F8000
0FE0003F4000
1FD0007F0000
3F8000BE0000
3F4000BE0000
7F0000FD0000
BF0001FD0000
BF0002FC0000
BF0003FC0000
BF000BFC0040
7F401FFC02C0
3FC07EFD0B80
1FFBF9FFBF40
0BFFE0BFFD00
01BE402FE000
ENDCHAR
STARTCHAR B
ENCODING 66
SWIDTH 827 0
DWIDTH 20 0
BBX 21 21 0 -1
BITMAP
0006BFFE9000
01BFFFFFF800
1FFFEAAFFE00
7FE40001BF40
7D0000003F80
102F40002F80
003F40003F80
007F0000BF40
00BE001BFD00
00BE0BFFE400
00FD0FFE4000
01FC06BFC000
01FC001FE000
02F80007F000
02F80007F000
03F8000BF000
03F4006FD000
03FAABFF8000
07FFFFFD0000
07FFFE900000
03E000000000
ENDCHAR
STARTCHAR C
ENCODING 67
SWIDTH 686 0
DWIDTH 16 0
BBX 19 20 1 0
BITMAP
0001BF9000
002FFFF800
00BFEAFD00
02FD00BE00
07F4007E00
0FE0007E00
2FC000BE00
3F80007800
3F40000000
7F40000000
7F00000000
7F00000000
7F00000000
7F40000000
3F80000000
2FD0000010
0FF80006F4
07FFAABFF4
00BFFFFF90
001AFFA400
ENDCHAR
STARTCHAR D
ENCODING 68
SWIDTH 836 0
DWIDTH 20 0
BBX 19 20 1 0
BITMAP
006BFE9000
0BFFFFF900
7FFEABFF40
FE4000BFD0
A400001FE0
00BD000BF4
01FD0007F4
01FC0003F8
02F80003F8
03F40003F8
07F40003F4
07F00007F4
0BE0000BF0
0BE0000FE0
0FD0002FD0
0FD000BF80
1FD007FE00
1FEABFF800
1FFFFF9000
0AFFE50000
ENDCHAR
STARTCHAR E
ENCODING 69
SWIDTH 686 0
DWIDTH 16 0
BBX 20 20 0 0
BITMAP
0001BFE400
001FFFFE00
00BFEABF80
01FE001FC0
02FC000FC0
03F8001FC0
02F8001F80
01FD000A00
00BFE80000
002FFD0000
02FFFD0000
0BF9000000
2FD0000000
3F80000000
7F40000000
3F80000004
3FD00001BD
1FFEAABFFD
06FFFFFFE4
006BFFE900
ENDCHAR
STARTCHAR F
ENCODING 70
SWIDTH 712 0
DWIDTH 17 0
BBX 23 20 0 0
BITMAP
0001AFFFFEA0
006FFFFFFFF4
02FFAFEAAAE0
07E41FC00000
0BC02FC00000
0FC02F800000
0BD02F800000
07D02F800000
01403F400000
0007FFFFE000
000BFFFFF000
0006BFAA9000
00007F000000
0000BE000000
0000BE000000
A000FD000000
F802FC000000
BFAFF4000000
2FFFE0000000
06FE40000000
ENDCHAR
STARTCHAR G
ENCODING 71
SWIDTH 811 0
DWIDTH 19 0
BBX 21 31 1 -11
BITMAP
0001BFE00000
001FFFFD0000
00BFEAFF0000
02FE003F4000
07F4002F4000
0FE0002F4000
2FC0003F4000
3F80002E0000
3F4000000000
7F4000000000
7F0000000000
7F0006AA4000
7F000BFFC000
7F400BFFC000
3F80000FC000
2FD0001F8280
0FF4001F9FC0
07FFAAFFBF40
00BFFFFFF800
001AFEBFD000
000000BF0000
000002FE0000
00000FFD0000
00003EBD0000
0000B8BC0000
0001F0F80000
0002E1F40000
0003D3E00000
0003EBD00000
0002FF800000
0000BD000000
ENDCHAR
STARTCHAR H
ENCODING 72
SWIDTH 873 0
DWIDTH 21 0
BBX 25 21 -1 0
BITMAP
0000000001F800
006F80000BFD00
02FFE0001FEE00
0FEBF4003F1E00
3E03F400BE1E00
7C03F400FC1E00
2003F401F82D00
0003F402F47C00
0003F002F5F400
0007F003FBD000
0007F55BFF4000
01FFFFFFF40000
02FFFFFFE00000
01AFD40BE00000
001FC00BE00000
002FC00BE00000
002F8007F002C0
003F4003F40BC0
007F0002FEBF40
007E0000FFFD00
007D00002FE000
ENDCHAR
STARTCHAR I
ENCODING 73
SWIDTH 495 0
DWIDTH 12 0
BBX 15 20 -1 0
BITMAP
00BFFFF0
02FFFFF4
00ABFA90
0007F400
0007F000
0007F000
000BE000
000BE000
000FD000
000FD000
001FC000
001FC000
002F8000
002F8000
003F4000
003F4000
007F4000
16BFA400
7FFFFE00
7FFFFD00
ENDCHAR
STARTCHAR J
ENCODING 74
SWIDTH 743 0
DWIDTH 18 0
BBX 18 22 1 -2
BITMAP
001AFFFA40
06FFFFFFD0
1FFEAABFD0
3F80007F00
7E00007F00
7E0000BE00
3F0000BE00
2F0000FD00
050000FD00
000006FC00
00006FFC00
0006FFF800
001FE6F400
007F43F400
01FC07F000
03F40BE000
07E00FC000
07E01F8000
07E07F0000
07FAFD0000
02FFF40000
00BF900000
ENDCHAR
STARTCHAR K
ENCODING 75
SWIDTH 937 0
DWIDTH 22 0
BBX 26 20 0 0
BITMAP
001BFE9000B800
01FFFFF001FC00
07FEAFF002F800
0FD01FC007F400
1F801FC00BF000
1F402F801FD000
1F802F803F8000
0FC03F40BF0000
06403F47F80000
0001BFBFE00000
0003FFFE400000
0002FFFE400000
0000BE7FC00000
0000BD1FE00000
1000FD0BF40040
7C01FC03F801E0
7E02F802FE07D0
3FAFF400FFFF80
1FFFD0007FFE00
02FE40001BE400
ENDCHAR
STARTCHAR L
ENCODING 76
SWIDTH 673 0
DWIDTH 16 0
BBX 21 20 -1 0
BITMAP
00001AFE4000
0000BFFFD000
0002FEAFF000
000BF403F400
001FD002F800
002FC002F800
003F8002F400
003F40019000
003F40000000
007F40000000
007F00000000
007F00000000
007F00000000
007E00000000
00BE00000100
1BFE40000B40
BFFFF9002F00
FFFFFFEAFD00
BFF5BFFFF400
2F9006BF8000
ENDCHAR
STARTCHAR M
ENCODING 77
SWIDTH 1232 0
DWIDTH 30 0
BBX 33 20 0 0
BITMAP
01BE006F800BF80000
0BFF42FFE03FFE0000
2FAF8BEBF4FEFF0000
BD1F9F42F6E07F4000
F41FAD01FB807F4000
901FB802FF407F0000
001FF002FE00BF0000
002FE002FD00BE0000
002FD003FC00FE0000
003FC003F801FD0000
003F8007F401FC0000
007F4007F002FC0000
007F400BF002F80000
00BF000FE003F40000
00BF000FD003F40000
00FE001FD003F40380
00FE001FD003F40F80
00FD001FC002FEBF00
00FD001F8001FFF800
00B8001F40006F9000
ENDCHAR
STARTCHAR N
ENCODING 78
SWIDTH 884 0
DWIDTH 21 0
BBX 25 20 0 0
BITMAP
01BE001BE40000
0BFF81FFFC0000
2FAFC3FAFE0000
BD1FCB80BE0000
F41FDE00BF0000
901FBC00BE0000
001FF400FE0000
002FF000FD0000
002FD001FD0000
003FC002FC0000
003F8002F80000
007F8003F80000
007F4007F40000
007F0007F00000
00BF0007F00000
00BE000BF00740
00FE0007F01F40
00FD0007FEBE00
00FD0002FFF800
00B800006F9000
ENDCHAR
STARTCHAR O
ENCODING 79
SWIDTH 816 0
DWIDTH 20 0
BBX 18 20 1 0
BITMAP
0001BF9000
002FFFFD00
00BFEAFF40
02FD007FC0
07F4001FE0
0FE0000BF0
1FC0000BF0
3F800007F0
3F400007F0
7F400007F0
7F00000BF0
7F00000BE0
7F00000FE0
7F40001FC0
3F80003F80
2FC000BF00
1FE002FD00
0BFEAFF400
01FFFFD000
002BF90000
ENDCHAR
STARTCHAR P
ENCODING 80
SWIDTH 805 0
DWIDTH 19 0
BBX 19 22 1 -2
BITMAP
0001AFE900
000BFFFF80
007FEABFE0
01FD001FF0
03F40007F8
0BD0B803F8
1F81FC03F8
2F01FC03F8
3E02F807F4
7D02F80BF0
BC03F42FD0
BC2BFAFF40
BC7FFFFD00
F87FFF9000
F80BE00000
BC0FE00000
BC0FD00000
7D1FC00000
7F2FC00000
2FFF800000
0BFF400000
01FD000000
ENDCHAR
STARTCHAR Q
ENCODING 81
SWIDTH 816 0
DWIDTH 20 0
BBX 20 28 1 -8
BITMAP
0001BF9000
002FFFFD00
00BFEAFF40
02FD007FC0
07F4001FD0
0FE0000BE0
1FC0000BF0
2F800007F0
3F400007F0
7F400007F0
7F00000BF0
7F00000BE0
7F00000FD0
7F40001FD0
3F80003F80
3FC000BF40
1FE002FD00
0BFEAFF800
02FFFFD000
006FFE0000
0001FF0000
00007F8000
00003FC002
00001FE00B
00000FF42E
000007FFFC
000001FFE0
0000001940
ENDCHAR
STARTCHAR R
ENCODING 82
SWIDTH 880 0
DWIDTH 21 0
BBX 23 20 1 0
BITMAP
0001AFE90000
001FFFFF8000
00BFEABFE000
02F9001FF000
07E05407F400
0F81F807F400
2F42F807F400
3E02F80BF000
7E03F41FD000
7D03F5BF8000
BC2FFFFD0000
BC3FFFD00000
BC1FFFF40000
BC0BE2FD0000
BC0FD0FE0000
7D1FC0BF401C
3E1FC03FC07C
1FBF801FFAF4
0BFF400BFFD0
01BE0001BE40
ENDCHAR
STARTCHAR S
ENCODING 83
SWIDTH 693 0
DWIDTH 17 0
BBX 16 20 1 0
BITMAP
001BFE40
01FFFFF4
07FEABFC
0FE000FD
1FC000BE
1FC000BE
1FD000BD
0FF40014
0BFE4000
02FFF800
006FFF40
0002FFE0
14001FF4
BC0003F8
FC0002F8
FC0002F8
FD0007F4
BFEABFE0
2FFFFF80
06BFE400
ENDCHAR
STARTCHAR T
ENCODING 84
SWIDTH 697 0
DWIDTH 17 0
BBX 21 20 1 0
BITMAP
005AFFFFFE40
0BFFFFFFFF80
3FEABFAAAA40
BE007F000000
FC00BF000000
F800BE000000
FC00FE000000
BC00FD000000
1001FD000000
0001FC000000
0002F8000000
0002F8000000
0003F4000000
0003F4000000
0007F4000000
0007F0000000
000BF0000000
000BE0000000
000BE0000000
0007D0000000
ENDCHAR
STARTCHAR U
ENCODING 85
SWIDTH 890 0
DWIDTH 21 0
BBX 25 20 0 0
BITMAP
01BE40002E0000
0BFFC0007F0000
2FAFD0007F0000
BD0FD000BF0000
F40FD000BE0000
900FD000FE0000
001FC000FD0000
002FC001FD0000
002F8002FC0000
003F8003FC0000
007F4007F80000
007F000BF80000
00BE000FF40000
00BE002FF40000
00FD007BF40100
00FD01F7F40740
00FE07E3F82F40
00FFFF83FFFE00
007FFE01FFF800
001BE4006F9000
ENDCHAR
STARTCHAR V
ENCODING 86
SWIDTH 763 0
DWIDTH 18 0
BBX 19 20 3 0
BITMAP
2E0006F400
7F002FFD00
BF007EBF00
BF00BC3F00
BE00B83F00
FE00B83F00
FE00BC7E00
FD007DBD00
FD003FFC00
FD001FFEA4
FD0003FFF8
FD0007FBF4
FD000BD000
BE001FC000
BE003F4000
7F00BE0000
3F86F80000
2FFFE00000
0FFF800000
02F9000000
ENDCHAR
STARTCHAR W
ENCODING 87
SWIDTH 1217 0
DWIDTH 29 0
BBX 30 20 3 0
BITMAP
2E0000BC001FD000
7F0000FD00BFF400
BF0001FC01FAF800
BF0002FC02F0FC00
BE0002FC02E0FC00
FE0003F803E0F800
FD0007F802E1F800
FD000BF802F6F400
FD000BF800FFF000
FD000FF8007FFA90
FD001FF8001FFFE0
FD002FF8001FEFD0
FD007EF8003F4000
FD00BDF8007E0000
BE01F8FC00FD0000
7F02F0FC02F40000
3F4BD0BE0BE00000
2FFF807FFF800000
1FFE002FFE000000
06F4000BE4000000
ENDCHAR
STARTCHAR X
ENCODING 88
SWIDTH 712 0
DWIDTH 17 0
BBX 21 20 -1 0
BITMAP
00BF80007D00
07FFE001FD00
1FEFF407F800
2E02FC1FE000
1401FD3F8000
0000FEBF0000
0000BFFC0000
00007FF40000
00003FD00000
00007F800000
0001FFC00000
0003FFD00000
000FEFE00000
002FCBE00000
00BF47F00000
02FD03F401C0
0BF802F80BC0
1FE001FEBF40
7F8000BFFD00
7E00001FE400
ENDCHAR
STARTCHAR Y
ENCODING 89
SWIDTH 851 0
DWIDTH 20 0
BBX 23 28 0 -8
BITMAP
01BE40002E00
0BFFC0007F00
2FAFD0007F00
BD0FD000BF00
F40FD000BE00
900FD000FE00
001FC001FD00
002FC001FD00
002F8002FC00
003F8007FC00
007F400BF800
007F001FF800
007F003EF800
007F40BAF400
003FEBE3F454
002FFF83FFFC
0006F91BFFF8
000001FFF940
00001FFBE000
0000BF4BD000
0002F80FD000
0007D00FC000
000FC01F8000
000F803F0000
001FD1FE0000
000FFFF80000
0007FFE00000
000069000000
ENDCHAR
STARTCHAR Z
ENCODING 90
SWIDTH 721 0
DWIDTH 17 0
BBX 21 20 0 0
BITMAP
001BFFEA4000
02FFFFFFF400
0BFEAABFF800
1FD0002FD000
1F40007F8000
2F4000FF0000
1F8002FD0000
0B8007F80000
00000BF00000
00002FD00000
00007F800000
0000FF000000
0002FD000000
000BF8000000
001FF0000100
1BFFD0000740
7FFFF9001F40
BFFFFFEAFE00
7FF9BFFFF400
2F9006BF9000
ENDCHAR
STARTCHAR bracketleft
ENCODING 91
SWIDTH 405 0
DWIDTH 10 0
BBX 11 24 1 -2
BITMAP
00BFF8
01FFFC
02FAA4
02F400
03F400
03F000
07F000
07F000
0BE000
0BE000
0BD000
0FD000
0FC000
1FC000
1FC000
2F8000
2F8000
2F4000
3F4000
3F4000
7F0000
7FA900
7FFF40
2FFE00
ENDCHAR
STARTCHAR backslash
ENCODING 92
SWIDTH 509 0
DWIDTH 12 0
BBX 9 22 2 0
BITMAP
2D0000
7E0000
7F0000
3F4000
2F4000
1F8000
0FC000
0FD000
0BE000
07F000
03F400
02F800
01F800
00FC00
00BD00
00BE00
007F00
003F40
002F80
001FC0
000FC0
000B40
ENDCHAR
STARTCHAR bracketright
ENCODING 93
SWIDTH 405 0
DWIDTH 10 0
BBX 10 24 -1 -2
BITMAP
07FFE0
07FFF0
01ABF0
0007F0
0007F0
000BE0
000BE0
000BD0
000FD0
000FD0
001FC0
001FC0
002F80
002F80
002F40
003F40
003F40
007F00
007F00
007E00
00BE00
6AFD00
FFFD00
BFF800
ENDCHAR
STARTCHAR asciicircum
ENCODING 94
SWIDTH 700 0
DWIDTH 17 0
BBX 12 13 2 1
BITMAP
000500
001F80
002FC0
007FD0
00FFE0
01F6F0
03E1F4
0BD0F8
0F80BC
2F407D
7E003E
BC002E
B4001D
ENDCHAR
STARTCHAR underscore
ENCODING 95
SWIDTH 354 0
DWIDTH 9 0
BBX 9 3 -1 -3
BITMAP
2AAA40
BFFF80
7FFF80
ENDCHAR
STARTCHAR grave
ENCODING 96
SWIDTH 600 0
DWIDTH 14 0
BBX 5 7 3 13
BITMAP
B400
FC00
BE00
3F00
1F40
07C0
02C0
ENDCHAR
STARTCHAR a
ENCODING 97
SWIDTH 470 0
DWIDTH 11 0
BBX 14 11 1 0
BITMAP
01BC0000
07FFD000
1FEBD000
3F4BD000
BE0FC000
FC0F8000
FC1F81D0
FC2F87D0
FEBFEF80
BFFBFE00
2F82F400
ENDCHAR
STARTCHAR b
ENCODING 98
SWIDTH 473 0
DWIDTH 11 0
BBX 14 22 1 0
BITMAP
002F4000
00FFC000
02FBD000
07D3D000
0BC3D000
0F87C000
1F4B8000
2F4F4000
3F1E0000
3F3D0000
7E740000
7EFE0000
BFFF8000
BFAFD000
BE1FE140
BD0FFFE0
BD07FFD0
7D03E900
7E07D000
3FAFC000
1FFF0000
06F80000
ENDCHAR
STARTCHAR c
ENCODING 99
SWIDTH 368 0
DWIDTH 9 0
BBX 12 11 0 0
BITMAP
01BE00
07FF80
1FEF80
2F8B80
3F0B40
3F0000
7F000B
3F407E
2FEAFD
0FFFE4
02FE40
ENDCHAR
STARTCHAR d
ENCODING 100
SWIDTH 515 0
DWIDTH 12 0
BBX 15 22 1 0
BITMAP
00001F40
00007FD0
0000BFD0
0001F6E0
0002F2E0
0003E2D0
0003E2D0
0007D3C0
000BD780
000BCB40
000FCF00
01BFDE00
0BFFEC00
2FEFF800
7F4FF000
BD0FE000
FC0FC000
FC0FC074
FC1FC1F4
FEBFEBE0
7FF7FF80
2F90B900
ENDCHAR
STARTCHAR e
ENCODING 101
SWIDTH 393 0
DWIDTH 9 0
BBX 12 11 1 0
BITMAP
06F800
1FFF00
7FBF40
BD1F40
FC2F00
F9FD04
FFE01D
FE00BD
BFABF8
3FFFE0
0AFA00
ENDCHAR
STARTCHAR f
ENCODING 102
SWIDTH 371 0
DWIDTH 9 0
BBX 11 30 1 -8
BITMAP
000B80
002FE0
00BEF0
01F4F4
02F0F0
03E1F0
0BD2E0
0FC3D0
1F87C0
1F8B40
2F5F00
3F7D00
3FB400
7FE000
7F8000
7E0000
BDBFF4
BDFFF4
BDF650
BDF000
BDB000
BDB400
BDB400
BD7400
BD7400
7D7400
7E7400
3FF000
2FE000
0B8000
ENDCHAR
STARTCHAR g
ENCODING 103
SWIDTH 479 0
DWIDTH 12 0
BBX 14 22 0 -11
BITMAP
006F0000
01FFF400
07FAF400
0FD2F000
2F83F000
3F03E000
3F07E1B0
3F0BDBF0
3FAFFFD0
2FFFFE00
0BEBF400
002FC000
00FF8000
03FF4000
0F9F0000
2E2F0000
7C3E0000
B87D0000
F4F80000
FAF40000
BFE00000
2F400000
ENDCHAR
STARTCHAR h
ENCODING 104
SWIDTH 502 0
DWIDTH 12 0
BBX 14 22 1 0
BITMAP
002F4000
00FFC000
02FBD000
03E3D000
0BC3D000
0F87C000
1F4B8000
2F4F4000
2F2E0000
3E3C0000
3EF40000
7FE6E000
7F9FF400
BE7FF000
BDBBF000
BEE3E000
BFC7E010
BF87D0B0
BF4BD2F0
BF0BEBD0
BE07FF40
7802F800
ENDCHAR
STARTCHAR i
ENCODING 105
SWIDTH 246 0
DWIDTH 6 0
BBX 8 16 1 0
BITMAP
0B80
2FE0
2FD0
1F80
0000
1F00
3F00
3E00
7E00
BD00
BD01
FC0B
BC2F
BEFD
7FF4
2F80
ENDCHAR
STARTCHAR j
ENCODING 106
SWIDTH 254 0
DWIDTH 6 0
BBX 15 27 -6 -11
BITMAP
00007D00
0000FF00
0001FF00
0000BD00
00000000
0000B800
0000FC00
0000FC00
0001F800
0001F800
0002F400
0002F478
0002F6F8
0003FFE0
0003FF40
0003F800
000BE000
007FD000
01FFC000
07DF8000
0F4F8000
2E1F4000
3C2E0000
7C7D0000
7EFC0000
7FF40000
1F900000
ENDCHAR
STARTCHAR k
ENCODING 107
SWIDTH 525 0
DWIDTH 13 0
BBX 15 22 1 0
BITMAP
002F4000
00FFC000
02FBD000
03D3D000
0BC3D000
0F87C000
1F4B8000
2F4F0000
2F2E0000
3E7C0000
3EF40000
7FD6E400
7F5FFC00
BE7EFD00
BDF4BD00
BEE0FC00
BFC7F414
BF9FD078
BF6F81F8
BF1FEBE0
7E0FFF80
3C02FD00
ENDCHAR
STARTCHAR l
ENCODING 108
SWIDTH 326 0
DWIDTH 8 0
BBX 10 22 1 0
BITMAP
002F40
00FF80
02FBC0
03D3D0
0BC3D0
0F83D0
1F47C0
2F4B80
3F0B40
3E1F00
7E2E00
7D3D00
BDB800
BDF400
BFE000
BFC000
BF4000
BE00B0
7E02E0
3FAFD0
1FFF40
07F800
ENDCHAR
STARTCHAR m
ENCODING 109
SWIDTH 744 0
DWIDTH 18 0
BBX 20 11 1 0
BITMAP
1F07D06E00
3F2FE1FF00
7E7FE7FF00
7DFBEFBE00
BED7ED7E00
BFCBFC7D01
BF4BF4BC0B
BF0BF0BC2E
BE0BE0FEFD
BD0BD0BFF4
3C07802F80
ENDCHAR
STARTCHAR n
ENCODING 110
SWIDTH 496 0
DWIDTH 12 0
BBX 14 11 1 0
BITMAP
1F06E000
3F1FF000
7E7FF000
7DFBE000
BEE7E000
BFC7D010
BF4BD0B0
BF0BC2F0
BE0BEFD0
BD0BFF40
3C02F800
ENDCHAR
STARTCHAR o
ENCODING 111
SWIDTH 451 0
DWIDTH 11 0
BBX 13 11 1 0
BITMAP
06F90000
1FFF4000
7FBFC000
BD3FD140
FC2FFFC0
FC0FFF80
FC0BE500
FD0F8000
BFBF4000
3FFE0000
0BE40000
ENDCHAR
STARTCHAR p
ENCODING 112
SWIDTH 481 0
DWIDTH 12 0
BBX 18 22 -3 -11
BITMAP
002D6F4000
007EFFC000
007FEFD000
007F47E000
007E07E000
007D0BD000
00BD0FC0E0
01FD2F87E0
02FEBFAFC0
07FFFFFE00
0BBF97E400
1EBD000000
2DBD000000
3CBC000000
78BC000000
78F8000000
B4F8000000
B5F4000000
F5F0000000
BBE0000000
7FC0000000
2E40000000
ENDCHAR
STARTCHAR q
ENCODING 113
SWIDTH 500 0
DWIDTH 12 0
BBX 14 22 1 -10
BITMAP
0001F400
01BFF400
07FFF000
1FEBE000
3F4BD000
BE0FD000
FC0FC000
FC1F8AA0
FC3F6FF0
FEBF7FE0
BFFF3C00
2F7F2C00
007E2C00
007E2C00
007E3C00
00BD3C00
00BD3800
007D7800
007EB400
003FF000
002FD000
000A4000
ENDCHAR
STARTCHAR r
ENCODING 114
SWIDTH 455 0
DWIDTH 11 0
BBX 14 11 1 0
BITMAP
1F06E000
3F1FF000
7E7FF000
7DFBE040
BEE3E2D0
BFC7FFC0
BF43FF40
BF00A400
BE000000
BD000000
3C000000
ENDCHAR
STARTCHAR s
ENCODING 115
SWIDTH 427 0
DWIDTH 10 0
BBX 14 12 0 -1
BITMAP
007D0000
00BD0000
01FC0000
02F80000
07FD0000
0BFF0000
1F7F8080
7E1FC2D0
F80FDBC0
E1FFFF00
03FFE800
01B90000
ENDCHAR
STARTCHAR t
ENCODING 116
SWIDTH 393 0
DWIDTH 9 0
BBX 13 21 0 0
BITMAP
0007D000
001FF000
003EF400
00BCF400
00F4F400
01F0F000
02F1E000
03E3D000
07EB8000
07FE0000
BFFFF800
FFFFF800
6FEA9000
0FC00000
0FC00000
0FC00000
0BD00740
0BE01F40
07FABE00
02FFF800
006F9000
ENDCHAR
STARTCHAR u
ENCODING 117
SWIDTH 462 0
DWIDTH 11 0
BBX 13 11 1 0
BITMAP
1F02D000
3F07D000
7E0BD000
7E0FC000
BD1F8000
BD2F8000
BC3F41C0
BDBF47C0
BFEFAF80
7FDFFD00
2E0BE400
ENDCHAR
STARTCHAR v
ENCODING 118
SWIDTH 449 0
DWIDTH 11 0
BBX 13 11 1 0
BITMAP
7807C000
BC1FD000
BC2FD000
BC2FD140
BD2FFFC0
BD3FFF80
BDBD5500
BEF80000
7FF00000
3FD00000
1F400000
ENDCHAR
STARTCHAR w
ENCODING 119
SWIDTH 700 0
DWIDTH 17 0
BBX 19 11 1 0
BITMAP
7807C07C00
BC0BC1FE00
BC0FC2FD00
BC2FC2FD14
BD3FD2FFFC
BD7FD3FFF8
BDFBDBD550
BEF7EF8000
7FE3FF0000
3FC3FD0000
1F41F40000
ENDCHAR
STARTCHAR x
ENCODING 120
SWIDTH 529 0
DWIDTH 13 0
BBX 16 11 0 0
BITMAP
02F42F40
0BFEFFC0
0FBFFBC0
0B5FD740
001FC000
041FC000
3D2F800E
7D3FC07E
BEBFFAFC
7FFBFFE0
1F91BE40
ENDCHAR
STARTCHAR y
ENCODING 121
SWIDTH 479 0
DWIDTH 12 0
BBX 14 22 0 -11
BITMAP
07C0B400
0FC1F400
1F82F400
1F83F000
2F47F000
2F4BE000
2F0FE0B0
2F6FD6F0
2FFFEFD0
1FFBFE00
0B9BF400
001FC000
00BF8000
02FF4000
0BAF0000
2E2F0000
7C3E0000
B47D0000
F4F80000
FAF40000
BFE00000
2F400000
ENDCHAR
STARTCHAR z
ENCODING 122
SWIDTH 445 0
DWIDTH 11 0
BBX 13 11 1 0
BITMAP
7FFFF400
BFFFF400
2ABFE000
01FE4000
0BE40000
2F800140
7F000780
7F002F80
7FEAFE00
2FFFF800
06FE9000
ENDCHAR
STARTCHAR braceleft
ENCODING 123
SWIDTH 490 0
DWIDTH 12 0
BBX 13 24 1 -2
BITMAP
0001BF40
000BFFC0
001FFA40
002F8000
003F4000
003F0000
007F0000
007F0000
007E0000
00FE0000
2BFC0000
BFE00000
7FF40000
02F80000
01FC0000
01F80000
02F80000
02F80000
02F40000
03F40000
03F40000
02FE9000
00FFF400
002FE000
ENDCHAR
STARTCHAR bar
ENCODING 124
SWIDTH 326 0
DWIDTH 8 0
BBX 8 30 0 -8
BITMAP
003D
007E
00BD
00BD
00BC
00FC
00FC
01F8
01F8
02F4
02F4
03F0
03F0
03F0
07E0
07E0
0BD0
0BD0
0FC0
0FC0
1F80
1F80
2F40
2F40
2F40
3F00
3F00
7E00
7E00
1400
ENDCHAR
STARTCHAR braceright
ENCODING 125
SWIDTH 490 0
DWIDTH 12 0
BBX 13 24 -1 -2
BITMAP
02FE0000
07FFC000
01AFD000
000BE000
0007E000
000BE000
000BE000
000BD000
000FD000
000FD000
000BFA00
0002FF80
000BFF40
001FD000
002F8000
003F4000
003F4000
003F0000
007F0000
007F0000
00BE0000
6BFD0000
FFF80000
BF900000
ENDCHAR
STARTCHAR asciitilde
ENCODING 126
SWIDTH 700 0
DWIDTH 17 0
BBX 13 6 2 4
BITMAP
05400000
1FE402C0
7FFE0BC0
FDBFEF80
F80BFF00
5001B800
ENDCHAR
STARTCHAR uni00A0
ENCODING 160
SWIDTH 265 0
DWIDTH 6 0
BBX 1 1 0 0
BITMAP
00
ENDCHAR
STARTCHAR exclamdown
ENCODING 161
SWIDTH 340 0
DWIDTH 8 0
BBX 9 20 -1 -9
BITMAP
007E00
00FF40
00FF40
007E00
000000
006000
00F400
01F400
02F000
03F000
07E000
0BD000
0FD000
1FC000
2F8000
3F8000
3F4000
7F0000
BE0000
140000
ENDCHAR
STARTCHAR cent
ENCODING 162
SWIDTH 466 0
DWIDTH 11 0
BBX 10 17 1 -3
BITMAP
001400
003800
003800
007800
07FF40
2FFFC0
7EB7D0
BCB7C0
FCA140
FCE040
BDE1D0
7FEBD0
2FFF40
07F900
02C000
02C000
028000
ENDCHAR
STARTCHAR sterling
ENCODING 163
SWIDTH 525 0
DWIDTH 13 0
BBX 13 14 0 0
BITMAP
001BF400
00BFFE00
01FEBF40
03F41F80
07E00F40
07D00000
0BD00000
3FFFD000
2FFFD000
0FC00000
0FC00000
2FEAA900
7FFFFF00
7FFFFE00
ENDCHAR
STARTCHAR currency
ENCODING 164
SWIDTH 700 0
DWIDTH 17 0
BBX 11 11 3 1
BITMAP
A0642C
FBFFBC
7FFFF4
2E46F0
7C00F4
7C00B4
7C00F4
2E46F0
7FFFF4
FFFFFC
A0642C
ENDCHAR
STARTCHAR yen
ENCODING 165
SWIDTH 497 0
DWIDTH 12 0
BBX 12 14 1 0
BITMAP
B4002E
FD00BE
BE01F8
3F43F0
1F8BD0
0FEF80
07FE00
7FFFE0
BFFFE0
02F400
BFFFE0
BFFFD0
03F000
02E000
ENDCHAR
STARTCHAR brokenbar
ENCODING 166
SWIDTH 326 0
DWIDTH 8 0
BBX 8 30 0 -8
BITMAP
003D
007E
00BD
00BD
00FC
00FC
00FC
01F8
01F8
02F4
02F4
03F0
01A0
0000
0000
0000
0140
0BC0
0FC0
0FC0
0FC0
1F80
1F80
2F40
2F40
3F00
3F00
3F00
7E00
1400
ENDCHAR
STARTCHAR section
ENCODING 167
SWIDTH 607 0
DWIDTH 15 0
BBX 13 20 1 0
BITMAP
002FF800
00FFFE00
02FEBF40
03E01F40
07E01F40
03F40A00
02FE4000
07FFE400
0F9BFD00
1F41BE00
1F803F00
0FF83E00
07FFFD00
007FF400
2906F800
7D00FC00
7E00FC00
3FABF800
2FFFE000
06FE4000
ENDCHAR
STARTCHAR dieresis
ENCODING 168
SWIDTH 600 0
DWIDTH 14 0
BBX 9 4 3 13
BITMAP
7D1F40
BE2F80
BE2F80
7D1F40
ENDCHAR
STARTCHAR copyright
ENCODING 169
SWIDTH 647 0
DWIDTH 16 0
BBX 14 14 2 8
BITMAP
006A9000
07FFFD00
1F906F40
3D1B97C0
74B9E2D0
B0E0A0E0
F1D000F0
F2C000F0
F1D000E0
B4E061D0
3C7F97C0
1F401F40
07FFFD00
00AFA000
ENDCHAR
STARTCHAR ordfeminine
ENCODING 170
SWIDTH 393 0
DWIDTH 9 0
BBX 8 9 2 11
BITMAP
02F5
1FFF
3F6F
BD2F
F83E
F87E
F8BE
BFFE
2E7D
ENDCHAR
STARTCHAR guillemotleft
ENCODING 171
SWIDTH 615 0
DWIDTH 15 0
BBX 14 9 0 1
BITMAP
007C02D0
02FD1FE0
1FF4BF80
3F82FD00
7F03F400
2FD1FD00
0BF47F80
02FC1FD0
007806C0
ENDCHAR
STARTCHAR logicalnot
ENCODING 172
SWIDTH 700 0
DWIDTH 17 0
BBX 13 8 2 0
BITMAP
6AAAAA40
FFFFFFC0
BFFFFFC0
00000FC0
00001F80
00001F80
00001F40
00000500
ENDCHAR
STARTCHAR uni00AD
ENCODING 173
SWIDTH 403 0
DWIDTH 10 0
BBX 8 3 1 6
BITMAP
2AFE
BFFE
7FA9
ENDCHAR
STARTCHAR registered
ENCODING 174
SWIDTH 647 0
DWIDTH 16 0
BBX 14 14 2 8
BITMAP
006A9000
07FFFD00
1F906F40
3D7F87C0
7478E2D0
B034B0E0
F075D0F0
F0BE40F0
F0B740E0
B4E2C1D0
3C9097C0
1F401F40
07FFFD00
00AFA000
ENDCHAR
STARTCHAR macron
ENCODING 175
SWIDTH 600 0
DWIDTH 14 0
BBX 8 3 3 13
BITMAP
2AA9
7FFF
7FFE
ENDCHAR
STARTCHAR degree
ENCODING 176
SWIDTH 385 0
DWIDTH 9 0
BBX 8 8 2 13
BITMAP
0590
1FF8
7FFD
B82E
B82E
BEBD
3FF8
1BE0
ENDCHAR
STARTCHAR plusminus
ENCODING 177
SWIDTH 700 0
DWIDTH 17 0
BBX 13 14 2 0
BITMAP
00050000
000F8000
001F8000
001F4000
1FFFFF40
2FFFFF40
1ABFAA00
003F0000
003E0000
003E0000
00140000
2AAAA800
BFFFFD00
7FFFFC00
ENDCHAR
STARTCHAR uni00B2
ENCODING 178
SWIDTH 450 0
DWIDTH 11 0
BBX 10 12 1 8
BITMAP
02FE00
0FFFC0
2F4BD0
3E07E0
2D0BD0
000FC0
002F40
00BE00
07F800
2FE540
BFFFE0
7FFFE0
ENDCHAR
STARTCHAR uni00B3
ENCODING 179
SWIDTH 450 0
DWIDTH 11 0
BBX 10 12 1 8
BITMAP
02FE40
0FFFD0
2F47E0
2E03E0
040BD0
00BF40
00FE40
005FD0
3807E0
7D0BE0
3FFFC0
0BFA00
ENDCHAR
STARTCHAR acute
ENCODING 180
SWIDTH 600 0
DWIDTH 14 0
BBX 6 7 6 13
BITMAP
02D0
07E0
0FD0
1F80
3E00
7C00
7400
ENDCHAR
STARTCHAR uni00B5
ENCODING 181
SWIDTH 462 0
DWIDTH 11 0
BBX 14 17 0 -6
BITMAP
07C0B400
0FC1F400
0F82F400
1F83F000
2F47E000
2F4BE000
3F0FD070
3F6FD1F0
3FFBEBE0
3FF7FF40
7F82F900
7E000000
7E000000
7E000000
7E000000
7E000000
3D000000
ENDCHAR
STARTCHAR paragraph
ENCODING 182
SWIDTH 739 0
DWIDTH 18 0
BBX 15 20 2 0
BITMAP
01AFFE90
0BFFFFF4
2FFFEBF8
7FFFD2F8
BFFFC2F8
BFFFC3F4
7FFF83F4
1FFF87F0
06FF47F0
003F4BE0
007F0BE0
007F0FD0
00BE0FD0
00BE1FC0
00FD1FC0
00FD2F80
00FD2F80
01FC2F80
01FC3F40
00B82F00
ENDCHAR
STARTCHAR periodcentered
ENCODING 183
SWIDTH 257 0
DWIDTH 6 0
BBX 5 4 1 4
BITMAP
6E00
BF80
BF40
7E00
ENDCHAR
STARTCHAR cedilla
ENCODING 184
SWIDTH 600 0
DWIDTH 14 0
BBX 8 7 1 -6
BITMAP
0B90
0FF8
007D
003D
2AFC
BFF4
7F90
ENDCHAR
STARTCHAR uni00B9
ENCODING 185
SWIDTH 450 0
DWIDTH 11 0
BBX 7 12 2 8
BITMAP
01B8
2FFC
7FFC
10F8
01F8
01F8
01F4
02F4
02F0
03F0
03F0
02D0
ENDCHAR
STARTCHAR ordmasculine
ENCODING 186
SWIDTH 408 0
DWIDTH 10 0
BBX 9 9 2 11
BITMAP
0BF400
2FFD00
7E7F00
BC1F40
F81F40
F82F00
BD7E00
7FFD00
1FE400
ENDCHAR
STARTCHAR guillemotright
ENCODING 187
SWIDTH 615 0
DWIDTH 15 0
BBX 13 9 1 1
BITMAP
7802D000
BF07F400
2FD2FE00
0BF47F80
02F81FC0
07F87FC0
2FE2FE00
FF47F400
B8079000
ENDCHAR
STARTCHAR onequarter
ENCODING 188
SWIDTH 955 0
DWIDTH 23 0
BBX 21 21 2 -1
BITMAP
01B800000000
2FFC00000000
7FFC00000000
10F800740000
01F800F80000
01F802F40000
01F407E00000
02F40FD00000
02F02F800000
03F03F0B8000
03F0BD1F8000
02D1F82F1800
0003F07E7D00
000BE0BCBC00
001FC0F8BC00
002F42F0F800
007E02FFFF00
002C02FFFF40
00000056F800
00000001F400
00000001E000
ENDCHAR
STARTCHAR onehalf
ENCODING 189
SWIDTH 1024 0
DWIDTH 25 0
BBX 22 21 2 -1
BITMAP
01B800000000
2FFC00000000
7FFC00000000
10F800740000
01F800F80000
01F802F40000
01F407E00000
02F40FD00000
02F02F800000
03F03F06FE00
03F0BD1FFF80
02D1F83E4FC0
0003F03D0BD0
000BE03C0BC0
001FC0001F80
002F40003F40
007E0000FD00
002C0007F400
0000007FD540
000000BFFFE0
000000BFFFD0
ENDCHAR
STARTCHAR threequarters
ENCODING 190
SWIDTH 1035 0
DWIDTH 25 0
BBX 23 21 1 -1
BITMAP
02FE40000000
0FFFD0000000
2F47E0000000
2E03E001D000
040BD007E000
00BF400BD000
00FE401F8000
005FD03F0000
3807E0BD0000
7D0BE1FC2E00
3FFFC2F47D00
0BFA07E0FCA0
00000FC1F5F4
00002F42F2F0
00007E07D3E0
0000FD0BC3E0
0001F80FFFFC
0000E00BFFFC
000000015BD0
0000000007C0
000000000780
ENDCHAR
STARTCHAR questiondown
ENCODING 191
SWIDTH 476 0
DWIDTH 11 0
BBX 11 20 -1 -9
BITMAP
0002F4
0007F8
000BF8
0002E4
000000
000240
000B80
000F80
002F40
00BE00
02F800
0FE000
3F8000
BF0090
FE01F0
FD02F4
FE07F0
BFFFE0
2FFF80
05A400
ENDCHAR
STARTCHAR Agrave
ENCODING 192
SWIDTH 786 0
DWIDTH 19 0
BBX 21 28 1 0
BITMAP
000140000000
0003F4000000
0003FD000000
0001BF800000
00001FE00000
000001A00000
000000000000
000000000000
00001AFFA400
0002FFFFFC00
001FFFAFF800
00BFD0001000
02FE001F4000
07F8003F8000
0FE0003F4000
1FD0007F0000
3F8000BE0000
3F4000BE0000
7F0000FD0000
BF0001FD0000
BF0002FC0000
BF0003FC0000
BF000BFC0040
7F401FFC02C0
3FC07EFD0B80
1FFBF9FFBF40
0BFFE0BFFD00
01BE402FE000
ENDCHAR
STARTCHAR Aacute
ENCODING 193
SWIDTH 786 0
DWIDTH 19 0
BBX 21 28 1 0
BITMAP
000000001400
00000000BE00
00000002FE00
0000001FF800
0000007F8000
000000780000
000000000000
000000000000
00001AFFA400
0002FFFFFC00
001FFFAFF800
00BFD0001000
02FE001F4000
07F8003F8000
0FE0003F4000
1FD0007F0000
3F8000BE0000
3F4000BE0000
7F0000FD0000
BF0001FD0000
BF0002FC0000
BF0003FC0000
BF000BFC0040
7F401FFC02C0
3FC07EFD0B80
1FFBF9FFBF40
0BFFE0BFFD00
01BE402FE000
ENDCHAR
STARTCHAR Acircumflex
ENCODING 194
SWIDTH 786 0
DWIDTH 19 0
BBX 21 29 1 0
BITMAP
000000140000
000000FF0000
000002FF4000
000007DB8000
00000FCBD000
00002F47D000
00001E02D000
000000000000
000000000000
00001AFFA400
0002FFFFFC00
001FFFAFF800
00BFD0001000
02FE001F4000
07F8003F8000
0FE0003F4000
1FD0007F0000
3F8000BE0000
3F4000BE0000
7F0000FD0000
BF0001FD0000
BF0002FC0000
BF0003FC0000
BF000BFC0040
7F401FFC02C0
3FC07EFD0B80
1FFBF9FFBF40
0BFFE0BFFD00
01BE402FE000
ENDCHAR
STARTCHAR Atilde
ENCODING 195
SWIDTH 786 0
DWIDTH 19 0
BBX 21 27 1 0
BITMAP
000005401400
00001FE4BC00
00003EFEF800
0000BC2FF000
0000100BD000
000000000000
000000000000
00001AFFA400
0002FFFFFC00
001FFFAFF800
00BFD0001000
02FE001F4000
07F8003F8000
0FE0003F4000
1FD0007F0000
3F8000BE0000
3F4000BE0000
7F0000FD0000
BF0001FD0000
BF0002FC0000
BF0003FC0000
BF000BFC0040
7F401FFC02C0
3FC07EFD0B80
1FFBF9FFBF40
0BFFE0BFFD00
01BE402FE000
ENDCHAR
STARTCHAR Adieresis
ENCODING 196
SWIDTH 786 0
DWIDTH 19 0
BBX 21 26 1 0
BITMAP
00000B42D000
00002FCBF000
00002FCBF000
00001F47D000
000000000000
000000000000
00001AFFA400
0002FFFFFC00
001FFFAFF800
00BFD0001000
02FE001F4000
07F8003F8000
0FE0003F4000
1FD0007F0000
3F8000BE0000
3F4000BE0000
7F0000FD0000
BF0001FD0000
BF0002FC0000
BF0003FC0000
BF000BFC0040
7F401FFC02C0
3FC07EFD0B80
1FFBF9FFBF40
0BFFE0BFFD00
01BE402FE000
ENDCHAR
STARTCHAR Aring
ENCODING 197
SWIDTH 786 0
DWIDTH 19 0
BBX 21 29 1 0
BITMAP
000000BE0000
000002FF8000
000007EBC000
00000783C000
000007EBC000
000003FF4000
000000BD0000
000000000000
000000000000
00001AFFA400
0002FFFFFC00
001FFFAFF800
00BFD0001000
02FE001F4000
07F8003F8000
0FE0003F4000
1FD0007F0000
3F8000BE0000
3F4000BE0000
7F0000FD0000
BF0001FD0000
BF0002FC0000
BF0003FC0000
BF000BFC0040
7F401FFC02C0
3FC07EFD0B80
1FFBF9FFBF40
0BFFE0BFFD00
01BE402FE000
ENDCHAR
STARTCHAR AE
ENCODING 198
SWIDTH 1015 0
DWIDTH 24 0
BBX 27 20 1 0
BITMAP
00006B81FFFF80
0007FFD7FFFF80
002FFF8BEAAA00
00BFD00FD00000
02FE001FC00000
07F8002F800000
0FE0003F800000
1FD0007F400000
3F80007F000000
7F4000BFFFFC00
7F0000FFFFFC00
BF0001FEAAA400
BF0002FD000000
BF0003FD000000
BF000BFD000000
7F400FFE000010
3F802FBF4001F4
1FFAFD3FFAAFF0
0BFFF41FFFFF90
01BF8001BFE900
ENDCHAR
STARTCHAR Ccedilla
ENCODING 199
SWIDTH 686 0
DWIDTH 16 0
BBX 19 26 1 -6
BITMAP
0001BF9000
002FFFF800
00BFEAFD00
02FD00BE00
07F4007E00
0FE0007E00
2FC000BE00
3F80007800
3F40000000
7F40000000
7F00000000
7F00000000
7F00000000
7F40000000
3F80000000
2FD0000010
0FF80006F4
07FFAABFF4
01FFFFFFD0
002FFFE500
001FF40000
0000B80000
0000BC0000
006AF80000
00FFF00000
00BF800000
ENDCHAR
STARTCHAR Egrave
ENCODING 200
SWIDTH 686 0
DWIDTH 16 0
BBX 20 28 0 0
BITMAP
0014000000
003F400000
003FD00000
001BF80000
0001FE0000
00001E0000
0000000000
0000000000
0001BFE400
001FFFFE00
00BFEABF80
01FE001FC0
02FC000FC0
03F8001FC0
02F8001F80
01FD000A00
00BFE80000
002FFD0000
02FFFD0000
0BF9000000
2FD0000000
3F80000000
7F40000000
3F80000004
3FD00001BD
1FFEAABFFD
06FFFFFFE4
006BFFE900
ENDCHAR
STARTCHAR Eacute
ENCODING 201
SWIDTH 686 0
DWIDTH 16 0
BBX 20 28 0 0
BITMAP
0000000140
0000000BE0
0000002FD0
000001FF80
000007F800
0000078000
0000000000
0000000000
0001BFE400
001FFFFE00
00BFEABF80
01FE001FC0
02FC000FC0
03F8001FC0
02F8001F80
01FD000A00
00BFE80000
002FFD0000
02FFFD0000
0BF9000000
2FD0000000
3F80000000
7F40000000
3F80000004
3FD00001BD
1FFEAABFFD
06FFFFFFE4
006BFFE900
ENDCHAR
STARTCHAR Ecircumflex
ENCODING 202
SWIDTH 686 0
DWIDTH 16 0
BBX 20 29 0 0
BITMAP
0000014000
00000FF000
00002FF400
00007DB800
0000FCBD00
0002F47D00
0002E02D00
0000000000
0000000000
0001BFE400
001FFFFE00
00BFEABF80
01FE001FC0
02FC000FC0
03F8001FC0
02F8001F80
01FD000A00
00BFE80000
002FFD0000
02FFFD0000
0BF9000000
2FD0000000
3F80000000
7F40000000
3F80000004
3FD00001BD
1FFEAABFFD
06FFFFFFE4
006BFFE900
ENDCHAR
STARTCHAR Edieresis
ENCODING 203
SWIDTH 686 0
DWIDTH 16 0
BBX 20 26 0 0
BITMAP
0000B42D00
0002FCBF00
0002FCBE00
0001F47D00
0000000000
0000000000
0001BFE400
001FFFFE00
00BFEABF80
01FE001FC0
02FC000FC0
03F8001FC0
02F8001F80
01FD000A00
00BFE80000
002FFD0000
02FFFD0000
0BF9000000
2FD0000000
3F80000000
7F40000000
3F80000004
3FD00001BD
1FFEAABFFD
06FFFFFFE4
006BFFE900
ENDCHAR
STARTCHAR Igrave
ENCODING 204
SWIDTH 495 0
DWIDTH 12 0
BBX 15 28 -1 0
BITMAP
01400000
03F40000
03FD0000
01FF4000
001FE000
0001E000
00000000
00000000
00BFFFF0
02FFFFF4
00ABFA90
0007F400
0007F000
0007F000
000BE000
000BE000
000FD000
000FD000
001FC000
001FC000
002F8000
002F8000
003F4000
003F4000
007F4000
16BFA400
7FFFFE00
7FFFFD00
ENDCHAR
STARTCHAR Iacute
ENCODING 205
SWIDTH 495 0
DWIDTH 12 0
BBX 16 28 -1 0
BITMAP
00000014
000000BD
000002FD
00001FF4
00007F80
00007800
00000000
00000000
00BFFFF0
02FFFFF4
00ABFA90
0007F400
0007F000
0007F000
000BE000
000BE000
000FD000
000FD000
001FC000
001FC000
002F8000
002F8000
003F4000
003F4000
007F4000
16BFA400
7FFFFE00
7FFFFD00
ENDCHAR
STARTCHAR Icircumflex
ENCODING 206
SWIDTH 495 0
DWIDTH 12 0
BBX 15 29 -1 0
BITMAP
00001400
0000FE00
0002FF40
0007DF80
000F8BC0
002F47D0
002E02D0
00000000
00000000
00BFFFF0
02FFFFF4
00ABFA90
0007F400
0007F000
0007F000
000BE000
000BE000
000FD000
000FD000
001FC000
001FC000
002F8000
002F8000
003F4000
003F4000
007F4000
16BFA400
7FFFFE00
7FFFFD00
ENDCHAR
STARTCHAR Idieresis
ENCODING 207
SWIDTH 495 0
DWIDTH 12 0
BBX 15 26 -1 0
BITMAP
001F47D0
002F8BE0
002F8BE0
001F47D0
00000000
00000000
00BFFFF0
02FFFFF4
00ABFA90
0007F400
0007F000
0007F000
000BE000
000BE000
000FD000
000FD000
001FC000
001FC000
002F8000
002F8000
003F4000
003F4000
007F4000
16BFA400
7FFFFE00
7FFFFD00
ENDCHAR
STARTCHAR Eth
ENCODING 208
SWIDTH 821 0
DWIDTH 20 0
BBX 20 20 0 0
BITMAP
0006FFA400
001FFFFE00
002FEAFFC0
003F802FE0
007F400BF4
007F0003F8
00BE0002FC
00FD0001FD
2FFFFE01FD
BFFFFF01FD
6BFAA901FC
03F40002FC
03F40003F8
07F00007F4
07F0000FE0
0BE0007FC0
0BE001FF40
0BFAAFFD00
0BFFFFE000
06BFE90000
ENDCHAR
STARTCHAR Ntilde
ENCODING 209
SWIDTH 884 0
DWIDTH 21 0
BBX 25 27 0 0
BITMAP
00000540140000
00001FE4BC0000
00003EFEF80000
0000BC2FF00000
00001007D00000
00000000000000
00000000000000
01BE001BE40000
0BFF81FFFC0000
2FAFC3FAFE0000
BD1FCB80BE0000
F41FDE00BF0000
901FBC00BE0000
001FF400FE0000
002FF000FD0000
002FD001FD0000
003FC002FC0000
003F8002F80000
007F8003F80000
007F4007F40000
007F0007F00000
00BF0007F00000
00BE000BF00740
00FE0007F01F40
00FD0007FEBE00
00FD0002FFF800
00B800006F9000
ENDCHAR
STARTCHAR Ograve
ENCODING 210
SWIDTH 816 0
DWIDTH 20 0
BBX 18 28 1 0
BITMAP
0014000000
00BD000000
00BF800000
002FE00000
0002FC0000
00006D0000
0000000000
0000000000
0001BF9000
002FFFFD00
00BFEAFF40
02FD007FC0
07F4001FE0
0FE0000BF0
1FC0000BF0
3F800007F0
3F400007F0
7F400007F0
7F00000BF0
7F00000BE0
7F00000FE0
7F40001FC0
3F80003F80
2FC000BF00
1FE002FD00
0BFEAFF400
01FFFFD000
002BF90000
ENDCHAR
STARTCHAR Oacute
ENCODING 211
SWIDTH 816 0
DWIDTH 20 0
BBX 18 28 1 0
BITMAP
0000000100
0000001FC0
000000BFC0
000002FE00
00000BE400
00000E4000
0000000000
0000000000
0001BF9000
002FFFFD00
00BFEAFF40
02FD007FC0
07F4001FE0
0FE0000BF0
1FC0000BF0
3F800007F0
3F400007F0
7F400007F0
7F00000BF0
7F00000BE0
7F00000FE0
7F40001FC0
3F80003F80
2FC000BF00
1FE002FD00
0BFEAFF400
01FFFFD000
002BF90000
ENDCHAR
STARTCHAR Ocircumflex
ENCODING 212
SWIDTH 816 0
DWIDTH 20 0
BBX 18 29 1 0
BITMAP
0000054000
00002FD000
00007FE000
0000FDF000
0002F4F800
0007E0FC00
0007807800
0000000000
0000000000
0001BF9000
002FFFFD00
00BFEAFF40
02FD007FC0
07F4001FE0
0FE0000BF0
1FC0000BF0
3F800007F0
3F400007F0
7F400007F0
7F00000BF0
7F00000BE0
7F00000FE0
7F40001FC0
3F80003F80
2FC000BF00
1FE002FD00
0BFEAFF400
01FFFFD000
002BF90000
ENDCHAR
STARTCHAR Otilde
ENCODING 213
SWIDTH 816 0
DWIDTH 20 0
BBX 18 27 1 0
BITMAP
0000500500
0003FD1F40
000BEFBF00
000F4BFD00
000501B800
0000000000
0000000000
0001BF9000
002FFFFD00
00BFEAFF40
02FD007FC0
07F4001FE0
0FE0000BF0
1FC0000BF0
3F800007F0
3F400007F0
7F400007F0
7F00000BF0
7F00000BE0
7F00000FE0
7F40001FC0
3F80003F80
2FC000BF00
1FE002FD00
0BFEAFF400
01FFFFD000
002BF90000
ENDCHAR
STARTCHAR Odieresis
ENCODING 214
SWIDTH 816 0
DWIDTH 20 0
BBX 18 26 1 0
BITMAP
0002E0B800
0007F5FD00
0007F5FD00
0002E0B800
0000000000
0000000000
0001BF9000
002FFFFD00
00BFEAFF40
02FD007FC0
07F4001FE0
0FE0000BF0
1FC0000BF0
3F800007F0
3F400007F0
7F400007F0
7F00000BF0
7F00000BE0
7F00000FE0
7F40001FC0
3F80003F80
2FC000BF00
1FE002FD00
0BFEAFF400
01FFFFD000
002BF90000
ENDCHAR
STARTCHAR multiply
ENCODING 215
SWIDTH 700 0
DWIDTH 17 0
BBX 13 11 2 1
BITMAP
05000500
1F801F40
1FD07F40
07F6FD00
02FFF000
00BF8000
01FFC000
07FFF000
1FD3FC00
7F40FD00
38003800
ENDCHAR
STARTCHAR Oslash
ENCODING 216
SWIDTH 816 0
DWIDTH 20 0
BBX 18 25 1 -3
BITMAP
000002D000
000003E000
0001BFE000
002FFFFD00
00BFAFFF40
02FD1FBFC0
07F42F1FE0
0FE02F0FF0
1FC03E0BF0
2F807D07F0
3F40BC07F0
7F40B807F0
7F00F40BF0
7F01F40BE0
7F02F00FE0
7F43E01FC0
3F83D02F80
3FC7D0BF00
1FEBC2FD00
0BFFEFF400
02FFFFD000
006FF90000
002E000000
003E000000
0014000000
ENDCHAR
STARTCHAR Ugrave
ENCODING 217
SWIDTH 890 0
DWIDTH 21 0
BBX 25 28 0 0
BITMAP
00014000000000
0007E000000000
0007F800000000
0002FF40000000
00002FD0000000
000002D0000000
00000000000000
00000000000000
01BE40002E0000
0BFFC0007F0000
2FAFD0007F0000
BD0FD000BF0000
F40FD000BE0000
900FD000FE0000
001FC000FD0000
002FC001FD0000
002F8002FC0000
003F8003FC0000
007F4007F80000
007F000BF80000
00BE000FF40000
00BE002FF40000
00FD007BF40100
00FD01F7F40740
00FE07E3F82F40
00FFFF83FFFE00
007FFE01FFF800
001BE4006F9000
ENDCHAR
STARTCHAR Uacute
ENCODING 218
SWIDTH 890 0
DWIDTH 21 0
BBX 25 28 0 0
BITMAP
00000000140000
00000001FC0000
00000007FC0000
0000001FF40000
000000BF400000
000000B4000000
00000000000000
00000000000000
01BE40002E0000
0BFFC0007F0000
2FAFD0007F0000
BD0FD000BF0000
F40FD000BE0000
900FD000FE0000
001FC000FD0000
002FC001FD0000
002F8002FC0000
003F8003FC0000
007F4007F80000
007F000BF80000
00BE000FF40000
00BE002FF40000
00FD007BF40100
00FD01F7F40740
00FE07E3F82F40
00FFFF83FFFE00
007FFE01FFF800
001BE4006F9000
ENDCHAR
STARTCHAR Ucircumflex
ENCODING 219
SWIDTH 890 0
DWIDTH 21 0
BBX 25 29 0 0
BITMAP
00000054000000
000001FE000000
000003FF000000
00000BDF400000
00001F8F800000
00003F0BC00000
00003D07800000
00000000000000
00000000000000
01BE40002E0000
0BFFC0007F0000
2FAFD0007F0000
BD0FD000BF0000
F40FD000BE0000
900FD000FE0000
001FC000FD0000
002FC001FD0000
002F8002FC0000
003F8003FC0000
007F4007F80000
007F000BF80000
00BE000FF40000
00BE002FF40000
00FD007BF40100
00FD01F7F40740
00FE07E3F82F40
00FFFF83FFFE00
007FFE01FFF800
001BE4006F9000
ENDCHAR
STARTCHAR Udieresis
ENCODING 220
SWIDTH 890 0
DWIDTH 21 0
BBX 25 26 0 0
BITMAP
00001F07C00000
00003F8FD00000
00003F4FD00000
00002E0B800000
00000000000000
00000000000000
01BE40002E0000
0BFFC0007F0000
2FAFD0007F0000
BD0FD000BF0000
F40FD000BE0000
900FD000FE0000
001FC000FD0000
002FC001FD0000
002F8002FC0000
003F8003FC0000
007F4007F80000
007F000BF80000
00BE000FF40000
00BE002FF40000
00FD007BF40100
00FD01F7F40740
00FE07E3F82F40
00FFFF83FFFE00
007FFE01FFF800
001BE4006F9000
ENDCHAR
STARTCHAR Yacute
ENCODING 221
SWIDTH 851 0
DWIDTH 20 0
BBX 23 36 0 -8
BITMAP
000000001400
00000000BD00
00000002FD00
0000001FF400
0000007F8000
000000780000
000000000000
000000000000
01BE40002E00
0BFFC0007F00
2FAFD0007F00
BD0FD000BF00
F40FD000BE00
900FD000FE00
001FC001FD00
002FC001FD00
002F8002FC00
003F8007FC00
007F400BF800
007F001FF800
007F003EF800
007F40BAF400
003FEBE3F454
002FFF83FFFC
0006F91BFFF8
000001FFF940
00001FFBE000
0000BF4BD000
0002F80FD000
0007D00FC000
000FC01F8000
000F803F0000
001FD1FE0000
000FFFF80000
0007FFE00000
000069000000
ENDCHAR
STARTCHAR Thorn
ENCODING 222
SWIDTH 776 0
DWIDTH 19 0
BBX 18 25 1 -3
BITMAP
0000BC0000
0000FD0000
0001FC0000
0001FC0000
0002FC0000
0007FFE400
007FFFFE00
01FFFAFF80
07FBF42FD0
0FD7F00FE0
1F47F00FE0
3E0BE00FE0
7D0BE01FD0
BC0FD02FC0
BC0FD1FF40
F8FFFFFD00
F8FFFFE000
F82FD50000
F82F800000
BC3F400000
BC3F400000
7DBF000000
2FFE000000
1FFD000000
02E4000000
ENDCHAR
STARTCHAR germandbls
ENCODING 223
SWIDTH 596 0
DWIDTH 14 0
BBX 17 24 1 -5
BITMAP
001BF80000
00BFFF0000
02FEBF4000
0BE01F8000
0FC01F8000
1F402F4000
2F00BE0000
3F07F80000
7E1FD00000
7E2F800000
BD2FC00000
BD1FF50000
BD0BFFF900
BD3FBFFF40
BDBC1F8600
FDF81F8000
FDFEBF8000
FCBFFF0000
FC1BF80000
FC00000000
FC00000000
FC00000000
FC00000000
B800000000
ENDCHAR
STARTCHAR agrave
ENCODING 224
SWIDTH 470 0
DWIDTH 11 0
BBX 14 20 1 0
BITMAP
07800000
0FD00000
0BE00000
02F00000
00F80000
007C0000
001C0000
00000000
00000000
01BC0000
07FFD000
1FEBD000
3F4BD000
BE0FC000
FC0F8000
FC1F81D0
FC2F87D0
FEBFEF80
BFFBFE00
2F82F400
ENDCHAR
STARTCHAR aacute
ENCODING 225
SWIDTH 470 0
DWIDTH 11 0
BBX 14 20 1 0
BITMAP
0000B400
0001F800
0002F400
0007E000
000BC000
001F0000
001D0000
00000000
00000000
01BC0000
07FFD000
1FEBD000
3F4BD000
BE0FC000
FC0F8000
FC1F81D0
FC2F87D0
FEBFEF80
BFFBFE00
2F82F400
ENDCHAR
STARTCHAR acircumflex
ENCODING 226
SWIDTH 470 0
DWIDTH 11 0
BBX 14 21 1 0
BITMAP
00054000
001FC000
003FD000
00BAE000
01F6F000
03E1F000
07D1F400
0780B400
00000000
00000000
01BC0000
07FFD000
1FEBD000
3F4BD000
BE0FC000
FC0F8000
FC1F81D0
FC2F87D0
FEBFEF80
BFFBFE00
2F82F400
ENDCHAR
STARTCHAR atilde
ENCODING 227
SWIDTH 470 0
DWIDTH 11 0
BBX 14 18 1 0
BITMAP
00500500
07F91F00
0FBFBE00
1F0BFC00
0401E400
00000000
00000000
01BC0000
07FFD000
1FEBD000
3F4BD000
BE0FC000
FC0F8000
FC1F81D0
FC2F87D0
FEBFEF80
BFFBFE00
2F82F400
ENDCHAR
STARTCHAR adieresis
ENCODING 228
SWIDTH 470 0
DWIDTH 11 0
BBX 14 17 1 0
BITMAP
02D0B400
07F2FC00
0BE2F800
07D1F400
00000000
00000000
01BC0000
07FFD000
1FEBD000
3F4BD000
BE0FC000
FC0F8000
FC1F81D0
FC2F87D0
FEBFEF80
BFFBFE00
2F82F400
ENDCHAR
STARTCHAR aring
ENCODING 229
SWIDTH 470 0
DWIDTH 11 0
BBX 14 20 1 0
BITMAP
002F8000
00BFE000
01FAF000
01E0F000
01FAF000
00FFD000
002F4000
00000000
00000000
01BC0000
07FFD000
1FEBD000
3F4BD000
BE0FC000
FC0F8000
FC1F81D0
FC2F87D0
FEBFEF80
BFFBFE00
2F82F400
ENDCHAR
STARTCHAR ae
ENCODING 230
SWIDTH 653 0
DWIDTH 16 0
BBX 18 11 1 0
BITMAP
00AF2F9000
07FFFFF400
2FEBFAF400
7F47E0F400
BD0BC1F400
FC0FDBD000
FC1FFE41E0
FC2FE00BE0
FEBFFABFC0
7FF6FFFE00
1F906FE400
ENDCHAR
STARTCHAR ccedilla
ENCODING 231
SWIDTH 368 0
DWIDTH 9 0
BBX 12 18 0 -7
BITMAP
01BE00
07FF80
0FEF80
2F8B80
3F0B40
3F0100
7F000A
3F002F
3F81BD
1FFFF4
07FF90
03FE00
001F00
000F40
002F00
1FFE00
2FF800
065000
ENDCHAR
STARTCHAR egrave
ENCODING 232
SWIDTH 393 0
DWIDTH 9 0
BBX 12 20 1 0
BITMAP
1E0000
3F4000
2F8000
0BC000
03E000
01F000
007000
000000
000000
06F800
1FFF00
7FBF40
BD1F40
FC2F00
F9FD04
FFE01D
FE00BD
BFABF8
3FFFE0
0AFA00
ENDCHAR
STARTCHAR eacute
ENCODING 233
SWIDTH 393 0
DWIDTH 9 0
BBX 12 20 1 0
BITMAP
0002D0
0007E0
000BD0
001F80
002F00
007C00
007400
000000
000000
06F800
1FFF00
7FBF40
BD1F40
FC2F00
F9FD04
FFE01D
FE00BD
BFABF8
3FFFE0
0AFA00
ENDCHAR
STARTCHAR ecircumflex
ENCODING 234
SWIDTH 393 0
DWIDTH 9 0
BBX 12 21 1 0
BITMAP
001500
007F00
00FF40
02EB80
07DBC0
0F87C0
1F47D0
1E02D0
000000
000000
06F800
1FFF00
7FBF40
BD1F40
FC2F00
F9FD04
FFE01D
FE00BD
BFABF8
3FFFE0
0AFA00
ENDCHAR
STARTCHAR edieresis
ENCODING 235
SWIDTH 393 0
DWIDTH 9 0
BBX 12 17 1 0
BITMAP
0B42D0
1FCBF0
2F8BE0
1F47D0
000000
000000
06F800
1FFF00
7FBF40
BD1F40
FC2F00
F9FD04
FFE01D
FE00BD
BFABF8
3FFFE0
0AFA00
ENDCHAR
STARTCHAR igrave
ENCODING 236
SWIDTH 246 0
DWIDTH 6 0
BBX 10 20 -1 0
BITMAP
2D0000
7F0000
3F4000
1F8000
07D000
02E000
00A000
000000
000000
01F000
03F000
03E000
07E000
0BD000
0BD010
0FC0B0
0BC2F0
0BEFD0
07FF40
02F800
ENDCHAR
STARTCHAR iacute
ENCODING 237
SWIDTH 246 0
DWIDTH 6 0
BBX 8 20 1 0
BITMAP
003C
00BD
00FC
02F4
03E0
0B80
0A00
0000
0000
1F00
3F00
3E00
7E00
BD00
BD01
FC0B
BC2F
BEFD
7FF4
2F80
ENDCHAR
STARTCHAR icircumflex
ENCODING 238
SWIDTH 246 0
DWIDTH 6 0
BBX 9 21 0 0
BITMAP
005000
02F800
07FC00
0FBD00
2F3D00
7D2E00
FC2F00
B41E00
000000
000000
07C000
0FC000
0F8000
1F8000
2F4000
2F4040
3F02C0
2F0BC0
2FBF40
1FFD00
0BE000
ENDCHAR
STARTCHAR idieresis
ENCODING 239
SWIDTH 246 0
DWIDTH 6 0
BBX 9 17 0 0
BITMAP
7C1F00
FE3F40
FD3F40
781E00
000000
000000
07C000
0FC000
0F8000
1F8000
2F4000
2F4040
3F02C0
2F0BC0
2FBF40
1FFD00
0BE000
ENDCHAR
STARTCHAR eth
ENCODING 240
SWIDTH 451 0
DWIDTH 11 0
BBX 12 22 1 0
BITMAP
07D000
07F018
01F8BD
00BFF8
007FE0
02FF80
0FFFC0
078BD0
000BD0
0007E0
0007E0
06FBF0
1FFFF0
7FAFE0
BD07E0
FC07E0
FC07D0
FC0BD0
FD1F80
BFBF40
3FFE00
0BE400
ENDCHAR
STARTCHAR ntilde
ENCODING 241
SWIDTH 496 0
DWIDTH 12 0
BBX 14 18 1 0
BITMAP
00500500
03FD1F00
0BBFBE00
1F0BFD00
0501F400
00000000
00000000
1F06E000
3F1FF000
7E7FF000
7DFBE000
BEE7E000
BFC7D010
BF4BD0B0
BF0BC2F0
BE0BEFD0
BD0BFF40
3C02F800
ENDCHAR
STARTCHAR ograve
ENCODING 242
SWIDTH 451 0
DWIDTH 11 0
BBX 13 20 1 0
BITMAP
2D000000
3F000000
2F800000
0FC00000
03E00000
01F00000
00700000
00000000
00000000
06F90000
1FFF4000
7FBFC000
BD3FD140
FC2FFFC0
FC0FFF80
FC0BE500
FD0F8000
BFBF4000
3FFE0000
0BE40000
ENDCHAR
STARTCHAR oacute
ENCODING 243
SWIDTH 451 0
DWIDTH 11 0
BBX 13 20 1 0
BITMAP
0002D000
0007E000
000FD000
001F8000
002E0000
007C0000
00740000
00000000
00000000
06F90000
1FFF4000
7FBFC000
BD3FD140
FC2FFFC0
FC0FFF80
FC0BE500
FD0F8000
BFBF4000
3FFE0000
0BE40000
ENDCHAR
STARTCHAR ocircumflex
ENCODING 244
SWIDTH 451 0
DWIDTH 11 0
BBX 13 21 1 0
BITMAP
00140000
007F0000
01FF4000
02EB8000
07DB8000
0F8BC000
2F47D000
2D03C000
00000000
00000000
06F90000
1FFF4000
7FBFC000
BD3FD140
FC2FFFC0
FC0FFF80
FC0BE500
FD0F8000
BFBF4000
3FFE0000
0BE40000
ENDCHAR
STARTCHAR otilde
ENCODING 245
SWIDTH 451 0
DWIDTH 11 0
BBX 13 18 1 0
BITMAP
05401400
1FE0B800
3EFEF400
782FF000
100B8000
00000000
00000000
06F90000
1FFF4000
7FBFC000
BD3FD140
FC2FFFC0
FC0FFF80
FC0BE500
FD0F8000
BFBF4000
3FFE0000
0BE40000
ENDCHAR
STARTCHAR odieresis
ENCODING 246
SWIDTH 451 0
DWIDTH 11 0
BBX 13 17 1 0
BITMAP
0B42D000
2F8BE000
2F8BE000
1F47D000
00000000
00000000
06F90000
1FFF4000
7FBFC000
BD3FD140
FC2FFFC0
FC0FFF80
FC0BE500
FD0F8000
BFBF4000
3FFE0000
0BE40000
ENDCHAR
STARTCHAR divide
ENCODING 247
SWIDTH 700 0
DWIDTH 17 0
BBX 13 13 2 0
BITMAP
001F4000
002F8000
002F8000
001F4000
00000000
BFFFFFC0
FFFFFFC0
6AAAAA40
00000000
007D0000
00FE0000
00FE0000
00780000
ENDCHAR
STARTCHAR oslash
ENCODING 248
SWIDTH 459 0
DWIDTH 11 0
BBX 13 17 1 -3
BITMAP
002C0000
003C0000
00380000
06FD0000
1FFF4000
7FFFC000
BDBBD040
FCE7FFC0
F8E7FFC0
F9D7E900
FEDBC000
BFEF8000
3FFF0000
0BF80000
07800000
07400000
07000000
ENDCHAR
STARTCHAR ugrave
ENCODING 249
SWIDTH 462 0
DWIDTH 11 0
BBX 13 20 1 0
BITMAP
0B400000
1FC00000
0FD00000
07E00000
01F40000
00B80000
00280000
00000000
00000000
1F02D000
3F07D000
7E0BD000
7E0FC000
BD1F8000
BD2F8000
BC3F41C0
BDBF47C0
BFEFAF80
7FDFFD00
2E0BE400
ENDCHAR
STARTCHAR uacute
ENCODING 250
SWIDTH 462 0
DWIDTH 11 0
BBX 13 20 1 0
BITMAP
0000F000
0002F400
0003F000
000BD000
000F8000
001E0000
002C0000
00000000
00000000
1F02D000
3F07D000
7E0BD000
7E0FC000
BD1F8000
BD2F8000
BC3F41C0
BDBF47C0
BFEFAF80
7FDFFD00
2E0BE400
ENDCHAR
STARTCHAR ucircumflex
ENCODING 251
SWIDTH 462 0
DWIDTH 11 0
BBX 13 21 1 0
BITMAP
00050000
002F8000
007FC000
00FBD000
02F3E000
07D2E000
0BC2F000
0B41E000
00000000
00000000
1F02D000
3F07D000
7E0BD000
7E0FC000
BD1F8000
BD2F8000
BC3F41C0
BDBF47C0
BFEFAF80
7FDFFD00
2E0BE400
ENDCHAR
STARTCHAR udieresis
ENCODING 252
SWIDTH 462 0
DWIDTH 11 0
BBX 13 17 1 0
BITMAP
07D1F400
0BE2F800
0FE3F400
0781E000
00000000
00000000
1F02D000
3F07D000
7E0BD000
7E0FC000
BD1F8000
BD2F8000
BC3F41C0
BDBF47C0
BFEFAF80
7FDFFD00
2E0BE400
ENDCHAR
STARTCHAR yacute
ENCODING 253
SWIDTH 479 0
DWIDTH 12 0
BBX 14 31 0 -11
BITMAP
00003C00
0000BD00
0000FC00
0002F400
0003E000
00078000
000B0000
00000000
00000000
07C0B400
0FC1F400
1F82F400
1F83F000
2F47F000
2F4BE000
2F0FE0B0
2F6FD6F0
2FFFEFD0
1FFBFE00
0B9BF400
001FC000
00BF8000
02FF4000
0BAF0000
2E2F0000
7C3E0000
B47D0000
F4F80000
FAF40000
BFE00000
2F400000
ENDCHAR
STARTCHAR thorn
ENCODING 254
SWIDTH 508 0
DWIDTH 12 0
BBX 16 27 0 -8
BITMAP
00500000
02F40000
03F00000
07F00000
07E00000
0BD00000
0BC00000
0FC00000
0F86E400
1F9FFC00
1F7EFD00
2FB4BD00
2FE0BD00
2FC0FC04
3F81F82D
3F47F4BC
3F6FFAF4
3FFFFFD0
7FF4BE40
7E000000
7E000000
7E000000
7E000000
7E000000
7E000000
7E000000
7D000000
ENDCHAR
STARTCHAR ydieresis
ENCODING 255
SWIDTH 479 0
DWIDTH 12 0
BBX 14 28 0 -11
BITMAP
01F47D00
02F8BE00
03F8FD00
01E07800
00000000
00000000
07C0B400
0FC1F400
1F82F400
1F83F000
2F47F000
2F4BE000
2F0FE0B0
2F6FD6F0
2FFFEFD0
1FFBFE00
0B9BF400
001FC000
00BF8000
02FF4000
0BAF0000
2E2F0000
7C3E0000
B47D0000
F4F80000
FAF40000
BFE00000
2F400000
ENDCHAR
STARTCHAR Amacron
ENCODING 256
SWIDTH 786 0
DWIDTH 19 0
BBX 21 25 1 0
BITMAP
000006AA4000
00001FFFD000
00001FFFC000
000000000000
000000000000
00001AFFA400
0002FFFFFC00
001FFFAFF800
00BFD0001000
02FE001F4000
07F8003F8000
0FE0003F4000
1FD0007F0000
3F8000BE0000
3F4000BE0000
7F0000FD0000
BF0001FD0000
BF0002FC0000
BF0003FC0000
BF000BFC0040
7F401FFC02C0
3FC07EFD0B80
1FFBF9FFBF40
0BFFE0BFFD00
01BE402FE000
ENDCHAR
STARTCHAR amacron
ENCODING 257
SWIDTH 470 0
DWIDTH 11 0
BBX 14 16 1 0
BITMAP
01AA9000
07FFF400
07FFF000
00000000
00000000
01BC0000
07FFD000
1FEBD000
3F4BD000
BE0FC000
FC0F8000
FC1F81D0
FC2F87D0
FEBFEF80
BFFBFE00
2F82F400
ENDCHAR
STARTCHAR Abreve
ENCODING 258
SWIDTH 786 0
DWIDTH 19 0
BBX 21 27 1 0
BITMAP
000014001000
00007E00F800
00003FABF400
00001FFFE000
000006FE4000
000000000000
000000000000
00001AFFA400
0002FFFFFC00
001FFFAFF800
00BFD0001000
02FE001F4000
07F8003F8000
0FE0003F4000
1FD0007F0000
3F8000BE0000
3F4000BE0000
7F0000FD0000
BF0001FD0000
BF0002FC0000
BF0003FC0000
BF000BFC0040
7F401FFC02C0
3FC07EFD0B80
1FFBF9FFBF40
0BFFE0BFFD00
01BE402FE000
ENDCHAR
STARTCHAR abreve
ENCODING 259
SWIDTH 470 0
DWIDTH 11 0
BBX 14 19 1 0
BITMAP
05000400
0F402E00
0FC07E00
0BFAFC00
03FFF400
00BF8000
00000000
00000000
01BC0000
07FFD000
1FEBD000
3F4BD000
BE0FC000
FC0F8000
FC1F81D0
FC2F87D0
FEBFEF80
BFFBFE00
2F82F400
ENDCHAR
STARTCHAR Aogonek
ENCODING 260
SWIDTH 786 0
DWIDTH 19 0
BBX 21 26 1 -6
BITMAP
00001AFFA400
0002FFFFFC00
001FFEAAF800
00BF90000000
02FE002F4000
07F4003F8000
0FE0003F4000
1FC0007F0000
3F8000BE0000
3F4000BE0000
7F0000FD0000
BF0001FD0000
BF0002FC0000
BF0003FC0000
BF000BFC0000
7F400FFC02C0
3F803FFC0BC0
1FFAF9FFBF40
0BFFE0BFFD00
01BE402FE000
0000002F4000
0000007D0000
0000007C0000
0000007E5400
0000003FFC00
0000000BE400
ENDCHAR
STARTCHAR aogonek
ENCODING 261
SWIDTH 470 0
DWIDTH 11 0
BBX 14 17 1 -6
BITMAP
01BC0000
07FFD000
1FEBD000
3F4BD000
BE0FC000
FC0F8000
FC1F81D0
FC2F87D0
FEBFEF80
BFFBFE00
2F87F400
001F8000
002E0000
003D0000
003E5400
001FFD00
0007F800
ENDCHAR
STARTCHAR Cacute
ENCODING 262
SWIDTH 686 0
DWIDTH 16 0
BBX 19 28 1 0
BITMAP
0000000500
0000001F80
000000BF80
000002FE00
00000BE400
00000E4000
0000000000
0000000000
0001BF9000
002FFFF800
00BFEAFD00
02FD00BE00
07F4007E00
0FE0007E00
2FC000BE00
3F80007800
3F40000000
7F40000000
7F00000000
7F00000000
7F00000000
7F40000000
3F80000000
2FD0000010
0FF80006F4
07FFAABFF4
00BFFFFF90
001AFFA400
ENDCHAR
STARTCHAR cacute
ENCODING 263
SWIDTH 368 0
DWIDTH 9 0
BBX 12 20 0 0
BITMAP
0000B4
0001F8
0003F4
0007E0
000B80
001F00
001D00
000000
000000
01BE00
07FF80
1FEF80
2F8B80
3F0B40
3F0000
7F000B
3F407E
2FEAFD
0FFFE4
02FE40
ENDCHAR
STARTCHAR Ccircumflex
ENCODING 264
SWIDTH 686 0
DWIDTH 16 0
BBX 19 29 1 0
BITMAP
0000054000
00002FD000
00007FE000
0000F9F000
0002F5F400
0007E0F800
0007807800
0000000000
0000000000
0001BF9000
002FFFF800
00BFEAFD00
02FD00BE00
07F4007E00
0FE0007E00
2FC000BE00
3F80007800
3F40000000
7F40000000
7F00000000
7F00000000
7F00000000
7F40000000
3F80000000
2FD0000010
0FF80006F4
07FFAABFF4
00BFFFFF90
001AFFA400
ENDCHAR
STARTCHAR ccircumflex
ENCODING 265
SWIDTH 368 0
DWIDTH 9 0
BBX 12 21 0 0
BITMAP
000500
002FC0
007FD0
00BAE0
01F6E0
03E2F0
0BC1F4
0B40F0
000000
000000
01BE00
07FF80
1FEF80
2F8B80
3F0B40
3F0000
7F000B
3F407E
2FEAFD
0FFFE4
02FE40
ENDCHAR
STARTCHAR Cdotaccent
ENCODING 266
SWIDTH 686 0
DWIDTH 16 0
BBX 19 26 1 0
BITMAP
00001F4000
00003FC000
00007FC000
00002F4000
0000000000
0000000000
0001BF9000
002FFFF800
00BFEAFD00
02FD00BE00
07F4007E00
0FE0007E00
2FC000BE00
3F80007800
3F40000000
7F40000000
7F00000000
7F00000000
7F00000000
7F40000000
3F80000000
2FD0000010
0FF80006F4
07FFAABFF4
00BFFFFF90
001AFFA400
ENDCHAR
STARTCHAR cdotaccent
ENCODING 267
SWIDTH 368 0
DWIDTH 9 0
BBX 12 17 0 0
BITMAP
002E00
00BF80
00BF40
002E00
000000
000000
01BE00
07FF80
1FEF80
2F8B80
3F0B40
3F0000
7F000B
3F407E
2FEAFD
0FFFE4
02FE40
ENDCHAR
STARTCHAR Ccaron
ENCODING 268
SWIDTH 686 0
DWIDTH 16 0
BBX 19 28 1 0
BITMAP
0001D02D00
0002F0BD00
0001F5F800
0000BAE000
00007FC000
00001F4000
0000000000
0000000000
0001BF9000
002FFFF800
00BFEAFD00
02FD00BE00
07F4007E00
0FE0007E00
2FC000BE00
3F80007800
3F40000000
7F40000000
7F00000000
7F00000000
7F00000000
7F40000000
3F80000000
2FD0000010
0FF80006F4
07FFAABFF4
00BFFFFF90
001AFFA400
ENDCHAR
STARTCHAR ccaron
ENCODING 269
SWIDTH 368 0
DWIDTH 9 0
BBX 12 21 0 0
BITMAP
01E02D
02F0BD
01F0F8
01F5F0
00F7E0
00BFC0
007F40
002E00
000000
000000
01BE00
07FF80
1FEF80
2F8B80
3F0B40
3F0000
7F000B
3F407E
2FEAFD
0FFFE4
02FE40
ENDCHAR
STARTCHAR Dcaron
ENCODING 270
SWIDTH 836 0
DWIDTH 20 0
BBX 19 28 1 0
BITMAP
000780B400
0007C1F400
0003D3E000
0002FBC000
0000FF4000
00007D0000
0000000000
0000000000
006BFE9000
0BFFFFF900
7FFEABFF40
FE4000BFD0
A400001FE0
00BD000BF4
01FD0007F4
01FC0003F8
02F80003F8
03F40003F8
07F40003F4
07F00007F4
0BE0000BF0
0BE0000FE0
0FD0002FD0
0FD000BF80
1FD007FE00
1FEABFF800
1FFFFF9000
0AFFE50000
ENDCHAR
STARTCHAR dcaron
ENCODING 271
SWIDTH 470 0
DWIDTH 11 0
BBX 15 23 1 0
BITMAP
00000014
000000BC
000000FC
00007CF8
0000FDF4
0000FCE0
0001FC00
0001F800
0001F400
0002F400
0002F000
0003F000
01BBE000
07FFE000
1FEBD000
3F4BC000
BE0FC000
FC0F8000
FC1F81D0
FC2F87D0
FEBFEF80
BFFBFE00
2F82F400
ENDCHAR
STARTCHAR Dcroat
ENCODING 272
SWIDTH 821 0
DWIDTH 20 0
BBX 20 20 0 0
BITMAP
0006FFA400
001FFFFE00
002FEAFFC0
003F802FE0
007F400BF4
007F0003F8
00BE0002FC
00FD0001FD
2FFFFE01FD
BFFFFF01FD
6BFAA901FC
03F40002FC
03F40003F8
07F00007F4
07F0000FE0
0BE0007FC0
0BE001FF40
0BFAAFFD00
0BFFFFE000
06BFE90000
ENDCHAR
STARTCHAR dcroat
ENCODING 273
SWIDTH 470 0
DWIDTH 11 0
BBX 14 20 1 0
BITMAP
00007D00
0000FD00
0000FC00
0001FC00
03FFFF00
03FFFF00
01ABF800
0002F000
0003F000
01BBE000
07FFE000
1FEBD000
3F4BC000
BE0FC000
FC0F8000
FC1F81D0
FC2F87D0
FEBFEF80
BFFBFE00
2F82F400
ENDCHAR
STARTCHAR Emacron
ENCODING 274
SWIDTH 686 0
DWIDTH 16 0
BBX 20 25 0 0
BITMAP
00006AA400
0001FFFD00
0001FFFC00
0000000000
0000000000
0001BFE400
001FFFFE00
00BFEABF80
01FE001FC0
02FC000FC0
03F8001FC0
02F8001F80
01FD000A00
00BFE80000
002FFD0000
02FFFD0000
0BF9000000
2FD0000000
3F80000000
7F40000000
3F80000004
3FD00001BD
1FFEAABFFD
06FFFFFFE4
006BFFE900
ENDCHAR
STARTCHAR emacron
ENCODING 275
SWIDTH 393 0
DWIDTH 9 0
BBX 12 16 1 0
BITMAP
06AA40
1FFFD0
1FFFC0
000000
000000
06F800
1FFF00
7FBF40
BD1F40
FC2F00
F9FD04
FFE01D
FE00BD
BFABF8
3FFFE0
0AFA00
ENDCHAR
STARTCHAR Ebreve
ENCODING 276
SWIDTH 686 0
DWIDTH 16 0
BBX 20 27 0 0
BITMAP
0001400100
0007E00F80
0003FABF40
0001FFFE00
00006FE400
0000000000
0000000000
0001BFE400
001FFFFE00
00BFEABF80
01FE001FC0
02FC000FC0
03F8001FC0
02F8001F80
01FD000A00
00BFE80000
002FFD0000
02FFFD0000
0BF9000000
2FD0000000
3F80000000
7F40000000
3F80000004
3FD00001BD
1FFEAABFFD
06FFFFFFE4
006BFFE900
ENDCHAR
STARTCHAR ebreve
ENCODING 277
SWIDTH 393 0
DWIDTH 9 0
BBX 12 19 1 0
BITMAP
140010
3D00B8
3F01F8
2FEBF0
0FFFD0
02FE00
000000
000000
06F800
1FFF00
7FBF40
BD1F40
FC2F00
F9FD04
FFE01D
FE00BD
BFABF8
3FFFE0
0AFA00
ENDCHAR
STARTCHAR Edotaccent
ENCODING 278
SWIDTH 686 0
DWIDTH 16 0
BBX 20 26 0 0
BITMAP
00000BD000
00001FE000
00002FE000
00000B8000
0000000000
0000000000
0001BFE400
001FFFFE00
00BFEABF80
01FE001FC0
02FC000FC0
03F8001FC0
02F8001F80
01FD000A00
00BFE80000
002FFD0000
02FFFD0000
0BF9000000
2FD0000000
3F80000000
7F40000000
3F80000004
3FD00001BD
1FFEAABFFD
06FFFFFFE4
006BFFE900
ENDCHAR
STARTCHAR edotaccent
ENCODING 279
SWIDTH 393 0
DWIDTH 9 0
BBX 12 17 1 0
BITMAP
00BD00
01FE00
01FE00
00B800
000000
000000
06F800
1FFF00
7FBF40
BD1F40
FC2F00
F9FD04
FFE01D
FE00BD
BFABF8
3FFFE0
0AFA00
ENDCHAR
STARTCHAR Eogonek
ENCODING 280
SWIDTH 686 0
DWIDTH 16 0
BBX 20 26 0 -6
BITMAP
0001BFE400
001FFFFE00
00BFEABF80
01FE001FC0
02FC000FC0
03F8001FC0
02F8001F80
01FD000A00
00BFE80000
002FFD0000
02FFFD0000
0BF9000000
2FD0000000
3F80000000
7F40000000
3F80000004
3FD00001BD
1FFEAABFFD
07FFFFFFE4
006BFFA900
00007D0000
0000B80000
0000F80000
0000FEA400
00007FF400
00001BE000
ENDCHAR
STARTCHAR eogonek
ENCODING 281
SWIDTH 393 0
DWIDTH 9 0
BBX 13 17 0 -6
BITMAP
01BE0000
07FFC000
0FEFD000
2F47D000
3F0BC000
3E6F4000
7FFD0340
3F901F40
2F81BF00
1FFFFC00
07FFD000
00BD0000
00F40000
01F00000
01F81000
00FFF000
006FE000
ENDCHAR
STARTCHAR Ecaron
ENCODING 282
SWIDTH 686 0
DWIDTH 16 0
BBX 20 28 0 0
BITMAP
0000B41E00
0000F83F00
0000BCBD00
00003EF400
00001FE000
00000B8000
0000000000
0000000000
0001BFE400
001FFFFE00
00BFEABF80
01FE001FC0
02FC000FC0
03F8001FC0
02F8001F80
01FD000A00
00BFE80000
002FFD0000
02FFFD0000
0BF9000000
2FD0000000
3F80000000
7F40000000
3F80000004
3FD00001BD
1FFEAABFFD
06FFFFFFE4
006BFFE900
ENDCHAR
STARTCHAR ecaron
ENCODING 283
SWIDTH 393 0
DWIDTH 9 0
BBX 12 21 1 0
BITMAP
0780B4
0BC1F4
07D3E0
03D7D0
03DB80
02FF00
01FE00
00B800
000000
000000
06F800
1FFF00
7FBF40
BD1F40
FC2F00
F9FD04
FFE01D
FE00BD
BFABF8
3FFFE0
0AFA00
ENDCHAR
STARTCHAR Gcircumflex
ENCODING 284
SWIDTH 811 0
DWIDTH 19 0
BBX 21 40 1 -11
BITMAP
000001400000
00001FE00000
00003FF00000
0000BDF40000
0001F8FC0000
0003F0BC0000
0002D0380000
000000000000
000000000000
0001BFE00000
001FFFFD0000
00BFEAFF0000
02FE003F4000
07F4002F4000
0FE0002F4000
2FC0003F4000
3F80002E0000
3F4000000000
7F4000000000
7F0000000000
7F0006AA4000
7F000BFFC000
7F400BFFC000
3F80000FC000
2FD0001F8280
0FF4001F9FC0
07FFAAFFBF40
00BFFFFFF800
001AFEBFD000
000000BF0000
000002FE0000
00000FFD0000
00003EBD0000
0000B8BC0000
0001F0F80000
0002E1F40000
0003D3E00000
0003EBD00000
0002FF800000
0000BD000000
ENDCHAR
STARTCHAR gcircumflex
ENCODING 285
SWIDTH 479 0
DWIDTH 12 0
BBX 14 32 0 -11
BITMAP
00015000
0007F000
000FF400
002EB800
007DBC00
00F87C00
01F47D00
01E02D00
00000000
00000000
006F0000
01FFF400
07FAF400
0FD2F000
2F83F000
3F03E000
3F07E1B0
3F0BDBF0
3FAFFFD0
2FFFFE00
0BEBF400
002FC000
00FF8000
03FF4000
0F9F0000
2E2F0000
7C3E0000
B87D0000
F4F80000
FAF40000
BFE00000
2F400000
ENDCHAR
STARTCHAR Gbreve
ENCODING 286
SWIDTH 811 0
DWIDTH 19 0
BBX 21 38 1 -11
BITMAP
000140050000
000BD01F4000
0007FABF0000
0002FFFD0000
00006FE00000
000000000000
000000000000
0001BFE00000
001FFFFD0000
00BFEAFF0000
02FE003F4000
07F4002F4000
0FE0002F4000
2FC0003F4000
3F80002E0000
3F4000000000
7F4000000000
7F0000000000
7F0006AA4000
7F000BFFC000
7F400BFFC000
3F80000FC000
2FD0001F8280
0FF4001F9FC0
07FFAAFFBF40
00BFFFFFF800
001AFEBFD000
000000BF0000
000002FE0000
00000FFD0000
00003EBD0000
0000B8BC0000
0001F0F80000
0002E1F40000
0003D3E00000
0003EBD00000
0002FF800000
0000BD000000
ENDCHAR
STARTCHAR gbreve
ENCODING 287
SWIDTH 479 0
DWIDTH 12 0
BBX 14 30 0 -11
BITMAP
01400100
03D00B80
03F01F80
02FEBF00
00FFFD00
002FE000
00000000
00000000
006F0000
01FFF400
07FAF400
0FD2F000
2F83F000
3F03E000
3F07E1B0
3F0BDBF0
3FAFFFD0
2FFFFE00
0BEBF400
002FC000
00FF8000
03FF4000
0F9F0000
2E2F0000
7C3E0000
B87D0000
F4F80000
FAF40000
BFE00000
2F400000
ENDCHAR
STARTCHAR Gdotaccent
ENCODING 288
SWIDTH 811 0
DWIDTH 19 0
BBX 21 37 1 -11
BITMAP
00001B800000
00002FD00000
00003FD00000
00001F800000
000000000000
000000000000
0001BFE00000
001FFFFD0000
00BFEAFF0000
02FE003F4000
07F4002F4000
0FE0002F4000
2FC0003F4000
3F80002E0000
3F4000000000
7F4000000000
7F0000000000
7F0006AA4000
7F000BFFC000
7F400BFFC000
3F80000FC000
2FD0001F8280
0FF4001F9FC0
07FFAAFFBF40
00BFFFFFF800
001AFEBFD000
000000BF0000
000002FE0000
00000FFD0000
00003EBD0000
0000B8BC0000
0001F0F80000
0002E1F40000
0003D3E00000
0003EBD00000
0002FF800000
0000BD000000
ENDCHAR
STARTCHAR gdotaccent
ENCODING 289
SWIDTH 479 0
DWIDTH 12 0
BBX 14 28 0 -11
BITMAP
000BD000
001FE000
001FE000
000B8000
00000000
00000000
006F0000
01FFF400
07FAF400
0FD2F000
2F83F000
3F03E000
3F07E1B0
3F0BDBF0
3FAFFFD0
2FFFFE00
0BEBF400
002FC000
00FF8000
03FF4000
0F9F0000
2E2F0000
7C3E0000
B87D0000
F4F80000
FAF40000
BFE00000
2F400000
ENDCHAR
STARTCHAR uni0122
ENCODING 290
SWIDTH 811 0
DWIDTH 19 0
BBX 21 31 1 -11
BITMAP
0001BFE00000
001FFFFD0000
00BFEAFF0000
02FE003F4000
07F4002F4000
0FE0002F4000
2FC0003F4000
3F80002E0000
3F4000000000
7F4000000000
7F0000000000
7F0006AA4000
7F000BFFC000
7F400BFFC000
3F80000FC000
2FD0001F8280
0FF4001F9FC0
07FFAAFFBF40
00BFFFFFF800
001AFEBFD000
00B400BF0000
00F802FE0000
00F80FFD0000
00F43EBD0000
00E0B8BC0000
0001F0F80000
0002E1F40000
0003D3E00000
0003EBD00000
0002FF800000
0000BD000000
ENDCHAR
STARTCHAR uni0123
ENCODING 291
SWIDTH 479 0
DWIDTH 12 0
BBX 14 30 0 -11
BITMAP
0002D000
0007E000
0007D000
0007C000
00078000
00074000
00000000
00000000
006F0000
01FFF400
07FAF400
0FD2F000
2F83F000
3F03E000
3F07E1B0
3F0BDBF0
3FAFFFD0
2FFFFE00
0BEBF400
002FC000
00FF8000
03FF4000
0F9F0000
2E2F0000
7C3E0000
B87D0000
F4F80000
FAF40000
BFE00000
2F400000
ENDCHAR
STARTCHAR Hcircumflex
ENCODING 292
SWIDTH 873 0
DWIDTH 21 0
BBX 25 29 -1 0
BITMAP
00000015000000
0000007F400000
000001FFC00000
000002F7D00000
00000BD3E00000
00000FC2F00000
00000F41E00000
00000000000000
0000000001F800
006F80000BFD00
02FFE0001FEE00
0FEBF4003F1E00
3E03F400BE1E00
7C03F400FC1E00
2003F401F82D00
0003F402F47C00
0003F002F5F400
0007F003FBD000
0007F55BFF4000
01FFFFFFF40000
02FFFFFFE00000
01AFD40BE00000
001FC00BE00000
002FC00BE00000
002F8007F002C0
003F4003F40BC0
007F0002FEBF40
007E0000FFFD00
007D00002FE000
ENDCHAR
STARTCHAR hcircumflex
ENCODING 293
SWIDTH 502 0
DWIDTH 12 0
BBX 14 31 1 0
BITMAP
00014000
001FE000
003FF000
00BDF400
01F8FC00
03F0BC00
02D03800
00000000
00000000
002F4000
00FFC000
02FBD000
03E3D000
0BC3D000
0F87C000
1F4B8000
2F4F4000
2F2E0000
3E3C0000
3EF40000
7FE6E000
7F9FF400
BE7FF000
BDBBF000
BEE3E000
BFC7E010
BF87D0B0
BF4BD2F0
BF0BEBD0
BE07FF40
7802F800
ENDCHAR
STARTCHAR Hbar
ENCODING 294
SWIDTH 856 0
DWIDTH 21 0
BBX 20 20 1 0
BITMAP
00B80002E0
00FD0007F4
01FD0007F0
06FD555BF5
2FFFFFFFFF
2FFFFFFFFE
02F8000BE0
03F4000FD0
1BFAAAAFE4
BFFFFFFFFD
7FFFFFFFF8
0BE0002F80
0FE0003F40
0FD0003F40
1FD0007F40
1FC0007F00
1FC000BF00
2FC000BF00
2F8000BE00
1F40007D00
ENDCHAR
STARTCHAR hbar
ENCODING 295
SWIDTH 502 0
DWIDTH 12 0
BBX 14 20 1 0
BITMAP
01E00000
03F00000
07E00000
0BE00000
BFFFD000
BFFFE000
1FD54000
2F800000
2F400000
3F06E000
3F1FF400
7E3FF000
7EBBF000
7EE3E000
BFC7E010
BF87D0B0
BF4BD2F0
BF0BEBD0
7E07FF40
3C02F900
ENDCHAR
STARTCHAR Itilde
ENCODING 296
SWIDTH 495 0
DWIDTH 12 0
BBX 15 27 -1 0
BITMAP
00054014
001FE4BC
007EFEF8
00B87FF0
00100B90
00000000
00000000
00BFFFF0
02FFFFF4
00ABFA90
0007F400
0007F000
0007F000
000BE000
000BE000
000FD000
000FD000
001FC000
001FC000
002F8000
002F8000
003F4000
003F4000
007F4000
16BFA400
7FFFFE00
7FFFFD00
ENDCHAR
STARTCHAR itilde
ENCODING 297
SWIDTH 246 0
DWIDTH 6 0
BBX 11 18 -1 0
BITMAP
050010
2FE0B8
7EFEF4
B87FE0
500B80
000000
000000
01F000
03F000
03E000
07E000
0BD000
0BD010
0FC0B0
0BC2F0
0BEFD0
07FF40
02F800
ENDCHAR
STARTCHAR Imacron
ENCODING 298
SWIDTH 495 0
DWIDTH 12 0
BBX 15 25 -1 0
BITMAP
0006AA40
001FFFC0
001FFF80
00000000
00000000
00BFFFF0
02FFFFF4
00ABFA90
0007F400
0007F000
0007F000
000BE000
000BE000
000FD000
000FD000
001FC000
001FC000
002F8000
002F8000
003F4000
003F4000
007F4000
16BFA400
7FFFFE00
7FFFFD00
ENDCHAR
STARTCHAR imacron
ENCODING 299
SWIDTH 246 0
DWIDTH 6 0
BBX 9 16 0 0
BITMAP
2AA900
BFFF00
BFFE00
000000
000000
07C000
0FC000
0F8000
1F8000
2F4000
2F4040
3F02C0
2F0BC0
2FBF40
1FFD00
0BE000
ENDCHAR
STARTCHAR Ibreve
ENCODING 300
SWIDTH 495 0
DWIDTH 12 0
BBX 15 27 -1 0
BITMAP
00140010
007D01F8
003FABF4
002FFFE0
0006FE40
00000000
00000000
00BFFFF0
02FFFFF4
00ABFA90
0007F400
0007F000
0007F000
000BE000
000BE000
000FD000
000FD000
001FC000
001FC000
002F8000
002F8000
003F4000
003F4000
007F4000
16BFA400
7FFFFE00
7FFFFD00
ENDCHAR
STARTCHAR ibreve
ENCODING 301
SWIDTH 246 0
DWIDTH 6 0
BBX 11 19 -1 0
BITMAP
140050
7C01F4
7E02F0
3FAFE0
1FFF80
06F900
000000
000000
01F000
03F000
03E000
07E000
0BD000
0BD010
0FC0B0
0BC2F0
0BEFD0
07FF40
02F800
ENDCHAR
STARTCHAR Iogonek
ENCODING 302
SWIDTH 495 0
DWIDTH 12 0
BBX 15 26 -1 -6
BITMAP
00BFFFF0
02FFFFF4
00ABFA90
0007F400
0007F000
0007F000
000BE000
000BE000
000FD000
000FD000
001FC000
001FC000
002F8000
002F8000
003F4000
003F4000
007F4000
16BFA400
7FFFFE00
7FFFFD00
00F80000
01F00000
02F40000
01FFE000
00BFE000
00164000
ENDCHAR
STARTCHAR iogonek
ENCODING 303
SWIDTH 246 0
DWIDTH 6 0
BBX 9 22 0 -6
BITMAP
06E000
0BF400
0FF400
07E000
000000
07C000
0FC000
0F8000
1F8000
2F4000
2F4000
3F02C0
3F0BC0
2FAF40
1FFD00
0FE400
2F8000
3D0000
7C0000
7E1400
3FFC00
0BF400
ENDCHAR
STARTCHAR Idotaccent
ENCODING 304
SWIDTH 495 0
DWIDTH 12 0
BBX 15 26 -1 0
BITMAP
0000B900
0002FE00
0002FE00
0001B800
00000000
00000000
00BFFFF0
02FFFFF4
00ABFA90
0007F400
0007F000
0007F000
000BE000
000BE000
000FD000
000FD000
001FC000
001FC000
002F8000
002F8000
003F4000
003F4000
007F4000
16BFA400
7FFFFE00
7FFFFD00
ENDCHAR
STARTCHAR dotlessi
ENCODING 305
SWIDTH 246 0
DWIDTH 6 0
BBX 8 11 1 0
BITMAP
1F00
3F00
3E00
7E00
BD00
BD01
FC0B
BC2F
BEFD
7FF4
2F80
ENDCHAR
STARTCHAR Jcircumflex
ENCODING 308
SWIDTH 743 0
DWIDTH 18 0
BBX 18 31 1 -2
BITMAP
0000150000
0000BF4000
0001FF8000
0003E7C000
000BD7E000
001F83E000
001E01E000
0000000000
0000000000
001AFFFA40
06FFFFFFD0
1FFEAABFD0
3F80007F00
7E00007F00
7E0000BE00
3F0000BE00
2F0000FD00
050000FD00
000006FC00
00006FFC00
0006FFF800
001FE6F400
007F43F400
01FC07F000
03F40BE000
07E00FC000
07E01F8000
07E07F0000
07FAFD0000
02FFF40000
00BF900000
ENDCHAR
STARTCHAR jcircumflex
ENCODING 309
SWIDTH 254 0
DWIDTH 6 0
BBX 15 32 -6 -11
BITMAP
00000500
00002F80
00007FC0
0000FBD0
0002F3D0
0007D2E0
000FC2F0
000B41E0
00000000
00000000
0000B800
0000FC00
0000FC00
0001F800
0001F800
0002F400
0002F478
0002F6F8
0003FFE0
0003FF40
0003F800
000BE000
007FD000
01FFC000
07DF8000
0F4F8000
2E1F4000
3C2E0000
7C7D0000
7EFC0000
7FF40000
1F900000
ENDCHAR
STARTCHAR uni0136
ENCODING 310
SWIDTH 937 0
DWIDTH 22 0
BBX 26 26 0 -6
BITMAP
001BFE9000B800
01FFFFF001FC00
07FEAFF002F800
0FD01FC007F400
1F801FC00BF000
1F402F801FD000
1F802F803F8000
0FC03F40BF0000
06403F47F80000
0001BFBFE00000
0003FFFE400000
0002FFFE400000
0000BE7FC00000
0000BD1FE00000
1000FD0BF40040
7C01FC03F801E0
7E02F802FE07D0
3FAFF400FFFF80
1FFFD0007FFE00
02FE40001BE400
00000000000000
000003D0000000
000007D0000000
000007D0000000
000007C0000000
00000740000000
ENDCHAR
STARTCHAR uni0137
ENCODING 311
SWIDTH 525 0
DWIDTH 13 0
BBX 15 29 1 -7
BITMAP
002F4000
00FFC000
02FBD000
03D3D000
0BC3D000
0F87C000
1F4B8000
2F4F0000
2F2E0000
3E7C0000
3EF40000
7FD6E400
7F5FFC00
BE7EFD00
BDF4BD00
BEE0FC00
BFC7F414
BF9FD078
BF6F81F8
BF1FEBE0
7E0FFF80
3C02FD00
00000000
01E00000
03F00000
03E00000
03D00000
03C00000
03800000
ENDCHAR
STARTCHAR kgreenlandic
ENCODING 312
SWIDTH 465 0
DWIDTH 11 0
BBX 14 11 1 0
BITMAP
1F0BE000
3F2FF800
7EBEBC00
7DF87C00
BEF47400
BFF00040
BFF402D0
BFF80BC0
BEFEAF80
BD7FFE00
3C0BE400
ENDCHAR
STARTCHAR Lacute
ENCODING 313
SWIDTH 673 0
DWIDTH 16 0
BBX 21 28 -1 0
BITMAP
000000001400
00000000BD00
00000003FD00
0000001FF400
0000007F8000
000000780000
000000000000
000000000000
00001AFE4000
0000BFFFD000
0002FEAFF000
000BF403F400
001FD002F800
002FC002F800
003F8002F400
003F40019000
003F40000000
007F40000000
007F00000000
007F00000000
007F00000000
007E00000000
00BE00000100
1BFE40000B40
BFFFF9002F00
FFFFFFEAFD00
BFF5BFFFF400
2F9006BF8000
ENDCHAR
STARTCHAR lacute
ENCODING 314
SWIDTH 326 0
DWIDTH 8 0
BBX 13 30 1 0
BITMAP
00000140
00001FC0
00007FC0
0001FF40
000BF400
000B4000
00000000
00000000
002F4000
00FF8000
02FBC000
03D3D000
0BC3D000
0F83D000
1F47C000
2F4B8000
3F0B4000
3E1F0000
7E2E0000
7D3D0000
BDB80000
BDF40000
BFE00000
BFC00000
BF400000
BE00B000
7E02E000
3FAFD000
1FFF4000
07F80000
ENDCHAR
STARTCHAR uni013B
ENCODING 315
SWIDTH 673 0
DWIDTH 16 0
BBX 21 26 -1 -6
BITMAP
00001AFE4000
0000BFFFD000
0002FEAFF000
000BF403F400
001FD002F800
002FC002F800
003F8002F400
003F40019000
003F40000000
007F40000000
007F00000000
007F00000000
007F00000000
007E00000000
00BE00000100
1BFE40000B40
BFFFF9002F00
FFFFFFEAFD00
BFF5BFFFF400
2F9006BF8000
000000000000
0001E0000000
0003F0000000
0003E0000000
0003D0000000
0002C0000000
ENDCHAR
STARTCHAR uni013C
ENCODING 316
SWIDTH 326 0
DWIDTH 8 0
BBX 10 29 1 -7
BITMAP
002F40
00FF80
02FBC0
03D3D0
0BC3D0
0F83D0
1F47C0
2F4B80
3F0B40
3E1F00
7E2E00
7D3D00
BDB800
BDF400
BFE000
BFC000
BF4000
BE00B0
7E02E0
3FAFD0
1FFF40
07F800
000000
0B4000
1F8000
1F4000
1F0000
1E0000
1D0000
ENDCHAR
STARTCHAR Lcaron
ENCODING 317
SWIDTH 673 0
DWIDTH 16 0
BBX 23 21 -1 0
BITMAP
000000000050
00001AFE41F4
0000BFFFD2F4
0002FEAFF2F0
000BF403F6E0
001FD002F9D0
002FC002F800
003F8002F400
003F40019000
003F40000000
007F40000000
007F00000000
007F00000000
007F00000000
007E00000000
00BE00000100
1BFE40000B40
BFFFF9002F00
FFFFFFEAFD00
BFF5BFFFF400
2F9006BF8000
ENDCHAR
STARTCHAR lcaron
ENCODING 318
SWIDTH 237 0
DWIDTH 6 0
BBX 10 23 1 0
BITMAP
000140
0007D0
0007D0
02EBC0
07EB80
0BE740
0FD000
0FC000
1FC000
1F8000
2F4000
3F4000
3F0000
7E0000
7E0000
BD0000
BD0000
FC0100
FC0E00
FC3E00
BEFC00
7FF000
2F8000
ENDCHAR
STARTCHAR Ldot
ENCODING 319
SWIDTH 673 0
DWIDTH 16 0
BBX 21 20 -1 0
BITMAP
00001AFE4000
0000BFFFD000
0002FEAFF000
000BF403F400
001FD002F800
002FC002F800
003F8002F400
003F40019000
003F42E40000
007F47F80000
007F0BF80000
007F02E00000
007F00000000
007E00000000
00BE00000100
1BFE40000B40
BFFFF9002F00
FFFFFFEAFD00
BFF5BFFFF400
2F9006BF8000
ENDCHAR
STARTCHAR ldot
ENCODING 320
SWIDTH 363 0
DWIDTH 9 0
BBX 11 22 1 0
BITMAP
01F400
02F400
03F400
07F000
0BE000
0BD000
0FD000
1FC000
1F8000
2F5F40
3F7F80
3F7F80
7F2E00
7E0000
BD0000
BD0000
BD0000
BD0038
BE01F8
7FABF0
2FFF80
0BF900
ENDCHAR
STARTCHAR Lslash
ENCODING 321
SWIDTH 673 0
DWIDTH 16 0
BBX 21 24 -1 0
BITMAP
000016FFE400
0001FFFFFD00
0007FFAAA800
000290000000
00000AFE4000
0000BFFFD000
0002FEAFF000
000BF403F400
001FD002F800
002FC002F800
003F8002F400
003F4001E000
003F40000000
007F40000000
007F00000000
007F00000000
007F00000000
007E00000000
00BE00000100
1BFE40000B40
BFFFF9002F00
FFFFFFEAFD00
BFF5BFFFF400
2F9006BF8000
ENDCHAR
STARTCHAR lslash
ENCODING 322
SWIDTH 326 0
DWIDTH 8 0
BBX 13 24 1 0
BITMAP
001AFE40
02FFFFC0
0BFEAA80
0B900000
006E4000
01FFC000
03FBC000
07D3D000
0FC3D000
1F47C000
2F47C000
3F0B8000
3E0F0000
7E2E0000
BD7C0000
BDF40000
BEE00000
BFC00000
BF400000
7E00B000
7E02E000
3FAFD000
1FFF4000
07F80000
ENDCHAR
STARTCHAR Nacute
ENCODING 323
SWIDTH 884 0
DWIDTH 21 0
BBX 25 28 0 0
BITMAP
00000000140000
00000000BE0000
00000002FE0000
0000001FF80000
0000007F800000
00000078000000
00000000000000
00000000000000
01BE001BE40000
0BFF81FFFC0000
2FAFC3FAFE0000
BD1FCB80BE0000
F41FDE00BF0000
901FBC00BE0000
001FF400FE0000
002FF000FD0000
002FD001FD0000
003FC002FC0000
003F8002F80000
007F8003F80000
007F4007F40000
007F0007F00000
00BF0007F00000
00BE000BF00740
00FE0007F01F40
00FD0007FEBE00
00FD0002FFF800
00B800006F9000
ENDCHAR
STARTCHAR nacute
ENCODING 324
SWIDTH 496 0
DWIDTH 12 0
BBX 14 20 1 0
BITMAP
0000B800
0001FC00
0002F800
0003E000
000BC000
000F4000
000D0000
00000000
00000000
1F06E000
3F1FF000
7E7FF000
7DFBE000
BEE7E000
BFC7D010
BF4BD0B0
BF0BC2F0
BE0BEFD0
BD0BFF40
3C02F800
ENDCHAR
STARTCHAR uni0145
ENCODING 325
SWIDTH 884 0
DWIDTH 21 0
BBX 25 26 0 -6
BITMAP
01BE001BE40000
0BFF81FFFC0000
2FAFC3FAFE0000
BD1FCB80BE0000
F41FDE00BF0000
901FBC00BE0000
001FF400FE0000
002FF000FD0000
002FD001FD0000
003FC002FC0000
003F8002F80000
007F8003F80000
007F4007F40000
007F0007F00000
00BF0007F00000
00BE000BF00740
00FE0007F01F40
00FD0007FEBE00
00FD0002FFF800
00B800006F9000
00000000000000
00002D00000000
00007E00000000
00007D00000000
00007C00000000
00007800000000
ENDCHAR
STARTCHAR uni0146
ENCODING 326
SWIDTH 496 0
DWIDTH 12 0
BBX 14 18 1 -7
BITMAP
1F06E000
3F1FF000
7E7FF000
7DFBE000
BEE7E000
BFC7D010
BF4BD0B0
BF0BC2F0
BE0BEFD0
BD0BFF40
3C02F800
00000000
01E00000
03F00000
03E00000
03D00000
03C00000
03800000
ENDCHAR
STARTCHAR Ncaron
ENCODING 327
SWIDTH 884 0
DWIDTH 21 0
BBX 25 28 0 0
BITMAP
00000B41F00000
00000F83F00000
000007C7D00000
000003EF800000
000001FE000000
000000B8000000
00000000000000
00000000000000
01BE001BE40000
0BFF81FFFC0000
2FAFC3FAFE0000
BD1FCB80BE0000
F41FDE00BF0000
901FBC00BE0000
001FF400FE0000
002FF000FD0000
002FD001FD0000
003FC002FC0000
003F8002F80000
007F8003F80000
007F4007F40000
007F0007F00000
00BF0007F00000
00BE000BF00740
00FE0007F01F40
00FD0007FEBE00
00FD0002FFF800
00B800006F9000
ENDCHAR
STARTCHAR ncaron
ENCODING 328
SWIDTH 496 0
DWIDTH 12 0
BBX 14 21 1 0
BITMAP
01E02D00
01F47D00
01F4BC00
00F9F400
00BAE000
007FD000
007F8000
002E0000
00000000
00000000
1F06E000
3F1FF000
7E7FF000
7DFBE000
BEE7E000
BFC7D010
BF4BD0B0
BF0BC2F0
BE0BEFD0
BD0BFF40
3C02F800
ENDCHAR
STARTCHAR napostrophe
ENCODING 329
SWIDTH 496 0
DWIDTH 12 0
BBX 15 19 0 0
BITMAP
78000000
FC000000
F8000000
F4000000
F0000000
E0000000
00000000
00000000
07C1B800
0FC7FC00
1F9FFC00
1F7EF800
2FB9F800
2FF1F404
2FD2F42C
2FC2F0BC
2F82FBF4
2F42FFD0
0F00BE00
ENDCHAR
STARTCHAR Eng
ENCODING 330
SWIDTH 884 0
DWIDTH 21 0
BBX 25 28 0 -8
BITMAP
01BE001BE40000
0BFF81FFFC0000
2FAFC3FAFE0000
BD1FCB80FE0000
F41FDE00BE0000
501FBC00BE0000
001FF400FE0000
002FF000FD0000
002FD001FC0000
003FC002FC0000
003F8002F80000
007F8003F40000
007F4007F40000
00BF0007F00000
00BF000BE00000
00FE000FE00740
00FE000FD01F40
00FD001FFABE00
00FD002FFFF800
00B8002FAF9000
0000003F000000
0000007E000000
000000BD000000
006400FC000000
00FD02F4000000
00BFAFE0000000
002FFF80000000
0006F900000000
ENDCHAR
STARTCHAR eng
ENCODING 331
SWIDTH 495 0
DWIDTH 12 0
BBX 15 18 0 -7
BITMAP
07C1B800
0FC7FC00
1F9FFC00
1F7EF800
2FB9F800
2FF1F404
2FD2F02C
2FC2F0B8
2F83FBF4
2F47FFD0
0F07FE00
000BC000
000F8000
001F0000
3C3E0000
7DBD0000
3FF40000
1BD00000
ENDCHAR
STARTCHAR Omacron
ENCODING 332
SWIDTH 816 0
DWIDTH 20 0
BBX 18 25 1 0
BITMAP
0001AAA400
0003FFF800
0002FFF400
0000000000
0000000000
0001BF9000
002FFFFD00
00BFEAFF40
02FD007FC0
07F4001FE0
0FE0000BF0
1FC0000BF0
3F800007F0
3F400007F0
7F400007F0
7F00000BF0
7F00000BE0
7F00000FE0
7F40001FC0
3F80003F80
2FC000BF00
1FE002FD00
0BFEAFF400
01FFFFD000
002BF90000
ENDCHAR
STARTCHAR omacron
ENCODING 333
SWIDTH 451 0
DWIDTH 11 0
BBX 13 16 1 0
BITMAP
06AA4000
1FFFC000
1FFF8000
00000000
00000000
06F90000
1FFF4000
7FBFC000
BD3FD140
FC2FFFC0
FC0FFF80
FC0BE500
FD0F8000
BFBF4000
3FFE0000
0BE40000
ENDCHAR
STARTCHAR Obreve
ENCODING 334
SWIDTH 816 0
DWIDTH 20 0
BBX 18 27 1 0
BITMAP
0005000500
000FC02F00
000BFAFE00
0003FFFC00
0000BF9000
0000000000
0000000000
0001BF9000
002FFFFD00
00BFEAFF40
02FD007FC0
07F4001FE0
0FE0000BF0
1FC0000BF0
3F800007F0
3F400007F0
7F400007F0
7F00000BF0
7F00000BE0
7F00000FE0
7F40001FC0
3F80003F80
2FC000BF00
1FE002FD00
0BFEAFF400
01FFFFD000
002BF90000
ENDCHAR
STARTCHAR obreve
ENCODING 335
SWIDTH 451 0
DWIDTH 11 0
BBX 13 19 1 0
BITMAP
14001000
7D00F800
7E02F400
3FEBF000
1FFFD000
02FE0000
00000000
00000000
06F90000
1FFF4000
7FBFC000
BD3FD140
FC2FFFC0
FC0FFF80
FC0BE500
FD0F8000
BFBF4000
3FFE0000
0BE40000
ENDCHAR
STARTCHAR Ohungarumlaut
ENCODING 336
SWIDTH 816 0
DWIDTH 20 0
BBX 18 28 1 0
BITMAP
0000141400
00007D3E00
0000BD7E00
0000F8BD00
0000F4B800
0000E0A000
0000000000
0000000000
0001BF9000
002FFFFD00
00BFEAFF40
02FD007FC0
07F4001FE0
0FE0000BF0
1FC0000BF0
3F800007F0
3F400007F0
7F400007F0
7F00000BF0
7F00000BE0
7F00000FE0
7F40001FC0
3F80003F80
2FC000BF00
1FE002FD00
0BFEAFF400
01FFFFD000
002BF90000
ENDCHAR
STARTCHAR ohungarumlaut
ENCODING 337
SWIDTH 451 0
DWIDTH 11 0
BBX 13 20 1 0
BITMAP
00B47800
01F8FC00
02F9FC00
03F2F400
07D3E000
0B87C000
07074000
00000000
00000000
06F90000
1FFF4000
7FBFC000
BD3FD140
FC2FFFC0
FC0FFF80
FC0BE500
FD0F8000
BFBF4000
3FFE0000
0BE40000
ENDCHAR
STARTCHAR OE
ENCODING 338
SWIDTH 1124 0
DWIDTH 27 0
BBX 29 20 1 0
BITMAP
0001BF900BFFFD00
002FFFFD2FFFFD00
00BFEAFFBFAAA400
02FD007FFE000000
07F4001FFE000000
0FE0000BFD000000
1FC0000BFC000000
3F800007FC000000
3F400007F8000000
7F400007FFFFE000
7F00000BFFFFE000
7F00000BFAAA8000
7F00000FF0000000
7F40001FE0000000
3F80003FF0000000
2FC000BFF4000000
1FE002FFFD001BC0
0BFEAFF5FFAAFF80
01FFFF907FFFFE00
002BF9000AFF9000
ENDCHAR
STARTCHAR oe
ENCODING 339
SWIDTH 668 0
DWIDTH 16 0
BBX 18 11 1 0
BITMAP
06F81BE000
1FFFBFF800
7FAFFEF800
BD0FF0B800
FC0BD1F800
FC0BEBE010
FC0BFF40B0
FC1FF407F0
BFBFFEBFD0
3FFDFFFF40
0BE42FE400
ENDCHAR
STARTCHAR Racute
ENCODING 340
SWIDTH 880 0
DWIDTH 21 0
BBX 23 28 1 0
BITMAP
000000014000
0000000BE000
0000002FE000
000000FF8000
000003F80000
000007800000
000000000000
000000000000
0001AFE90000
001FFFFF8000
00BFEABFE000
02F9001FF000
07E05407F400
0F81F807F400
2F42F807F400
3E02F80BF000
7E03F41FD000
7D03F5BF8000
BC2FFFFD0000
BC3FFFD00000
BC1FFFF40000
BC0BE2FD0000
BC0FD0FE0000
7D1FC0BF401C
3E1FC03FC07C
1FBF801FFAF4
0BFF400BFFD0
01BE0001BE40
ENDCHAR
STARTCHAR racute
ENCODING 341
SWIDTH 455 0
DWIDTH 11 0
BBX 14 20 1 0
BITMAP
0000F000
0002F400
0003F000
000BD000
000F8000
002E0000
00280000
00000000
00000000
1F06E000
3F1FF000
7E7FF000
7DFBE040
BEE3E2D0
BFC7FFC0
BF43FF40
BF00A400
BE000000
BD000000
3C000000
ENDCHAR
STARTCHAR uni0156
ENCODING 342
SWIDTH 880 0
DWIDTH 21 0
BBX 23 26 1 -6
BITMAP
0001AFE90000
001FFFFF8000
00BFEABFE000
02F9001FF000
07E05407F400
0F81F807F400
2F42F807F400
3E02F80BF000
7E03F41FD000
7D03F5BF8000
BC2FFFFD0000
BC3FFFD00000
BC1FFFF40000
BC0BE2FD0000
BC0FD0FE0000
7D1FC0BF401C
3E1FC03FC07C
1FBF801FFAF4
0BFF400BFFD0
01BE0001BE40
000000000000
00001E000000
00002F000000
00002F000000
00002E000000
00002C000000
ENDCHAR
STARTCHAR uni0157
ENCODING 343
SWIDTH 455 0
DWIDTH 11 0
BBX 14 18 1 -7
BITMAP
1F06E000
3F1FF000
7E7FF000
7DFBE040
BEE3E2D0
BFC7FFC0
BF43FF40
BF00A400
BE000000
BD000000
3C000000
00000000
78000000
FC000000
F8000000
F4000000
F0000000
E0000000
ENDCHAR
STARTCHAR Rcaron
ENCODING 344
SWIDTH 880 0
DWIDTH 21 0
BBX 23 28 1 0
BITMAP
0000B40F0000
0000B82F0000
00007C7D0000
00003EF80000
00001FE00000
00000B800000
000000000000
000000000000
0001AFE90000
001FFFFF8000
00BFEABFE000
02F9001FF000
07E05407F400
0F81F807F400
2F42F807F400
3E02F80BF000
7E03F41FD000
7D03F5BF8000
BC2FFFFD0000
BC3FFFD00000
BC1FFFF40000
BC0BE2FD0000
BC0FD0FE0000
7D1FC0BF401C
3E1FC03FC07C
1FBF801FFAF4
0BFF400BFFD0
01BE0001BE40
ENDCHAR
STARTCHAR rcaron
ENCODING 345
SWIDTH 455 0
DWIDTH 11 0
BBX 14 21 1 0
BITMAP
02D07C00
03E0BC00
02F1F400
01F2F000
01F7D000
00FF8000
00BF4000
007D0000
00000000
00000000
1F06E000
3F1FF000
7E7FF000
7DFBE040
BEE3E2D0
BFC7FFC0
BF43FF40
BF00A400
BE000000
BD000000
3C000000
ENDCHAR
STARTCHAR Sacute
ENCODING 346
SWIDTH 693 0
DWIDTH 17 0
BBX 16 28 1 0
BITMAP
00000014
000000BE
000002FE
00001FF8
00007F80
00007800
00000000
00000000
001BFE40
01FFFFF4
07FEABFC
0FE000FD
1FC000BE
1FC000BE
1FD000BD
0FF40014
0BFE4000
02FFF800
006FFF40
0002FFE0
14001FF4
BC0003F8
FC0002F8
FC0002F8
FD0007F4
BFEABFE0
2FFFFF80
06BFE400
ENDCHAR
STARTCHAR sacute
ENCODING 347
SWIDTH 427 0
DWIDTH 10 0
BBX 14 21 0 -1
BITMAP
0000B400
0001F800
0002F400
0007E000
000B8000
001F0000
001D0000
00000000
00000000
007D0000
00BD0000
01FC0000
02F80000
07FD0000
0BFF0000
1F7F8080
7E1FC2D0
F80FDBC0
E1FFFF00
03FFE800
01B90000
ENDCHAR
STARTCHAR Scircumflex
ENCODING 348
SWIDTH 693 0
DWIDTH 17 0
BBX 16 29 1 0
BITMAP
00001400
0000FF00
0002FF40
0007DB80
000FCBD0
002F47D0
001E02D0
00000000
00000000
001BFE40
01FFFFF4
07FEABFC
0FE000FD
1FC000BE
1FC000BE
1FD000BD
0FF40014
0BFE4000
02FFF800
006FFF40
0002FFE0
14001FF4
BC0003F8
FC0002F8
FC0002F8
FD0007F4
BFEABFE0
2FFFFF80
06BFE400
ENDCHAR
STARTCHAR scircumflex
ENCODING 349
SWIDTH 427 0
DWIDTH 10 0
BBX 14 22 0 -1
BITMAP
00050000
001FC000
003FD000
00BAE000
01F6E000
03E1F000
0BD1F400
0B80F000
00000000
00000000
007D0000
00BD0000
01FC0000
02F80000
07FD0000
0BFF0000
1F7F8080
7E1FC2D0
F80FDBC0
E1FFFF00
03FFE800
01B90000
ENDCHAR
STARTCHAR Scedilla
ENCODING 350
SWIDTH 693 0
DWIDTH 17 0
BBX 16 26 1 -6
BITMAP
001BFE40
01FFFFF4
07FEABFC
0FE000FD
1FC000BE
1FC000BE
1FC000BD
1FF00028
0BFE4000
02FFE400
00BFFF40
0007FFD0
00006FF4
B80007F8
FC0002F8
FC0002F8
FC0003F4
BF401FF0
3FFFFFC0
0BFFFD00
00FFD000
0007D000
0003E000
02AFD000
07FF8000
02F90000
ENDCHAR
STARTCHAR scedilla
ENCODING 351
SWIDTH 427 0
DWIDTH 10 0
BBX 14 17 0 -6
BITMAP
007D0000
00BD0000
01F80000
02FC0000
07FE0000
0FBF4040
2F1FC2D0
7D0FDBD0
F5FFFF80
93FFFE00
03FFE400
03FE0000
001F0000
000F4000
056F0000
2FFD0000
1FE40000
ENDCHAR
STARTCHAR Scaron
ENCODING 352
SWIDTH 693 0
DWIDTH 17 0
BBX 16 28 1 0
BITMAP
000B41F0
000F83F0
0007C7D0
0003EF80
0001FE00
0000B800
00000000
00000000
001BFE40
01FFFFF4
07FEABFC
0FE000FD
1FC000BE
1FC000BE
1FD000BD
0FF40014
0BFE4000
02FFF800
006FFF40
0002FFE0
14001FF4
BC0003F8
FC0002F8
FC0002F8
FD0007F4
BFEABFE0
2FFFFF80
06BFE400
ENDCHAR
STARTCHAR scaron
ENCODING 353
SWIDTH 427 0
DWIDTH 10 0
BBX 14 22 0 -1
BITMAP
01E02D00
02F07D00
01F4F800
00F5F400
00F7E000
00BFC000
007F4000
002E0000
00000000
00000000
007D0000
00BD0000
01FC0000
02F80000
07FD0000
0BFF0000
1F7F8080
7E1FC2D0
F80FDBC0
E1FFFF00
03FFE800
01B90000
ENDCHAR
STARTCHAR uni0162
ENCODING 354
SWIDTH 697 0
DWIDTH 17 0
BBX 21 26 1 -6
BITMAP
005AFFFFFE40
0BFFFFFFFF80
3FEABFAAAA40
BE007F000000
FC00BF000000
F800BE000000
FC00FE000000
BC00FD000000
1001FD000000
0001FC000000
0002F8000000
0002F8000000
0003F4000000
0003F4000000
0007F4000000
0007F0000000
000BF0000000
000BE0000000
000BE0000000
002FE0000000
002FF4000000
0000F8000000
0001F4000000
01FFF0000000
01FFD0000000
006900000000
ENDCHAR
STARTCHAR uni0163
ENCODING 355
SWIDTH 393 0
DWIDTH 9 0
BBX 13 28 0 -7
BITMAP
00014000
000FF000
002FF400
007DF400
00F8F400
01F4F400
02F1F000
03E2D000
07EB8000
07EE0000
BFFFF800
FFFFF800
6FEA9000
0FC00000
0FC00000
0FC00000
0BD00240
0BD00B40
07F57F00
02FFFD00
01FFE400
03FF4000
006F4000
000F4000
001F4000
1FFF0000
1FFD0000
06900000
ENDCHAR
STARTCHAR Tcaron
ENCODING 356
SWIDTH 697 0
DWIDTH 17 0
BBX 21 28 1 0
BITMAP
0000F01E0000
0000F83E0000
0000BCBC0000
00003EF40000
00002FE00000
00000B800000
000000000000
000000000000
005AFFFFFE40
0BFFFFFFFF80
3FEABFAAAA40
BE007F000000
FC00BF000000
F800BE000000
FC00FE000000
BC00FD000000
1001FD000000
0001FC000000
0002F8000000
0002F8000000
0003F4000000
0003F4000000
0007F4000000
0007F0000000
000BF0000000
000BE0000000
000BE0000000
0007D0000000
ENDCHAR
STARTCHAR tcaron
ENCODING 357
SWIDTH 343 0
DWIDTH 8 0
BBX 12 23 0 0
BITMAP
000014
0000BC
0000BC
0000B8
0000F4
00B8B0
01FC00
02F800
02F400
03F000
07F000
7FFFD0
BFFFD0
1FE540
0FC000
0FC000
1F8000
1F8004
1F802D
1FC0BC
0FFAF8
07FFD0
01BE40
ENDCHAR
STARTCHAR Tbar
ENCODING 358
SWIDTH 697 0
DWIDTH 17 0
BBX 21 20 1 0
BITMAP
005AFFFFFE40
0BFFFFFFFF80
3FFABFAAAA40
BE007F000000
FC00BF000000
F800BE000000
FC00FE000000
BC00FD000000
1401FD000000
01FFFFF80000
02FFFFFC0000
00ABFAA00000
0003F4000000
0003F4000000
0007F4000000
0007F0000000
000BF0000000
000BE0000000
000BE0000000
0007D0000000
ENDCHAR
STARTCHAR tbar
ENCODING 359
SWIDTH 343 0
DWIDTH 8 0
BBX 12 18 0 0
BITMAP
00B800
01FC00
02F800
02F400
03F000
07F000
7FFFD0
BFFFD0
1FE540
0FC000
FFFF80
FFFF40
6FE904
1F801D
1FC07D
0FFAF8
0BFFE0
01BE40
ENDCHAR
STARTCHAR Utilde
ENCODING 360
SWIDTH 890 0
DWIDTH 21 0
BBX 25 27 0 0
BITMAP
00000500100000
00002FE0F80000
0000BEFEF40000
0000F87FE00000
0000500B800000
00000000000000
00000000000000
01BE40002E0000
0BFFC0007F0000
2FAFD0007F0000
BD0FD000BF0000
F40FD000BE0000
900FD000FE0000
001FC000FD0000
002FC001FD0000
002F8002FC0000
003F8003FC0000
007F4007F80000
007F000BF80000
00BE000FF40000
00BE002FF40000
00FD007BF40100
00FD01F7F40740
00FE07E3F82F40
00FFFF83FFFE00
007FFE01FFF800
001BE4006F9000
ENDCHAR
STARTCHAR utilde
ENCODING 361
SWIDTH 462 0
DWIDTH 11 0
BBX 13 18 1 0
BITMAP
01400400
0BF82E00
1FBFBD00
2E1FF800
1402E000
00000000
00000000
1F02D000
3F07D000
7E0BD000
7E0FC000
BD1F8000
BD2F8000
BC3F41C0
BDBF47C0
BFEFAF80
7FDFFD00
2E0BE400
ENDCHAR
STARTCHAR Umacron
ENCODING 362
SWIDTH 890 0
DWIDTH 21 0
BBX 25 25 0 0
BITMAP
00001AAA400000
00002FFFC00000
00002FFF800000
00000000000000
00000000000000
01BE40002E0000
0BFFC0007F0000
2FAFD0007F0000
BD0FD000BF0000
F40FD000BE0000
900FD000FE0000
001FC000FD0000
002FC001FD0000
002F8002FC0000
003F8003FC0000
007F4007F80000
007F000BF80000
00BE000FF40000
00BE002FF40000
00FD007BF40100
00FD01F7F40740
00FE07E3F82F40
00FFFF83FFFE00
007FFE01FFF800
001BE4006F9000
ENDCHAR
STARTCHAR umacron
ENCODING 363
SWIDTH 462 0
DWIDTH 11 0
BBX 13 16 1 0
BITMAP
02AA9000
0BFFF000
0BFFE000
00000000
00000000
1F02D000
3F07D000
7E0BD000
7E0FC000
BD1F8000
BD2F8000
BC3F41C0
BDBF47C0
BFEFAF80
7FDFFD00
2E0BE400
ENDCHAR
STARTCHAR Ubreve
ENCODING 364
SWIDTH 890 0
DWIDTH 21 0
BBX 25 27 0 0
BITMAP
00001400500000
0000BD01F40000
00007FABF00000
00002FFFD00000
000006FE000000
00000000000000
00000000000000
01BE40002E0000
0BFFC0007F0000
2FAFD0007F0000
BD0FD000BF0000
F40FD000BE0000
900FD000FE0000
001FC000FD0000
002FC001FD0000
002F8002FC0000
003F8003FC0000
007F4007F80000
007F000BF80000
00BE000FF40000
00BE002FF40000
00FD007BF40100
00FD01F7F40740
00FE07E3F82F40
00FFFF83FFFE00
007FFE01FFF800
001BE4006F9000
ENDCHAR
STARTCHAR ubreve
ENCODING 365
SWIDTH 462 0
DWIDTH 11 0
BBX 13 19 1 0
BITMAP
05001400
1F003D00
1F80BD00
0FEBF800
07FFF000
01BF4000
00000000
00000000
1F02D000
3F07D000
7E0BD000
7E0FC000
BD1F8000
BD2F8000
BC3F41C0
BDBF47C0
BFEFAF80
7FDFFD00
2E0BE400
ENDCHAR
STARTCHAR Uring
ENCODING 366
SWIDTH 890 0
DWIDTH 21 0
BBX 25 29 0 0
BITMAP
000001B9000000
000007FF000000
00000BEF800000
00000B4B800000
00000BEF400000
000007FF000000
000001F8000000
00000000000000
00000000000000
01BE40002E0000
0BFFC0007F0000
2FAFD0007F0000
BD0FD000BF0000
F40FD000BE0000
900FD000FE0000
001FC000FD0000
002FC001FD0000
002F8002FC0000
003F8003FC0000
007F4007F80000
007F000BF80000
00BE000FF40000
00BE002FF40000
00FD007BF40100
00FD01F7F40740
00FE07E3F82F40
00FFFF83FFFE00
007FFE01FFF800
001BE4006F9000
ENDCHAR
STARTCHAR uring
ENCODING 367
SWIDTH 462 0
DWIDTH 11 0
BBX 13 20 1 0
BITMAP
006E4000
00FFD000
02FBE000
02D1E000
02FBE000
01FFC000
007E4000
00000000
00000000
1F02D000
3F07D000
7E0BD000
7E0FC000
BD1F8000
BD2F8000
BC3F41C0
BDBF47C0
BFEFAF80
7FDFFD00
2E0BE400
ENDCHAR
STARTCHAR Uhungarumlaut
ENCODING 368
SWIDTH 890 0
DWIDTH 21 0
BBX 25 28 0 0
BITMAP
00000140500000
000003E2F00000
000007E3F00000
00000BC7D00000
00000F4B800000
00000A0B000000
00000000000000
00000000000000
01BE40002E0000
0BFFC0007F0000
2FAFD0007F0000
BD0FD000BF0000
F40FD000BE0000
900FD000FE0000
001FC000FD0000
002FC001FD0000
002F8002FC0000
003F8003FC0000
007F4007F80000
007F000BF80000
00BE000FF40000
00BE002FF40000
00FD007BF40100
00FD01F7F40740
00FE07E3F82F40
00FFFF83FFFE00
007FFE01FFF800
001BE4006F9000
ENDCHAR
STARTCHAR uhungarumlaut
ENCODING 369
SWIDTH 462 0
DWIDTH 11 0
BBX 13 20 1 0
BITMAP
002D2D00
007E3F00
00BD7E00
00F8BC00
01F0F400
02D1E000
0281C000
00000000
00000000
1F02D000
3F07D000
7E0BD000
7E0FC000
BD1F8000
BD2F8000
BC3F41C0
BDBF47C0
BFEFAF80
7FDFFD00
2E0BE400
ENDCHAR
STARTCHAR Uogonek
ENCODING 370
SWIDTH 890 0
DWIDTH 21 0
BBX 25 26 0 -6
BITMAP
01BE40002D0000
0BFFC0007F0000
2FAFD0007F0000
7D0FD000BF0000
F40FD000BE0000
900FD000FE0000
001FD000FD0000
002FC001FD0000
002F8002FC0000
003F8003FC0000
007F4007F80000
007F000BF80000
00BF000FF40000
00BE001FF40000
00FD003BF40000
00FD00B7F40340
00FE02E3F41F40
00FFAF83FEBF00
007FFE02FFF800
001BE4007FE000
000000002F4000
000000003D0000
000000007D0000
000000007E5400
000000002FFC00
000000000BF400
ENDCHAR
STARTCHAR uogonek
ENCODING 371
SWIDTH 462 0
DWIDTH 11 0
BBX 13 17 1 -6
BITMAP
1F02D000
3F07D000
7E0BD000
7E0FC000
BD1F8000
BD2F8000
BC3F41C0
BDBF47C0
BFEF9F80
7FDFFE00
2E0BF400
001F8000
003E0000
003D0000
003E5400
002FFC00
000BF400
ENDCHAR
STARTCHAR Wcircumflex
ENCODING 372
SWIDTH 1217 0
DWIDTH 29 0
BBX 30 29 3 0
BITMAP
0000001500000000
0000007F80000000
000000FFC0000000
000002F7D0000000
000007E3E0000000
00000FC2F0000000
00000F41E0000000
0000000000000000
0000000000000000
2E0000BC001FD000
7F0000FD00BFF400
BF0001FC01FAF800
BF0002FC02F0FC00
BE0002FC02E0FC00
FE0003F803E0F800
FD0007F802E1F800
FD000BF802F6F400
FD000BF800FFF000
FD000FF8007FFA90
FD001FF8001FFFE0
FD002FF8001FEFD0
FD007EF8003F4000
FD00BDF8007E0000
BE01F8FC00FD0000
7F02F0FC02F40000
3F4BD0BE0BE00000
2FFF807FFF800000
1FFE002FFE000000
06F4000BE4000000
ENDCHAR
STARTCHAR wcircumflex
ENCODING 373
SWIDTH 700 0
DWIDTH 17 0
BBX 19 21 1 0
BITMAP
0000500000
0002F80000
0007FC0000
000FBD0000
002F3E0000
007D2F0000
00BC2F0000
00B41E0000
0000000000
0000000000
7807C07C00
BC0BC1FE00
BC0FC2FD00
BC2FC2FD14
BD3FD2FFFC
BD7FD3FFF8
BDFBDBD550
BEF7EF8000
7FE3FF0000
3FC3FD0000
1F41F40000
ENDCHAR
STARTCHAR Ycircumflex
ENCODING 374
SWIDTH 851 0
DWIDTH 20 0
BBX 23 37 0 -8
BITMAP
000000140000
000000FE0000
000002FF4000
000007DF8000
00000F8BC000
00002F47D000
00002E02D000
000000000000
000000000000
01BE40002E00
0BFFC0007F00
2FAFD0007F00
BD0FD000BF00
F40FD000BE00
900FD000FE00
001FC001FD00
002FC001FD00
002F8002FC00
003F8007FC00
007F400BF800
007F001FF800
007F003EF800
007F40BAF400
003FEBE3F454
002FFF83FFFC
0006F91BFFF8
000001FFF940
00001FFBE000
0000BF4BD000
0002F80FD000
0007D00FC000
000FC01F8000
000F803F0000
001FD1FE0000
000FFFF80000
0007FFE00000
000069000000
ENDCHAR
STARTCHAR ycircumflex
ENCODING 375
SWIDTH 479 0
DWIDTH 12 0
BBX 14 32 0 -11
BITMAP
00014000
000BE000
001FF000
003EF400
00BCF800
01F4B800
02F0BC00
02D07800
00000000
00000000
07C0B400
0FC1F400
1F82F400
1F83F000
2F47F000
2F4BE000
2F0FE0B0
2F6FD6F0
2FFFEFD0
1FFBFE00
0B9BF400
001FC000
00BF8000
02FF4000
0BAF0000
2E2F0000
7C3E0000
B47D0000
F4F80000
FAF40000
BFE00000
2F400000
ENDCHAR
STARTCHAR Ydieresis
ENCODING 376
SWIDTH 851 0
DWIDTH 20 0
BBX 23 34 0 -8
BITMAP
00001F47D000
00002F8BE000
00002F8BE000
00001F47D000
000000000000
000000000000
01BE40002E00
0BFFC0007F00
2FAFD0007F00
BD0FD000BF00
F40FD000BE00
900FD000FE00
001FC001FD00
002FC001FD00
002F8002FC00
003F8007FC00
007F400BF800
007F001FF800
007F003EF800
007F40BAF400
003FEBE3F454
002FFF83FFFC
0006F91BFFF8
000001FFF940
00001FFBE000
0000BF4BD000
0002F80FD000
0007D00FC000
000FC01F8000
000F803F0000
001FD1FE0000
000FFFF80000
0007FFE00000
000069000000
ENDCHAR
STARTCHAR Zacute
ENCODING 377
SWIDTH 721 0
DWIDTH 17 0
BBX 21 28 0 0
BITMAP
000000014000
0000001FC000
0000007FC000
000001FF4000
00000BF40000
00000B400000
000000000000
000000000000
001BFFEA4000
02FFFFFFF400
0BFEAABFF800
1FD0002FD000
1F40007F8000
2F4000FF0000
1F8002FD0000
0B8007F80000
00000BF00000
00002FD00000
00007F800000
0000FF000000
0002FD000000
000BF8000000
001FF0000100
1BFFD0000740
7FFFF9001F40
BFFFFFEAFE00
7FF9BFFFF400
2F9006BF9000
ENDCHAR
STARTCHAR zacute
ENCODING 378
SWIDTH 445 0
DWIDTH 11 0
BBX 13 20 1 0
BITMAP
0001E000
0003F400
0007F000
000BD000
001F4000
002E0000
00280000
00000000
00000000
7FFFF400
BFFFF400
2ABFE000
01FE4000
0BE40000
2F800140
7F000780
7F002F80
7FEAFE00
2FFFF800
06FE9000
ENDCHAR
STARTCHAR Zdotaccent
ENCODING 379
SWIDTH 721 0
DWIDTH 17 0
BBX 21 26 0 0
BITMAP
00001B800000
00003FD00000
00003FD00000
00001F800000
000000000000
000000000000
001BFFEA4000
02FFFFFFF400
0BFEAABFF800
1FD0002FD000
1F40007F8000
2F4000FF0000
1F8002FD0000
0B8007F80000
00000BF00000
00002FD00000
00007F800000
0000FF000000
0002FD000000
000BF8000000
001FF0000100
1BFFD0000740
7FFFF9001F40
BFFFFFEAFE00
7FF9BFFFF400
2F9006BF9000
ENDCHAR
STARTCHAR zdotaccent
ENCODING 380
SWIDTH 445 0
DWIDTH 11 0
BBX 13 17 1 0
BITMAP
007E0000
00FF4000
00FF0000
007D0000
00000000
00000000
7FFFF400
BFFFF400
2ABFE000
01FE4000
0BE40000
2F800140
7F000780
7F002F80
7FEAFE00
2FFFF800
06FE9000
ENDCHAR
STARTCHAR Zcaron
ENCODING 381
SWIDTH 721 0
DWIDTH 17 0
BBX 21 28 0 0
BITMAP
0001E02D0000
0001F47D0000
0000F8F80000
00007EF00000
00003FD00000
00001F400000
000000000000
000000000000
001BFFEA4000
02FFFFFFF400
0BFEAABFF800
1FD0002FD000
1F40007F8000
2F4000FF0000
1F8002FD0000
0B8007F80000
00000BF00000
00002FD00000
00007F800000
0000FF000000
0002FD000000
000BF8000000
001FF0000100
1BFFD0000740
7FFFF9001F40
BFFFFFEAFE00
7FF9BFFFF400
2F9006BF9000
ENDCHAR
STARTCHAR zcaron
ENCODING 382
SWIDTH 445 0
DWIDTH 11 0
BBX 13 21 1 0
BITMAP
02D07800
03E0F800
03E1F400
02F3E000
01F7D000
00FF8000
00FF0000
007D0000
00000000
00000000
7FFFF400
BFFFF400
2ABFE000
01FE4000
0BE40000
2F800140
7F000780
7F002F80
7FEAFE00
2FFFF800
06FE9000
ENDCHAR
STARTCHAR uni018F
ENCODING 399
SWIDTH 792 0
DWIDTH 19 0
BBX 18 20 1 0
BITMAP
001AFE8000
00BFFFF800
03FEABFE00
0BE000BF40
0B40003FC0
0000001FD0
0000000FD0
0000000FE0
0000000FE0
1AAAAAAFD0
7FFFFFFFD0
BFFFFFFFD0
BF00002FC0
7F00003F80
7F40007F40
3F8000FE00
2FE007FC00
0BFEAFF000
02FFFF8000
006FF90000
ENDCHAR
STARTCHAR florin
ENCODING 402
SWIDTH 478 0
DWIDTH 11 0
BBX 15 25 -2 -7
BITMAP
00001BF4
0000BFF8
0001FEA4
0002F800
0003F400
0003F000
0007F000
01ABFA90
03FFFFE0
03FFFFD0
000BD000
000BD000
000FD000
000FC000
001FC000
001F8000
001F8000
002F8000
002F4000
002F4000
003F4000
007F0000
1AFE0000
BFF80000
7F900000
ENDCHAR
STARTCHAR Ohorn
ENCODING 416
SWIDTH 816 0
DWIDTH 20 0
BBX 20 24 1 0
BITMAP
0000000014
000000003E
000000007E
00000001FD
0001BFFFF8
002FFFFFF0
00BFEAFF80
02FD007FC0
07F4001FE0
0FE0000BF0
1FC0000BF0
3F800007F0
3F400007F0
7F400007F0
7F00000BF0
7F00000BE0
7F00000FD0
7F40001FC0
3F80003F80
2FC000BF00
1FE002FD00
0BFEAFF400
01FFFFD000
002BF90000
ENDCHAR
STARTCHAR ohorn
ENCODING 417
SWIDTH 451 0
DWIDTH 11 0
BBX 13 14 1 0
BITMAP
00003800
00007C00
0000F800
06FFF400
1FFFD000
7FBFC000
BD3FD140
FC2FFFC0
FC0FFF80
FC0BE500
FD0F8000
BFBF4000
3FFE0000
0BE40000
ENDCHAR
STARTCHAR Uhorn
ENCODING 431
SWIDTH 890 0
DWIDTH 21 0
BBX 25 24 0 0
BITMAP
00000000001400
00000000003E00
00000000007E00
0000000001BD00
01BE40002FFC00
0BFFC0007FF400
2FAFD0007F4000
BD0FD000BF0000
F40FD000BE0000
900FD000FE0000
001FC000FD0000
002FC001FD0000
002F8002FC0000
003F8003FC0000
007F4007F80000
007F000BF80000
00BE000FF40000
00BE002FF40000
00FD007BF40100
00FD01F7F40740
00FE07E3F82F40
00FFFF83FFFE00
007FFE01FFF800
001BE4006F9000
ENDCHAR
STARTCHAR uhorn
ENCODING 432
SWIDTH 512 0
DWIDTH 12 0
BBX 15 14 1 0
BITMAP
00000740
00000B80
00001F40
1F02FF00
3F07FD00
7E0BD000
7E0FC000
BD1F8000
BD2F8000
BC3F4074
BDBF41F4
BFEFEBE0
7FDFFF80
2E07F900
ENDCHAR
STARTCHAR uni01C4
ENCODING 452
SWIDTH 1531 0
DWIDTH 37 0
BBX 38 28 2 0
BITMAP
0000000000002D07C000
0000000000003E0BC000
0000000000001F1F4000
0000000000000FBE0000
00000000000007F80000
00000000000002E00000
00000000000000000000
00000000000000000000
01AFF9000006BFFE9400
0BFFFFD0007FFFFFFF00
1FFABFF801FFAAABFF00
050007FE02F80007F900
000000BF03E0000BF000
07E0007F83E0001FD000
0FE0002F83F0003F8000
0FD0002FC1F000BF0000
1FC0002FC00001FD0000
2F80002FC00003F80000
2F80002FC0000BF00000
3F40003F80002FD00000
7F40007F40007F800000
7F0000BF0000FF000000
BF0001FE0002FD000050
BE0007FC02FFF80000E0
FE006FF00BFFFF9002E0
FFABFFC00FFFFFFEAFC0
FFFFFD000FFF6FFFFE00
6FFE900006F8016FE400
ENDCHAR
STARTCHAR uni01C5
ENCODING 453
SWIDTH 1191 0
DWIDTH 29 0
BBX 28 21 2 0
BITMAP
0000000000780B
01AFF90000BC2F
0BFFFFD000BC3E
1FFABFF8007CBC
050007FE003DF4
000000BF003FF0
07E0007F802FD0
0FE0002F800F40
0FD0002FC00000
1FC0002FC00000
2F80002FCFFFFC
2F80002FCFFFFC
3F40003F86AFF8
7F40007F407F90
7F0000BF01FE00
BF0001FE07F400
BE0007FC0FD000
FE006FF02F8000
FFABFFC03FAAA4
FFFFFD003FFFFC
6FFE90002FFFF8
ENDCHAR
STARTCHAR uni01C6
ENCODING 454
SWIDTH 895 0
DWIDTH 21 0
BBX 24 20 1 0
BITMAP
00007D0F01E0
0000FD1F47E0
0000FC0F8BC0
0001FC0B9F40
0001F80BEE00
0002F407FC00
0002F403F400
0002F0005000
0003F0000000
01BFE2FFFFC0
07FFD2FFFFC0
1FEBD1AAFF80
3F4BC00BF800
BE0FC07F8000
FC0F80FD0004
FC1F82F8002E
FC3F8BFC01BD
FFFFFFFFFFF8
BFE7FDBFFFD0
2F82E41BF900
ENDCHAR
STARTCHAR uni01C7
ENCODING 455
SWIDTH 1276 0
DWIDTH 31 0
BBX 32 23 -1 -3
BITMAP
00001BF90006BFE9
0000BFFF402FFFFF
0003FEBFD0FFABFF
000BF40BE2F802FC
001FD00BE3F002F8
002FC00BE3E002F8
003F800BD3F003F4
003F400682F403F4
003F4000009003F0
007F4000000007F0
007F000000006FE0
007F00000007FFE0
007F0000002F9FD0
007E000000FD0FC0
00BE000003F41F80
1BFE40000BD02F40
BFFFF9001F803F00
FFFFFFEAFF407E00
BFF6BFFFFF40FD00
2F9006FFAF87F800
000000001FFFE000
0000000007FF8000
0000000000640000
ENDCHAR
STARTCHAR uni01C8
ENCODING 456
SWIDTH 927 0
DWIDTH 22 0
BBX 26 31 -1 -11
BITMAP
00001AFE400000
0000BFFFD00000
0002FEAFF00000
000BF403F40000
001FD002F9F800
002FC002FBFC00
003F8002FBFC00
003F4002F2F400
003F4000400000
007F400001F000
007F000003F000
007F000003F000
007F000003F000
007E000007E000
00BE000007E010
1BFE400007D1E0
BFFFF9001FD7E0
FFFFFFEAFFEF40
BFF5BFFFFFFD00
2F9006BF9FE000
000000002F8000
00000000FF4000
00000003FF4000
0000000F6F0000
0000002E3E0000
000000787D0000
000000F4BC0000
000001F1F80000
000001FBF00000
000000FFD00000
0000006E400000
ENDCHAR
STARTCHAR uni01C9
ENCODING 457
SWIDTH 610 0
DWIDTH 15 0
BBX 16 33 1 -11
BITMAP
002F4000
00FF8000
02FBC000
03D3D000
0BC3D000
0F83D000
1F47CB80
2F4BAFD0
3F0B6FD0
3E1F1F80
7E2E0000
7D3D0F40
BDB81F80
BDF42F40
BFE02F40
BFC03F00
BF403F01
BE00BE0B
7E02FE7F
3FAFFFFD
1FFFBFE0
07F8BF40
0002FC00
000BF800
002FF800
00B9F400
02F2F000
03D3E000
0B87D000
0B8BC000
0FEF4000
0BFE0000
02F80000
ENDCHAR
STARTCHAR uni01CA
ENCODING 458
SWIDTH 1497 0
DWIDTH 36 0
BBX 37 23 0 -3
BITMAP
01BE001BE4001AFFE900
0BFF81FFFC01FFFFFF40
2FAFC3FAFE07FEAAFF40
BD1FCB80BE0FD001FC00
F41FDE00BF1F4001FC00
501FBC00BE1F4001FC00
001FF400FE1F8002F800
002FF000FD0FC002F800
002FD001FD064003F400
003FC002FC000007F400
003F8002F80000BFF000
007F8003F80007FFF000
007F4007F4002FEBE000
007F0007F000FE4BD000
00BF0007F002F80FC000
00BE000BF00BE01F8000
00FE0007F01FC02F4000
00FD0007FEBF803F0000
00FD0002FFFF80BD0000
00B800006FAFD2F80000
00000000000FFFF00000
000000000007FF800000
00000000000065000000
ENDCHAR
STARTCHAR uni01CB
ENCODING 459
SWIDTH 1138 0
DWIDTH 27 0
BBX 30 31 0 -11
BITMAP
01BE001BE4000000
07FF80BFFC000000
1FAF82FAFE000000
7D1FCB80BE000000
F41FDE00BF01F800
E01FAC00BE03FC00
401FB400FE03FC00
002FF000FD01F400
002FD001FD000000
003FC002FC01F000
003F8002F802F400
007F8003F803F000
007F4007F403F000
007F0007F003E000
00BF0007F007E000
00BE000BF007E0A0
00FE0007F01FD7E0
00FD0007FEBFEF80
00FD0002FFFFFD00
00B800006F9FE400
00000000002F8000
0000000000FF8000
0000000007FF4000
000000000FAF0000
000000002E3E0000
000000007C7D0000
00000000F4BC0000
00000000F4F80000
00000001FBF00000
00000000FFD00000
000000006E400000
ENDCHAR
STARTCHAR uni01CC
ENCODING 460
SWIDTH 750 0
DWIDTH 18 0
BBX 20 27 1 -11
BITMAP
0000002F40
0000007FC0
0000007F80
0000002E40
0000000000
1F06E02E00
3F1FF03F00
7E7FF07E00
7DFBE07E00
BEE7E07D00
BFC7D0BD00
BF4BD0BC1E
BF0BC2FDBD
BE0BEFFFF4
BD0BFFFF90
3C02F9FE00
000007F400
00001FF400
00007FF000
0001F7E000
0007D7D000
000B8BC000
001F0F8000
001F1F4000
001FBE0000
001FFC0000
0007E00000
ENDCHAR
STARTCHAR Gcaron
ENCODING 486
SWIDTH 811 0
DWIDTH 19 0
BBX 21 39 1 -11
BITMAP
0000E01E0000
0001F47E0000
0000B8BC0000
00007EF40000
00002FD00000
00001F400000
000000000000
000000000000
0001BFE00000
001FFFFD0000
00BFEAFF0000
02FE003F4000
07F4002F4000
0FE0002F4000
2FC0003F4000
3F80002E0000
3F4000000000
7F4000000000
7F0000000000
7F0006AA4000
7F000BFFC000
7F400BFFC000
3F80000FC000
2FD0001F8280
0FF4001F9FC0
07FFAAFFBF40
00BFFFFFF800
001AFEBFD000
000000BF0000
000002FE0000
00000FFD0000
00003EBD0000
0000B8BC0000
0001F0F80000
0002E1F40000
0003D3E00000
0003EBD00000
0002FF800000
0000BD000000
ENDCHAR
STARTCHAR gcaron
ENCODING 487
SWIDTH 479 0
DWIDTH 12 0
BBX 14 32 0 -11
BITMAP
00780B40
00BC1F40
007D3E00
003D7D00
003DB800
002FF000
001FE000
000B8000
00000000
00000000
006F0000
01FFF400
07FAF400
0FD2F000
2F83F000
3F03E000
3F07E1B0
3F0BDBF0
3FAFFFD0
2FFFFE00
0BEBF400
002FC000
00FF8000
03FF4000
0F9F0000
2E2F0000
7C3E0000
B87D0000
F4F80000
FAF40000
BFE00000
2F400000
ENDCHAR
STARTCHAR uni01EA
ENCODING 490
SWIDTH 816 0
DWIDTH 20 0
BBX 18 26 1 -6
BITMAP
0001BF9000
001FFFFD00
00BFEAFF40
02FD007FC0
07F4001FD0
0FE0000BE0
1FC0000BF0
2F800007F0
3F400007F0
7F400007F0
7F00000BF0
7F00000BE0
7F00000FD0
7F40001FD0
3F80003F80
2FC000BF40
1FF406FD00
0BFEBFF800
02FFFFD000
006FFD0000
0002E00000
0007D00000
0007C00000
0007E54000
0003FFC000
0000BE4000
ENDCHAR
STARTCHAR uni01EB
ENCODING 491
SWIDTH 451 0
DWIDTH 11 0
BBX 13 17 1 -6
BITMAP
06F90000
1FFF4000
7FBF8000
BD3FC000
FC2FEBC0
FC1FFFC0
FC0BFE40
FC0BC000
BE6F8000
7FFE0000
1FF80000
03E00000
0B800000
0F400000
0F950000
0BFF4000
01FE0000
ENDCHAR
STARTCHAR Aringacute
ENCODING 506
SWIDTH 786 0
DWIDTH 19 0
BBX 23 31 1 0
BITMAP
000000000050
0000000002F4
000000540BF0
000001FF6E40
000003FF8400
000007C7C000
000007C7C000
000007FF8000
000002FF0000
000000640000
000000000000
00001AFFA400
0002FFFFFC00
001FFFAFF800
00BFD0001000
02FE001F4000
07F8003F8000
0FE0003F4000
1FD0007F0000
3F8000BE0000
3F4000BE0000
7F0000FD0000
BF0001FD0000
BF0002FC0000
BF0003FC0000
BF000BFC0040
7F401FFC02C0
3FC07EFD0B80
1FFBF9FFBF40
0BFFE0BFFD00
01BE402FE000
ENDCHAR
STARTCHAR aringacute
ENCODING 507
SWIDTH 470 0
DWIDTH 11 0
BBX 15 22 1 0
BITMAP
00000010
000000F8
001503F8
007FDB90
00FFE100
01F1F000
01F1F000
01FFE000
00BFC000
00190000
00000000
01BC0000
07FFD000
1FEBD000
3F4BD000
BE0FC000
FC0F8000
FC1F81D0
FC2F87D0
FEBFEF80
BFFBFE00
2F82F400
ENDCHAR
STARTCHAR AEacute
ENCODING 508
SWIDTH 1015 0
DWIDTH 24 0
BBX 27 28 1 0
BITMAP
00000000005000
0000000003F400
000000001FF400
000000007FD000
00000001FD0000
00000002D00000
00000000000000
00000000000000
00006B81FFFF80
0007FFD7FFFF80
002FFF8BEAAA00
00BFD00FD00000
02FE001FC00000
07F8002F800000
0FE0003F800000
1FD0007F400000
3F80007F000000
7F4000BFFFFC00
7F0000FFFFFC00
BF0001FEAAA400
BF0002FD000000
BF0003FD000000
BF000BFD000000
7F400FFE000010
3F802FBF4001F4
1FFAFD3FFAAFF0
0BFFF41FFFFF90
01BF8001BFE900
ENDCHAR
STARTCHAR aeacute
ENCODING 509
SWIDTH 653 0
DWIDTH 16 0
BBX 18 20 1 0
BITMAP
000002D000
000007E000
00000BD000
00001F8000
00002F0000
00003D0000
0000740000
0000000000
0000000000
00AF2F9000
07FFFFF400
2FEBFAF400
7F47E0F400
BD0BC1F400
FC0FDBD000
FC1FFE41E0
FC2FE00BE0
FEBFFABFC0
7FF6FFFE00
1F906FE400
ENDCHAR
STARTCHAR Oslashacute
ENCODING 510
SWIDTH 816 0
DWIDTH 20 0
BBX 18 31 1 -3
BITMAP
0000005000
000001F800
00000BF800
00002FE000
0000FE4000
0001E40000
000002D000
000003E000
0001BFE000
002FFFFD00
00BFAFFF40
02FD1FBFC0
07F42F1FE0
0FE02F0FF0
1FC03E0BF0
2F807D07F0
3F40BC07F0
7F40B807F0
7F00F40BF0
7F01F40BE0
7F02F00FE0
7F43E01FC0
3F83D02F80
3FC7D0BF00
1FEBC2FD00
0BFFEFF400
02FFFFD000
006FF90000
002E000000
003E000000
0014000000
ENDCHAR
STARTCHAR oslashacute
ENCODING 511
SWIDTH 459 0
DWIDTH 11 0
BBX 13 23 1 -3
BITMAP
002D0000
00BE0000
00FD0000
02F40000
03E00000
07800000
072C0000
003C0000
00380000
06FD0000
1FFF4000
7FFFC000
BDBBD040
FCE7FFC0
F8E7FFC0
F9D7E900
FEDBC000
BFEF8000
3FFF0000
0BF80000
07800000
07400000
07000000
ENDCHAR
STARTCHAR uni0200
ENCODING 512
SWIDTH 786 0
DWIDTH 19 0
BBX 21 28 1 0
BITMAP
000014140000
00007D3E0000
00007D3F0000
00003E2F0000
00001F0F4000
00000B074000
000000000000
000000000000
00001AFFA400
0002FFFFFC00
001FFFAFF800
00BFD0001000
02FE001F4000
07F8003F8000
0FE0003F4000
1FD0007F0000
3F8000BE0000
3F4000BE0000
7F0000FD0000
BF0001FD0000
BF0002FC0000
BF0003FC0000
BF000BFC0040
7F401FFC02C0
3FC07EFD0B80
1FFBF9FFBF40
0BFFE0BFFD00
01BE402FE000
ENDCHAR
STARTCHAR uni0201
ENCODING 513
SWIDTH 470 0
DWIDTH 11 0
BBX 14 20 1 0
BITMAP
2D2E0000
7E3F0000
3F2F4000
1F4F8000
0B87C000
07C2D000
01C1D000
00000000
00000000
01BC0000
07FFD000
1FEBD000
3F4BD000
BE0FC000
FC0F8000
FC1F81D0
FC2F87D0
FEBFEF80
BFFBFE00
2F82F400
ENDCHAR
STARTCHAR uni0202
ENCODING 514
SWIDTH 786 0
DWIDTH 19 0
BBX 21 27 1 0
BITMAP
000000690000
00000BFFD000
00002FFFF400
00003F42F800
00003800B400
000000000000
000000000000
00001AFFA400
0002FFFFFC00
001FFFAFF800
00BFD0001000
02FE001F4000
07F8003F8000
0FE0003F4000
1FD0007F0000
3F8000BE0000
3F4000BE0000
7F0000FD0000
BF0001FD0000
BF0002FC0000
BF0003FC0000
BF000BFC0040
7F401FFC02C0
3FC07EFD0B80
1FFBF9FFBF40
0BFFE0BFFD00
01BE402FE000
ENDCHAR
STARTCHAR uni0203
ENCODING 515
SWIDTH 470 0
DWIDTH 11 0
BBX 14 19 1 0
BITMAP
00194000
01FFF400
07FFFC00
0FD1BD00
0F807E00
0E002D00
00000000
00000000
01BC0000
07FFD000
1FEBD000
3F4BD000
BE0FC000
FC0F8000
FC1F81D0
FC2F87D0
FEBFEF80
BFFBFE00
2F82F400
ENDCHAR
STARTCHAR uni0204
ENCODING 516
SWIDTH 686 0
DWIDTH 16 0
BBX 20 28 0 0
BITMAP
0001414000
0007C3E000
0007D3E000
0003E2F000
0001F0F400
0000B07400
0000000000
0000000000
0001BFE400
001FFFFE00
00BFEABF80
01FE001FC0
02FC000FC0
03F8001FC0
02F8001F80
01FD000A00
00BFE80000
002FFD0000
02FFFD0000
0BF9000000
2FD0000000
3F80000000
7F40000000
3F80000004
3FD00001BD
1FFEAABFFD
06FFFFFFE4
006BFFE900
ENDCHAR
STARTCHAR uni0205
ENCODING 517
SWIDTH 393 0
DWIDTH 9 0
BBX 13 20 0 0
BITMAP
2D2E0000
7E3F0000
3F2F4000
1F4F8000
0B87C000
07C2D000
01C1D000
00000000
00000000
01BE0000
07FFC000
1FEFD000
2F47D000
3F0BC000
3E7F4100
3FF80740
3F802F40
2FEAFE00
0FFFF800
02BE8000
ENDCHAR
STARTCHAR uni0206
ENCODING 518
SWIDTH 686 0
DWIDTH 16 0
BBX 20 27 0 0
BITMAP
0000069000
0000BFFD00
0002FFFF40
0003F42F80
0003800B40
0000000000
0000000000
0001BFE400
001FFFFE00
00BFEABF80
01FE001FC0
02FC000FC0
03F8001FC0
02F8001F80
01FD000A00
00BFE80000
002FFD0000
02FFFD0000
0BF9000000
2FD0000000
3F80000000
7F40000000
3F80000004
3FD00001BD
1FFEAABFFD
06FFFFFFE4
006BFFE900
ENDCHAR
STARTCHAR uni0207
ENCODING 519
SWIDTH 393 0
DWIDTH 9 0
BBX 12 19 1 0
BITMAP
006500
07FFD0
1FFFF0
3F46F4
3E01F8
3800B4
000000
000000
06F800
1FFF00
7FBF40
BD1F40
FC2F00
F9FD04
FFE01D
FE00BD
BFABF8
3FFFE0
0AFA00
ENDCHAR
STARTCHAR uni0208
ENCODING 520
SWIDTH 495 0
DWIDTH 12 0
BBX 15 28 -1 0
BITMAP
00141400
00BC7D00
00BD7E00
003E2F00
001F0F40
000B0740
00000000
00000000
00BFFFF0
02FFFFF4
00ABFA90
0007F400
0007F000
0007F000
000BE000
000BE000
000FD000
000FD000
001FC000
001FC000
002F8000
002F8000
003F4000
003F4000
007F4000
16BFA400
7FFFFE00
7FFFFD00
ENDCHAR
STARTCHAR uni0209
ENCODING 521
SWIDTH 246 0
DWIDTH 6 0
BBX 11 20 -2 0
BITMAP
782D00
BD7E00
7E3F00
2F1F40
1F4B80
0B87C0
0282C0
000000
000000
007C00
00FC00
00F800
01F800
02F400
02F404
03F02C
02F0BC
02FBF4
01FFD0
00BE00
ENDCHAR
STARTCHAR uni020A
ENCODING 522
SWIDTH 495 0
DWIDTH 12 0
BBX 15 27 -1 0
BITMAP
00006900
000BFFD0
002FFFF4
007E42F8
003800B4
00000000
00000000
00BFFFF0
02FFFFF4
00ABFA90
0007F400
0007F000
0007F000
000BE000
000BE000
000FD000
000FD000
001FC000
001FC000
002F8000
002F8000
003F4000
003F4000
007F4000
16BFA400
7FFFFE00
7FFFFD00
ENDCHAR
STARTCHAR uni020B
ENCODING 523
SWIDTH 246 0
DWIDTH 6 0
BBX 11 19 -1 0
BITMAP
006500
0BFF80
2FFFE0
7F47F0
BC02F4
7400E0
000000
000000
01F000
03F000
03E000
07E000
0BD000
0BD010
0FC0B0
0BC2F0
0BEFD0
07FF40
02F800
ENDCHAR
STARTCHAR uni020C
ENCODING 524
SWIDTH 816 0
DWIDTH 20 0
BBX 18 28 1 0
BITMAP
0005010000
000F8BC000
000FCBD000
000BC7D000
0003D2E000
0001D0A000
0000000000
0000000000
0001BF9000
002FFFFD00
00BFEAFF40
02FD007FC0
07F4001FE0
0FE0000BF0
1FC0000BF0
3F800007F0
3F400007F0
7F400007F0
7F00000BF0
7F00000BE0
7F00000FE0
7F40001FC0
3F80003F80
2FC000BF00
1FE002FD00
0BFEAFF400
01FFFFD000
002BF90000
ENDCHAR
STARTCHAR uni020D
ENCODING 525
SWIDTH 451 0
DWIDTH 11 0
BBX 14 20 0 0
BITMAP
3C2D0000
7E3F0000
3F2F4000
2F5F8000
0F8BC000
07C3D000
02C1D000
00000000
00000000
01BE4000
07FFD000
1FEFF000
2F4FF450
3F0BFFF0
3F03FFE0
3F02F940
3F43E000
2FEFD000
0FFF8000
02F90000
ENDCHAR
STARTCHAR uni020E
ENCODING 526
SWIDTH 816 0
DWIDTH 20 0
BBX 18 27 1 0
BITMAP
0000165000
0001FFF800
0007FFFE00
000BD07F00
000B401E00
0000000000
0000000000
0001BF9000
002FFFFD00
00BFEAFF40
02FD007FC0
07F4001FE0
0FE0000BF0
1FC0000BF0
3F800007F0
3F400007F0
7F400007F0
7F00000BF0
7F00000BE0
7F00000FE0
7F40001FC0
3F80003F80
2FC000BF00
1FE002FD00
0BFEAFF400
01FFFFD000
002BF90000
ENDCHAR
STARTCHAR uni020F
ENCODING 527
SWIDTH 451 0
DWIDTH 11 0
BBX 13 19 1 0
BITMAP
00650000
07FF8000
1FFFF000
3F47F400
7D01F800
3800B400
00000000
00000000
06F90000
1FFF4000
7FBFC000
BD3FD140
FC2FFFC0
FC0FFF80
FC0BE500
FD0F8000
BFBF4000
3FFE0000
0BE40000
ENDCHAR
STARTCHAR uni0210
ENCODING 528
SWIDTH 880 0
DWIDTH 21 0
BBX 23 28 1 0
BITMAP
000141400000
0007D3E00000
0007E3F00000
0002F1F40000
0001F0F80000
0000B0740000
000000000000
000000000000
0001AFE90000
001FFFFF8000
00BFEABFE000
02F9001FF000
07E05407F400
0F81F807F400
2F42F807F400
3E02F80BF000
7E03F41FD000
7D03F5BF8000
BC2FFFFD0000
BC3FFFD00000
BC1FFFF40000
BC0BE2FD0000
BC0FD0FE0000
7D1FC0BF401C
3E1FC03FC07C
1FBF801FFAF4
0BFF400BFFD0
01BE0001BE40
ENDCHAR
STARTCHAR uni0211
ENCODING 529
SWIDTH 455 0
DWIDTH 11 0
BBX 14 20 1 0
BITMAP
782D0000
BD7E0000
7E3F0000
2F1F4000
1F4B8000
0B87C000
0282C000
00000000
00000000
1F06E000
3F1FF000
7E7FF000
7DFBE040
BEE3E2D0
BFC7FFC0
BF43FF40
BF00A400
BE000000
BD000000
3C000000
ENDCHAR
STARTCHAR uni0212
ENCODING 530
SWIDTH 880 0
DWIDTH 21 0
BBX 23 27 1 0
BITMAP
000006900000
0000BFFD0000
0002FFFF4000
0003F41F8000
0003800B8000
000000000000
000000000000
0001AFE90000
001FFFFF8000
00BFEABFE000
02F9001FF000
07E05407F400
0F81F807F400
2F42F807F400
3E02F80BF000
7E03F41FD000
7D03F5BF8000
BC2FFFFD0000
BC3FFFD00000
BC1FFFF40000
BC0BE2FD0000
BC0FD0FE0000
7D1FC0BF401C
3E1FC03FC07C
1FBF801FFAF4
0BFF400BFFD0
01BE0001BE40
ENDCHAR
STARTCHAR uni0213
ENCODING 531
SWIDTH 455 0
DWIDTH 11 0
BBX 14 19 1 0
BITMAP
00194000
02FFE000
0BFFF800
1FD1FC00
2F00BD00
1D003800
00000000
00000000
1F06E000
3F1FF000
7E7FF000
7DFBE040
BEE3E2D0
BFC7FFC0
BF43FF40
BF00A400
BE000000
BD000000
3C000000
ENDCHAR
STARTCHAR uni0214
ENCODING 532
SWIDTH 890 0
DWIDTH 21 0
BBX 25 28 0 0
BITMAP
00001014000000
0000F8BC000000
0000FC7D000000
00007D3E000000
00002E1F000000
00000E0B000000
00000000000000
00000000000000
01BE40002E0000
0BFFC0007F0000
2FAFD0007F0000
BD0FD000BF0000
F40FD000BE0000
900FD000FE0000
001FC000FD0000
002FC001FD0000
002F8002FC0000
003F8003FC0000
007F4007F80000
007F000BF80000
00BE000FF40000
00BE002FF40000
00FD007BF40100
00FD01F7F40740
00FE07E3F82F40
00FFFF83FFFE00
007FFE01FFF800
001BE4006F9000
ENDCHAR
STARTCHAR uni0215
ENCODING 533
SWIDTH 462 0
DWIDTH 11 0
BBX 13 20 1 0
BITMAP
782D0000
BD7E0000
7E3F0000
2F1F4000
0F4B8000
0B87C000
0281C000
00000000
00000000
1F02D000
3F07D000
7E0BD000
7E0FC000
BD1F8000
BD2F8000
BC3F41C0
BDBF47C0
BFEFAF80
7FDFFD00
2E0BE400
ENDCHAR
STARTCHAR uni0216
ENCODING 534
SWIDTH 890 0
DWIDTH 21 0
BBX 25 27 0 0
BITMAP
00000165000000
00001BFF800000
00003FFFF00000
0000BE06F40000
00007800F00000
00000000000000
00000000000000
01BE40002E0000
0BFFC0007F0000
2FAFD0007F0000
BD0FD000BF0000
F40FD000BE0000
900FD000FE0000
001FC000FD0000
002FC001FD0000
002F8002FC0000
003F8003FC0000
007F4007F80000
007F000BF80000
00BE000FF40000
00BE002FF40000
00FD007BF40100
00FD01F7F40740
00FE07E3F82F40
00FFFF83FFFE00
007FFE01FFF800
001BE4006F9000
ENDCHAR
STARTCHAR uni0217
ENCODING 535
SWIDTH 462 0
DWIDTH 11 0
BBX 13 19 1 0
BITMAP
00194000
02FFE000
0BFFF800
1FD1FC00
1F407D00
1D002C00
00000000
00000000
1F02D000
3F07D000
7E0BD000
7E0FC000
BD1F8000
BD2F8000
BC3F41C0
BDBF47C0
BFEFAF80
7FDFFD00
2E0BE400
ENDCHAR
STARTCHAR uni0218
ENCODING 536
SWIDTH 693 0
DWIDTH 17 0
BBX 16 26 1 -6
BITMAP
001BFE40
01FFFFF4
07FEABFC
0FE000FD
1FC000BE
1FC000BE
1FD000BD
0FF40014
0BFE4000
02FFF800
006FFF40
0002FFE0
14001FF4
BC0003F8
FC0002F8
FC0002F8
FD0007F4
BFEABFE0
2FFFFF80
06BFE400
00000000
001E0000
003F0000
003E0000
003D0000
002C0000
ENDCHAR
STARTCHAR uni0219
ENCODING 537
SWIDTH 427 0
DWIDTH 10 0
BBX 14 18 0 -7
BITMAP
007D0000
00BD0000
01FC0000
02F80000
07FD0000
0BFF0000
1F7F8080
7E1FC2D0
F80FDBC0
E1FFFF00
03FFE800
01B90000
00B40000
00F80000
00F80000
01F40000
01F00000
00D00000
ENDCHAR
STARTCHAR uni021A
ENCODING 538
SWIDTH 697 0
DWIDTH 17 0
BBX 21 26 1 -6
BITMAP
005AFFFFFE40
0BFFFFFFFF80
3FEABFAAAA40
BE007F000000
FC00BF000000
F800BE000000
FC00FE000000
BC00FD000000
1001FD000000
0001FC000000
0002F8000000
0002F8000000
0003F4000000
0003F4000000
0007F4000000
0007F0000000
000BF0000000
000BE0000000
000BE0000000
0007D0000000
000000000000
000780000000
000FC0000000
000F80000000
000F40000000
000A00000000
ENDCHAR
STARTCHAR uni021B
ENCODING 539
SWIDTH 393 0
DWIDTH 9 0
BBX 13 28 0 -7
BITMAP
0007D000
001FF000
003EF400
00BCF400
00F4F400
01F0F000
02F1E000
03E3D000
07EB8000
07FE0000
BFFFF800
FFFFF800
6FEA9000
0FC00000
0FC00000
0FC00000
0BD00740
0BE01F40
07FABE00
02FFF800
006F9000
00000000
00780000
00FC0000
00F80000
00F80000
00F40000
00A00000
ENDCHAR
STARTCHAR uni022A
ENCODING 554
SWIDTH 816 0
DWIDTH 20 0
BBX 18 31 1 0
BITMAP
00006AA400
0001FFFD00
0001FFFC00
0000000000
0000000000
0002E0B800
0007F5FD00
0007F5FD00
0002E0B800
0000000000
0000000000
0001BF9000
002FFFFD00
00BFEAFF40
02FD007FC0
07F4001FE0
0FE0000BF0
1FC0000BF0
3F800007F0
3F400007F0
7F400007F0
7F00000BF0
7F00000BE0
7F00000FE0
7F40001FC0
3F80003F80
2FC000BF00
1FE002FD00
0BFEAFF400
01FFFFD000
002BF90000
ENDCHAR
STARTCHAR uni022B
ENCODING 555
SWIDTH 451 0
DWIDTH 11 0
BBX 13 22 1 0
BITMAP
06AA9000
0BFFF000
0BFFE000
00000000
00000000
0B42D000
2F8BE000
2F8BE000
1F47D000
00000000
00000000
06F90000
1FFF4000
7FBFC000
BD3FD140
FC2FFFC0
FC0FFF80
FC0BE500
FD0F8000
BFBF4000
3FFE0000
0BE40000
ENDCHAR
STARTCHAR uni022C
ENCODING 556
SWIDTH 816 0
DWIDTH 20 0
BBX 18 32 1 0
BITMAP
00006AA800
0000FFFD00
0000FFFD00
0000000000
0000000000
0000500500
0003FD1F40
000BEFBF00
000F4BFD00
000501B800
0000000000
0000000000
0001BF9000
002FFFFD00
00BFEAFF40
02FD007FC0
07F4001FE0
0FE0000BF0
1FC0000BF0
3F800007F0
3F400007F0
7F400007F0
7F00000BF0
7F00000BE0
7F00000FE0
7F40001FC0
3F80003F80
2FC000BF00
1FE002FD00
0BFEAFF400
01FFFFD000
002BF90000
ENDCHAR
STARTCHAR uni022D
ENCODING 557
SWIDTH 451 0
DWIDTH 11 0
BBX 13 22 1 0
BITMAP
02AA9000
0BFFF000
07FFE000
00000000
05401400
1FE0B800
3EFEF400
782FF000
100B8000
00000000
00000000
06F90000
1FFF4000
7FBFC000
BD3FD140
FC2FFFC0
FC0FFF80
FC0BE500
FD0F8000
BFBF4000
3FFE0000
0BE40000
ENDCHAR
STARTCHAR uni0230
ENCODING 560
SWIDTH 816 0
DWIDTH 20 0
BBX 18 31 1 0
BITMAP
00006AA800
0001FFFD00
0001FFFC00
0000000000
0000000000
00001F8000
00003FC000
00003FC000
00002F4000
0000000000
0000000000
0001BF9000
002FFFFD00
00BFEAFF40
02FD007FC0
07F4001FE0
0FE0000BF0
1FC0000BF0
3F800007F0
3F400007F0
7F400007F0
7F00000BF0
7F00000BE0
7F00000FE0
7F40001FC0
3F80003F80
2FC000BF00
1FE002FD00
0BFEAFF400
01FFFFD000
002BF90000
ENDCHAR
STARTCHAR uni0231
ENCODING 561
SWIDTH 451 0
DWIDTH 11 0
BBX 13 21 1 0
BITMAP
06AA9000
0BFFF000
0BFFE000
00000000
00B90000
01FE0000
02FE0000
00B80000
00000000
00000000
06F90000
1FFF4000
7FBFC000
BD3FD140
FC2FFFC0
FC0FFF80
FC0BE500
FD0F8000
BFBF4000
3FFE0000
0BE40000
ENDCHAR
STARTCHAR uni0232
ENCODING 562
SWIDTH 851 0
DWIDTH 20 0
BBX 23 33 0 -8
BITMAP
000006AA4000
00001FFFC000
00001FFF8000
000000000000
000000000000
01BE40002E00
0BFFC0007F00
2FAFD0007F00
BD0FD000BF00
F40FD000BE00
900FD000FE00
001FC001FD00
002FC001FD00
002F8002FC00
003F8007FC00
007F400BF800
007F001FF800
007F003EF800
007F40BAF400
003FEBE3F454
002FFF83FFFC
0006F91BFFF8
000001FFF940
00001FFBE000
0000BF4BD000
0002F80FD000
0007D00FC000
000FC01F8000
000F803F0000
001FD1FE0000
000FFFF80000
0007FFE00000
000069000000
ENDCHAR
STARTCHAR uni0233
ENCODING 563
SWIDTH 479 0
DWIDTH 12 0
BBX 14 27 0 -11
BITMAP
00AAA400
02FFFC00
02FFF800
00000000
00000000
07C0B400
0FC1F400
1F82F400
1F83F000
2F47F000
2F4BE000
2F0FE0B0
2F6FD6F0
2FFFEFD0
1FFBFE00
0B9BF400
001FC000
00BF8000
02FF4000
0BAF0000
2E2F0000
7C3E0000
B47D0000
F4F80000
FAF40000
BFE00000
2F400000
ENDCHAR
STARTCHAR uni0237
ENCODING 567
SWIDTH 254 0
DWIDTH 6 0
BBX 15 22 -6 -11
BITMAP
0000B800
0000FC00
0000FC00
0001F800
0001F800
0002F400
0002F478
0002F6F8
0003FFE0
0003FF40
0003F800
000BE000
007FD000
01FFC000
07DF8000
0F4F8000
2E1F4000
3C2E0000
7C7D0000
7EFC0000
7FF40000
1F900000
ENDCHAR
STARTCHAR uni0259
ENCODING 601
SWIDTH 458 0
DWIDTH 11 0
BBX 10 11 1 0
BITMAP
1BF900
7FFF40
7ABFC0
000FD0
000BD0
7FFFD0
FFFFD0
FC0FC0
BEBF80
7FFF00
1BF800
ENDCHAR
STARTCHAR uni02BC
ENCODING 700
SWIDTH 600 0
DWIDTH 14 0
BBX 4 6 6 13
BITMAP
3C
7D
BD
BC
B8
74
ENDCHAR
STARTCHAR circumflex
ENCODING 710
SWIDTH 600 0
DWIDTH 14 0
BBX 9 8 3 13
BITMAP
005000
02FC00
07FD00
0BBD00
1F6E00
3E2F00
BC1F40
B40F00
ENDCHAR
STARTCHAR caron
ENCODING 711
SWIDTH 600 0
DWIDTH 14 0
BBX 9 8 4 13
BITMAP
780B40
BC2F40
BC3E00
7DBC00
3DF800
2FF000
2FD000
0B8000
ENDCHAR
STARTCHAR uni02C9
ENCODING 713
SWIDTH 600 0
DWIDTH 14 0
BBX 8 3 3 13
BITMAP
2AA9
7FFF
7FFE
ENDCHAR
STARTCHAR breve
ENCODING 728
SWIDTH 600 0
DWIDTH 14 0
BBX 11 6 2 13
BITMAP
140010
7D00F4
7E02F4
3FEBF0
1FFFD0
06FE00
ENDCHAR
STARTCHAR dotaccent
ENCODING 729
SWIDTH 600 0
DWIDTH 14 0
BBX 5 4 5 13
BITMAP
2E00
BF80
BF40
7E00
ENDCHAR
STARTCHAR ring
ENCODING 730
SWIDTH 600 0
DWIDTH 14 0
BBX 7 7 4 13
BITMAP
0BD0
3FF4
7EF8
B87C
7EF8
3FF4
1B90
ENDCHAR
STARTCHAR ogonek
ENCODING 731
SWIDTH 600 0
DWIDTH 14 0
BBX 7 8 3 -6
BITMAP
0100
1F00
3D00
BC00
B800
BEA4
7FF8
1BE0
ENDCHAR
STARTCHAR tilde
ENCODING 732
SWIDTH 600 0
DWIDTH 14 0
BBX 11 5 2 13
BITMAP
054014
1FE0B8
3EFEF4
B87FE0
100B80
ENDCHAR
STARTCHAR hungarumlaut
ENCODING 733
SWIDTH 600 0
DWIDTH 14 0
BBX 9 7 4 13
BITMAP
0B4780
1F8FC0
2F5F80
3E2F40
7D3E00
B87C00
A07400
ENDCHAR
STARTCHAR gravecomb
ENCODING 768
SWIDTH 0 0
DWIDTH 0 0
BBX 6 7 -12 13
BITMAP
3C00
7E00
3F00
1F80
0BC0
02D0
00E0
ENDCHAR
STARTCHAR acutecomb
ENCODING 769
SWIDTH 0 0
DWIDTH 0 0
BBX 6 7 -8 13
BITMAP
0780
0FD0
1FC0
2F40
7D00
B800
A000
ENDCHAR
STARTCHAR uni0302
ENCODING 770
SWIDTH 0 0
DWIDTH 0 0
BBX 8 8 -11 13
BITMAP
0050
03F4
0BF8
1FBC
2E3D
7D3E
F82E
E01E
ENDCHAR
STARTCHAR tildecomb
ENCODING 771
SWIDTH 0 0
DWIDTH 0 0
BBX 11 5 -12 13
BITMAP
050050
2FD0F4
BEFAF0
F47FD0
501B80
ENDCHAR
STARTCHAR uni0304
ENCODING 772
SWIDTH 0 0
DWIDTH 0 0
BBX 8 3 -11 13
BITMAP
6AA9
FFFE
BFFD
ENDCHAR
STARTCHAR uni0306
ENCODING 774
SWIDTH 0 0
DWIDTH 0 0
BBX 10 6 -12 13
BITMAP
100050
BC01F0
BD03F0
7FAFE0
2FFF80
06F900
ENDCHAR
STARTCHAR uni0307
ENCODING 775
SWIDTH 0 0
DWIDTH 0 0
BBX 4 4 -9 13
BITMAP
7E
FF
FF
7D
ENDCHAR
STARTCHAR uni0308
ENCODING 776
SWIDTH 0 0
DWIDTH 0 0
BBX 9 4 -11 13
BITMAP
781E00
FD3F40
FD3F40
B82E00
ENDCHAR
STARTCHAR hookabovecomb
ENCODING 777
SWIDTH 0 0
DWIDTH 0 0
BBX 6 7 -9 13
BITMAP
AA00
FFC0
03D0
02D0
03D0
6F80
7E00
ENDCHAR
STARTCHAR uni030A
ENCODING 778
SWIDTH 0 0
DWIDTH 0 0
BBX 7 7 -10 13
BITMAP
1F90
7FF0
BEF4
F4B4
FAF4
7FE0
1F80
ENDCHAR
STARTCHAR uni030B
ENCODING 779
SWIDTH 0 0
DWIDTH 0 0
BBX 9 7 -10 13
BITMAP
1E0B40
2F5F80
3F2F40
7D3E00
B87D00
F4B800
D0A000
ENDCHAR
STARTCHAR uni030C
ENCODING 780
SWIDTH 0 0
DWIDTH 0 0
BBX 8 8 -10 13
BITMAP
B41E
F83E
F87D
B8F8
7DF0
7FE0
3FC0
1F40
ENDCHAR
STARTCHAR uni030F
ENCODING 783
SWIDTH 0 0
DWIDTH 0 0
BBX 9 7 -13 13
BITMAP
787800
FCBE00
BD7E00
3E2F00
1F0F40
0B4780
034280
ENDCHAR
STARTCHAR uni0311
ENCODING 785
SWIDTH 0 0
DWIDTH 0 0
BBX 10 6 -12 13
BITMAP
016400
0BFF80
2FFFD0
7E0BF0
BC02F0
B401E0
ENDCHAR
STARTCHAR uni0312
ENCODING 786
SWIDTH 0 0
DWIDTH 0 0
BBX 3 6 -8 13
BITMAP
78
FC
F8
F4
F4
E0
ENDCHAR
STARTCHAR uni031B
ENCODING 795
SWIDTH 0 0
DWIDTH 0 0
BBX 5 6 -8 9
BITMAP
0100
0B80
0F80
6F40
BE00
B400
ENDCHAR
STARTCHAR dotbelowcomb
ENCODING 803
SWIDTH 0 0
DWIDTH 0 0
BBX 5 4 -12 -5
BITMAP
1F40
3FC0
7FC0
2F40
ENDCHAR
STARTCHAR uni0324
ENCODING 804
SWIDTH 0 0
DWIDTH 0 0
BBX 9 4 -14 -5
BITMAP
2E0B80
7F1FC0
7F1FC0
2D0B40
ENDCHAR
STARTCHAR uni0326
ENCODING 806
SWIDTH 0 0
DWIDTH 0 0
BBX 4 6 -11 -7
BITMAP
3C
7D
BD
BC
B8
74
ENDCHAR
STARTCHAR uni0327
ENCODING 807
SWIDTH 0 0
DWIDTH 0 0
BBX 7 7 -13 -6
BITMAP
1A90
1FF4
00B8
00BC
6AF8
FFF0
BF80
ENDCHAR
STARTCHAR uni0328
ENCODING 808
SWIDTH 0 0
DWIDTH 0 0
BBX 6 8 -11 -6
BITMAP
0400
2E00
7C00
F400
F400
FEA0
BFF0
2FD0
ENDCHAR
STARTCHAR uni032E
ENCODING 814
SWIDTH 0 0
DWIDTH 0 0
BBX 10 6 -14 -7
BITMAP
500040
F402E0
FC07D0
BFAFC0
7FFF40
0BF800
ENDCHAR
STARTCHAR uni0331
ENCODING 817
SWIDTH 0 0
DWIDTH 0 0
BBX 8 3 -13 -4
BITMAP
6AA9
BFFE
BFFD
ENDCHAR
STARTCHAR uni0394
ENCODING 916
SWIDTH 700 0
DWIDTH 17 0
BBX 14 21 1 0
BITMAP
0000B400
0002F800
0003F800
0007FC00
000BFC00
001FBD00
002F3E00
003E3E00
00BD2F00
00FC2F00
01F41F40
02F01F40
07E00F80
0BD00FC0
0FC00BC0
2F400BD0
3F0007D0
7E0007E0
BFAAABF0
FFFFFFF0
FFFFFFE0
ENDCHAR
STARTCHAR uni03A9
ENCODING 937
SWIDTH 816 0
DWIDTH 20 0
BBX 20 21 -1 0
BITMAP
00001BF900
0001FFFFD0
000BFFFFF4
002FE40BF8
007F8002FD
00FE0000FE
01FD0000BF
02F800007F
03F800007F
07F400007F
07F400007F
07F00000BF
07F00000BE
07F40000FD
07F40002FC
03F80007F4
02FC000FF0
01FE002FC0
2FFF80BFFE
7FFFC1FFFF
7FFF81FFFE
ENDCHAR
STARTCHAR uni03BC
ENCODING 956
SWIDTH 462 0
DWIDTH 11 0
BBX 14 18 0 -6
BITMAP
07C0B400
0FC1F400
0F82F400
1F82F000
2F43F000
2F47E000
2F0FE070
3F1FD0F0
3FBFD2F0
3FFBFFD0
3FE3FF40
7F81F800
7E000000
7E000000
7E000000
7E000000
7E000000
3D000000
ENDCHAR
STARTCHAR pi
ENCODING 960
SWIDTH 496 0
DWIDTH 12 0
BBX 15 12 0 0
BITMAP
7FFFFFC0
7FFFFFC0
1FD6FD00
1FC1F800
1F81F800
2F82F400
2F42F404
3F43F02C
3F02F0B8
3F02FBF4
3F01FFD0
3E00BE00
ENDCHAR
STARTCHAR uni0400
ENCODING 1024
SWIDTH 686 0
DWIDTH 16 0
BBX 20 28 0 0
BITMAP
0014000000
003F400000
003FD00000
001BF80000
0001FE0000
00001E0000
0000000000
0000000000
0001BFE400
001FFFFE00
00BFEABF80
01FE001FC0
02FC000FC0
03F8001FC0
02F8001F80
01FD000A00
00BFE80000
002FFD0000
02FFFD0000
0BF9000000
2FD0000000
3F80000000
7F40000000
3F80000004
3FD00001BD
1FFEAABFFD
06FFFFFFE4
006BFFE900
ENDCHAR
STARTCHAR uni0401
ENCODING 1025
SWIDTH 686 0
DWIDTH 16 0
BBX 20 26 0 0
BITMAP
0000B42D00
0002FCBF00
0002FCBE00
0001F47D00
0000000000
0000000000
0001BFE400
001FFFFE00
00BFEABF80
01FE001FC0
02FC000FC0
03F8001FC0
02F8001F80
01FD000A00
00BFE80000
002FFD0000
02FFFD0000
0BF9000000
2FD0000000
3F80000000
7F40000000
3F80000004
3FD00001BD
1FFEAABFFD
06FFFFFFE4
006BFFE900
ENDCHAR
STARTCHAR uni0402
ENCODING 1026
SWIDTH 974 0
DWIDTH 23 0
BBX 25 31 1 -11
BITMAP
005AFFFFFE4000
07FFFFFFFF8000
2FEABF95AA0000
BE007F00000000
FC00BF00000000
F800BE00000000
FC00FE00000000
BD00FD00000000
6801FD00000000
0001FC1BF90000
0002FCBFFF0000
0002FAFABF8000
0003FF402FC000
0003FD002FC000
0007F8002F8280
0007F0002F9FC0
000BF0003FFF80
000BE0003FFE00
000BE0003FF400
0007D000BF8000
00000002FE0000
0000000FFE0000
0000007FFD0000
000000FEFC0000
000002F5F80000
000007E2F40000
00000BC3F00000
00000BCBD00000
00000FEFC00000
00000BFF400000
000002F8000000
ENDCHAR
STARTCHAR uni0403
ENCODING 1027
SWIDTH 635 0
DWIDTH 15 0
BBX 20 28 1 0
BITMAP
0000001400
000000BD00
000007FD00
00001FF400
00007F4000
0000B40000
0000000000
0000000000
006BFFFFFD
0BFFFFFFFD
3FFFF95554
BE47F00000
FC0BE00000
F80FE00000
FC0FD00000
BD1FC00000
101FC00000
002F800000
002F800000
003F400000
003F400000
007F000000
007F000000
00BF000000
00BE000000
00FE000000
00FE000000
00BC000000
ENDCHAR
STARTCHAR uni0404
ENCODING 1028
SWIDTH 687 0
DWIDTH 16 0
BBX 19 20 1 0
BITMAP
0001BF9000
002FFFF800
00BFEAFD00
02FD00BE00
07F4007E00
0FE000BE00
1FC0007D00
3F80001400
3F40000000
7FFFFE0000
7FFFFF0000
7F95550000
7F00000000
7F40000000
3F80000000
2FD0000000
0FF40001B4
07FFA6BFF4
00BFFFFF90
001AFFA500
ENDCHAR
STARTCHAR uni0405
ENCODING 1029
SWIDTH 693 0
DWIDTH 17 0
BBX 16 20 1 0
BITMAP
001BFE40
01FFFFF4
07FEABFC
0FE000FD
1FC000BE
1FC000BE
1FD000BD
0FF40014
0BFE4000
02FFF800
006FFF40
0002FFE0
14001FF4
BC0003F8
FC0002F8
FC0002F8
FD0007F4
BFEABFE0
2FFFFF80
06BFE400
ENDCHAR
STARTCHAR uni0406
ENCODING 1030
SWIDTH 495 0
DWIDTH 12 0
BBX 15 20 -1 0
BITMAP
00BFFFF0
02FFFFF4
00ABFA90
0007F400
0007F000
0007F000
000BE000
000BE000
000FD000
000FD000
001FC000
001FC000
002F8000
002F8000
003F4000
003F4000
007F4000
16BFA400
7FFFFE00
7FFFFD00
ENDCHAR
STARTCHAR uni0407
ENCODING 1031
SWIDTH 495 0
DWIDTH 12 0
BBX 15 26 -1 0
BITMAP
001F47D0
002F8BE0
002F8BE0
001F47D0
00000000
00000000
00BFFFF0
02FFFFF4
00ABFA90
0007F400
0007F000
0007F000
000BE000
000BE000
000FD000
000FD000
001FC000
001FC000
002F8000
002F8000
003F4000
003F4000
007F4000
16BFA400
7FFFFE00
7FFFFD00
ENDCHAR
STARTCHAR uni0408
ENCODING 1032
SWIDTH 743 0
DWIDTH 18 0
BBX 18 22 1 -2
BITMAP
001AFFFA40
06FFFFFFD0
1FFEAABFD0
3F80007F00
7E00007F00
7E0000BE00
3F0000BE00
2F0000FD00
050000FD00
000006FC00
00006FFC00
0006FFF800
001FE6F400
007F43F400
01FC07F000
03F40BE000
07E00FC000
07E01F8000
07E07F0000
07FAFD0000
02FFF40000
00BF900000
ENDCHAR
STARTCHAR uni0409
ENCODING 1033
SWIDTH 1158 0
DWIDTH 28 0
BBX 28 20 0 0
BITMAP
0000001F800000
0000003FC00000
0000007FC00000
000000BFC00000
000000FFC00000
000001FFC00000
000002FFC00000
000003FFC15500
000007EFEFFFE0
00000BDFFFFFF8
00000F9FE407FC
00002F5F8001FD
00003F1F8000FD
00007E1FC000FD
1000FD1FC001FD
BC02F80FD002FC
BD07F00BF007F4
7FAFD007FEAFE0
2FFF4001FFFF80
06F900002FE900
ENDCHAR
STARTCHAR uni040A
ENCODING 1034
SWIDTH 1182 0
DWIDTH 28 0
BBX 29 20 -1 0
BITMAP
006F80002E000000
06FFE0007F000000
1FEBF400BE000000
3E03F400BE000000
7803F400FD000000
2003F400FC000000
0003F401F8000000
0003F402FABFE400
0007F002FFFFFE00
0007F017FFAAFF40
01FFFFFFF4007FC0
02FFFFFFF0002FC0
006FE557F0001FC0
001FC007F0002FC0
002FC007F0002F80
002F8007F0007F40
003F4003F801FE00
007F0002FEABFC00
007E0000BFFFE000
007D00001BFA4000
ENDCHAR
STARTCHAR uni040B
ENCODING 1035
SWIDTH 979 0
DWIDTH 24 0
BBX 26 20 1 0
BITMAP
005AFFFFFE4000
07FFFFFFFF8000
2FEABF95AA0000
BE007F00000000
FC00BF00000000
F800BE00000000
FC00FE00000000
BD00FD00000000
6801FD00000000
0001FC1BF90000
0002FCBFFF0000
0002FAFABF8000
0003FF802FC000
0003FD002FC000
0007F8002F8000
0007F4002F80E0
000BF0003F43D0
000BE0003FAF80
000BE0003FFE00
0007D0001BE400
ENDCHAR
STARTCHAR uni040C
ENCODING 1036
SWIDTH 937 0
DWIDTH 22 0
BBX 26 28 0 0
BITMAP
00000000014000
0000000007E000
000000002FE000
00000000BF8000
00000003F90000
00000003900000
00000000000000
00000000000000
001BFE9000B800
01FFFFF001FC00
07FEAFF002F800
0FD01FC007F400
1F801FC00BF000
1F402F801FD000
1F802F803F8000
0FC03F40BF0000
06403F47F80000
0001BFBFE00000
0003FFFE400000
0002FFFE400000
0000BE7FC00000
0000BD1FE00000
1000FD0BF40040
7C01FC03F801E0
7E02F802FE07D0
3FAFF400FFFF80
1FFFD0007FFE00
02FE40001BE400
ENDCHAR
STARTCHAR uni040D
ENCODING 1037
SWIDTH 890 0
DWIDTH 21 0
BBX 25 28 0 0
BITMAP
00014000000000
000BE000000000
000BF800000000
0002FF00000000
00002FD0000000
000002D0000000
00000000000000
00000000000000
01BE40002E0000
0BFFC0007F0000
2FAFD0007F0000
BD0FD000BF0000
F40FD000BE0000
900FD000FE0000
001FC000FD0000
002FC001FD0000
002F8002FC0000
003F8003FC0000
007F4007F80000
007F000BF80000
00BE000FF40000
00BE002FF40000
00FD007BF40100
00FD01F7F40740
00FE07E3F82F40
00FFFF83FFFE00
007FFE01FFF800
001BE4006F9000
ENDCHAR
STARTCHAR uni040E
ENCODING 1038
SWIDTH 824 0
DWIDTH 20 0
BBX 22 33 1 -6
BITMAP
000050038000
0001F40B8000
0001FD6F4000
0000BFFE0000
00002FE40000
000000000000
000000000000
06F90000B800
2FFF0001FC00
BEBF4002FC00
F43F4002F800
403F4003F800
007F0007F400
00BF000BF400
00BE001FF000
00FD003FF000
00FD00BFE000
00FD02FBE000
00FFAFDBD000
007FFF4FD000
001BE80FDAE0
0000001FFFE0
000006FFFE80
00006FFF8000
0002FE2F4000
000BE03F4000
002F407F0000
003E00BE0000
007E01FC0000
007F47F40000
003FFFE00000
001FFF400000
000154000000
ENDCHAR
STARTCHAR uni040F
ENCODING 1039
SWIDTH 890 0
DWIDTH 21 0
BBX 25 25 0 -5
BITMAP
01BE40002D0000
0BFFC0007F0000
2FAFD0007F0000
BD0FD000BF0000
F40FD000BE0000
900FD000FE0000
001FD000FD0000
002FC001FD0000
002F8002FC0000
003F8003FC0000
007F4007F80000
007F000BF80000
00BF000FF40000
00BE001FF40000
00FD003BF40000
00FD00B7F40340
00FD02E3F40F40
00FFAFC3FEBE00
007FFF02FFF800
001FF8006F9000
000BE000000000
000BD000000000
000FD000000000
000FC000000000
00054000000000
ENDCHAR
STARTCHAR uni0410
ENCODING 1040
SWIDTH 786 0
DWIDTH 19 0
BBX 21 20 1 0
BITMAP
00001AFFA400
0002FFFFFC00
001FFFAFF800
00BFD0001000
02FE001F4000
07F8003F8000
0FE0003F4000
1FD0007F0000
3F8000BE0000
3F4000BE0000
7F0000FD0000
BF0001FD0000
BF0002FC0000
BF0003FC0000
BF000BFC0040
7F401FFC02C0
3FC07EFD0B80
1FFBF9FFBF40
0BFFE0BFFD00
01BE402FE000
ENDCHAR
STARTCHAR uni0411
ENCODING 1041
SWIDTH 917 0
DWIDTH 22 0
BBX 21 22 1 -2
BITMAP
006BFFFFFD00
0BFFFFFFFD00
3FEAFD555400
BE02F8000000
FC02F8000000
F803F4000000
FC07F4000000
FD07F0000000
780BF0000000
000BFBFF9000
006FFFFFF800
00FFFAABFE00
00FFD000BF40
001FC0003F80
001FC0003F80
002F80003F40
002F80007F40
003F8001FE00
003F401BFC00
003F46FFE000
003F4BFE4000
001501500000
ENDCHAR
STARTCHAR uni0412
ENCODING 1042
SWIDTH 827 0
DWIDTH 20 0
BBX 21 21 0 -1
BITMAP
0006BFFE9000
01BFFFFFF800
1FFFEAAFFE00
7FE40001BF40
7D0000003F80
102F40002F80
003F40003F80
007F0000BF40
00BE001BFD00
00BE0BFFE400
00FD0FFE4000
01FC06BFC000
01FC001FE000
02F80007F000
02F80007F000
03F8000BF000
03F4006FD000
03FAABFF8000
07FFFFFD0000
07FFFE900000
03E000000000
ENDCHAR
STARTCHAR uni0413
ENCODING 1043
SWIDTH 635 0
DWIDTH 15 0
BBX 20 20 1 0
BITMAP
006BFFFFFD
0BFFFFFFFD
3FFFF95554
BE47F00000
FC0BE00000
F80FE00000
FC0FD00000
BD1FC00000
101FC00000
002F800000
002F800000
003F400000
003F400000
007F000000
007F000000
00BF000000
00BE000000
00FE000000
00FE000000
00BC000000
ENDCHAR
STARTCHAR uni0414
ENCODING 1044
SWIDTH 964 0
DWIDTH 23 0
BBX 23 20 0 0
BITMAP
00006BFE9000
001BFFFFF800
00BFFAABFF40
00FE40007FC0
00A004001FE0
00007E000BF0
0000BD0007F4
0001FC0003F4
0002F80003F8
0003F40003F8
0007F00003F8
0007F00003F4
000BE00007F4
000BD0000BF0
1BEFD0000FE0
3FFFC0002FC0
7EBFF4007F80
BEAFBFABFE00
7FFE1FFFF800
1BE401BF9000
ENDCHAR
STARTCHAR uni0415
ENCODING 1045
SWIDTH 686 0
DWIDTH 16 0
BBX 20 20 0 0
BITMAP
0001BFE400
001FFFFE00
00BFEABF80
01FE001FC0
02FC000FC0
03F8001FC0
02F8001F80
01FD000A00
00BFE80000
002FFD0000
02FFFD0000
0BF9000000
2FD0000000
3F80000000
7F40000000
3F80000004
3FD00001BD
1FFEAABFFD
06FFFFFFE4
006BFFE900
ENDCHAR
STARTCHAR uni0416
ENCODING 1046
SWIDTH 1234 0
DWIDTH 30 0
BBX 32 20 0 0
BITMAP
001BE0007D001FE4
00FFFC00FD00BFFC
01FAFE00FD01FEBD
00807F01FD03F428
00002F81FC0BE000
00001F81FC0FD000
00000FC2F83F8000
00000BE2F9FF0000
000002FFFFF80000
000001FFFFD00000
00000FFFFFF40000
00003FD7F2FC0000
0000BF0BE0FD0000
0001FD0BE0BE0000
0002F80FD07F4000
1407F00FD03F800A
7D0BE00FC01FD02E
7FAFC01FC00BFAFC
2FFF001FC003FFF4
0BF8001F4000BF80
ENDCHAR
STARTCHAR uni0417
ENCODING 1047
SWIDTH 725 0
DWIDTH 17 0
BBX 16 20 1 0
BITMAP
001AFE40
00BFFFE0
03FEAFF4
07F403F8
0BD002F8
0BD002F8
07D003F4
014007E0
00001F80
001BFF90
002FFBF4
001541FD
000000FD
7D0000FE
BE0001FD
BE0002FC
7F400BF8
3FEABFE0
1FFFFF40
01BFE400
ENDCHAR
STARTCHAR uni0418
ENCODING 1048
SWIDTH 890 0
DWIDTH 21 0
BBX 25 20 0 0
BITMAP
01BE40002E0000
0BFFC0007F0000
2FAFD0007F0000
BD0FD000BF0000
F40FD000BE0000
900FD000FE0000
001FC000FD0000
002FC001FD0000
002F8002FC0000
003F8003FC0000
007F4007F80000
007F000BF80000
00BE000FF40000
00BE002FF40000
00FD007BF40100
00FD01F7F40740
00FE07E3F82F40
00FFFF83FFFE00
007FFE01FFF800
001BE4006F9000
ENDCHAR
STARTCHAR uni0419
ENCODING 1049
SWIDTH 890 0
DWIDTH 21 0
BBX 25 27 0 0
BITMAP
00001400B00000
00003E01F00000
00003F5BE00000
00002FFF800000
000006F9000000
00000000000000
00000000000000
01BE40002E0000
0BFFC0007F0000
2FAFD0007F0000
BD0FD000BF0000
F40FD000BE0000
900FD000FE0000
001FC000FD0000
002FC001FD0000
002F8002FC0000
003F8003FC0000
007F4007F80000
007F000BF80000
00BE000FF40000
00BE002FF40000
00FD007BF40100
00FD01F7F40740
00FE07E3F82F40
00FFFF83FFFE00
007FFE01FFF800
001BE4006F9000
ENDCHAR
STARTCHAR uni041A
ENCODING 1050
SWIDTH 937 0
DWIDTH 22 0
BBX 26 20 0 0
BITMAP
001BFE9000B800
01FFFFF001FC00
07FEAFF002F800
0FD01FC007F400
1F801FC00BF000
1F402F801FD000
1F802F803F8000
0FC03F40BF0000
06403F47F80000
0001BFBFE00000
0003FFFE400000
0002FFFE400000
0000BE7FC00000
0000BD1FE00000
1000FD0BF40040
7C01FC03F801E0
7E02F802FE07D0
3FAFF400FFFF80
1FFFD0007FFE00
02FE40001BE400
ENDCHAR
STARTCHAR uni041B
ENCODING 1051
SWIDTH 861 0
DWIDTH 21 0
BBX 24 20 0 0
BITMAP
0000001B8000
0000003FC000
0000007FC000
000000BFC000
000000FFC000
000001FFC000
000002FFC000
000003FFC000
000007EF8000
00000BDF8000
00000FDF8000
00002F9FC000
00003F1FC000
00007E1FC000
1000FD0FD001
BC02F80FD01E
BD0BF40BF07E
7FAFD007FFFC
2FFF8002FFF0
06F900007F80
ENDCHAR
STARTCHAR uni041C
ENCODING 1052
SWIDTH 1133 0
DWIDTH 27 0
BBX 31 20 0 0
BITMAP
000002F4007E0000
00000BF800FF4000
00000BF801FF4000
00000FF802FF0000
00001FF807FF0000
00001FF80BFF0000
00002FF80FBF0000
00003FF81FBE0000
00003EF83F7E0000
00007DF87E7E0000
0000BDF8BD7E0000
0000FCFCFC7E0000
0001F8FDF87E0000
0002F4BEF47E0000
1003F0BFE07F0010
B807E0BFD07F00B4
BD0FD07FC03F82F0
BFBF803F802FEFD0
3FFF003F400FFF40
0BF8001F0002F900
ENDCHAR
STARTCHAR uni041D
ENCODING 1053
SWIDTH 873 0
DWIDTH 21 0
BBX 25 21 -1 0
BITMAP
0000000001F800
006F80000BFD00
02FFE0001FEE00
0FEBF4003F1E00
3E03F400BE1E00
7C03F400FC1E00
2003F401F82D00
0003F402F47C00
0003F002F5F400
0007F003FBD000
0007F55BFF4000
01FFFFFFF40000
02FFFFFFE00000
01AFD40BE00000
001FC00BE00000
002FC00BE00000
002F8007F002C0
003F4003F40BC0
007F0002FEBF40
007E0000FFFD00
007D00002FE000
ENDCHAR
STARTCHAR uni041E
ENCODING 1054
SWIDTH 816 0
DWIDTH 20 0
BBX 18 20 1 0
BITMAP
0001BF9000
002FFFFD00
00BFEAFF40
02FD007FC0
07F4001FE0
0FE0000BF0
1FC0000BF0
3F800007F0
3F400007F0
7F400007F0
7F00000BF0
7F00000BE0
7F00000FE0
7F40001FC0
3F80003F80
2FC000BF00
1FE002FD00
0BFEAFF400
01FFFFD000
002BF90000
ENDCHAR
STARTCHAR uni041F
ENCODING 1055
SWIDTH 892 0
DWIDTH 21 0
BBX 24 20 1 0
BITMAP
005ABFFFFA94
07FFFFFFFFFD
2FFBF956FFFD
BE47F400FD00
FC07F001FC00
F80BE002FC00
FC0FE002F800
BC0FD003F800
141FD003F400
001FC007F000
002FC00BF000
002F800BE000
003F800FD000
003F400FD000
007F401FC000
007F001FC00D
00BF001FD07D
00BF000FFAF8
00BE0007FFE0
007D0001BE40
ENDCHAR
STARTCHAR uni0420
ENCODING 1056
SWIDTH 805 0
DWIDTH 19 0
BBX 19 22 1 -2
BITMAP
0001AFE900
000BFFFF80
007FEABFE0
01FD001FF0
03F40007F8
0BD0B803F8
1F81FC03F8
2F01FC03F8
3E02F807F4
7D02F80BF0
BC03F42FD0
BC2BFAFF40
BC7FFFFD00
F87FFF9000
F80BE00000
BC0FE00000
BC0FD00000
7D1FC00000
7F2FC00000
2FFF800000
0BFF400000
01FD000000
ENDCHAR
STARTCHAR uni0421
ENCODING 1057
SWIDTH 686 0
DWIDTH 16 0
BBX 19 20 1 0
BITMAP
0001BF9000
002FFFF800
00BFEAFD00
02FD00BE00
07F4007E00
0FE0007E00
2FC000BE00
3F80007800
3F40000000
7F40000000
7F00000000
7F00000000
7F00000000
7F40000000
3F80000000
2FD0000010
0FF80006F4
07FFAABFF4
00BFFFFF90
001AFFA400
ENDCHAR
STARTCHAR uni0422
ENCODING 1058
SWIDTH 697 0
DWIDTH 17 0
BBX 21 20 1 0
BITMAP
005AFFFFFE40
0BFFFFFFFF80
3FEABFAAAA40
BE007F000000
FC00BF000000
F800BE000000
FC00FE000000
BC00FD000000
1001FD000000
0001FC000000
0002F8000000
0002F8000000
0003F4000000
0003F4000000
0007F4000000
0007F0000000
000BF0000000
000BE0000000
000BE0000000
0007D0000000
ENDCHAR
STARTCHAR uni0423
ENCODING 1059
SWIDTH 824 0
DWIDTH 20 0
BBX 22 26 1 -6
BITMAP
06F90000B800
2FFF0001FC00
BEBF4002FC00
F43F4002F800
403F4003F800
007F0007F400
00BF000BF400
00BE001FF000
00FD003FF000
00FD00BFE000
00FD02FBE000
00FFAFDBD000
007FFF4FD000
001BE80FDAE0
0000001FFFE0
000006FFFE80
00006FFF8000
0002FE2F4000
000BE03F4000
002F407F0000
003E00BE0000
007E01FC0000
007F47F40000
003FFFE00000
001FFF400000
000154000000
ENDCHAR
STARTCHAR uni0424
ENCODING 1060
SWIDTH 977 0
DWIDTH 23 0
BBX 22 29 1 -6
BITMAP
014000000000
03FA95540000
03FFFFFE0000
006FFFFE0000
000002F40000
000003F00000
001643E01500
00BFFBE2FF80
03FFFFDBFFD0
0BF46FEF4BE0
1FD00FFC07F0
2F800FF407F0
3F400FD007F0
7F001F800BF0
7F001F800BE0
BE003F400FD0
BE00BF401FC0
BE02FF402F80
7F0BFFD0BF40
3FFF7FFFFD00
1FFD7FBFF400
0150BE154000
0000BD000000
0500FC000000
1F41F8000000
1F82F4000000
0FEBE0000000
07FFC0000000
01BE00000000
ENDCHAR
STARTCHAR uni0425
ENCODING 1061
SWIDTH 712 0
DWIDTH 17 0
BBX 21 20 -1 0
BITMAP
00BF80007D00
07FFE001FD00
1FEFF407F800
2E02FC1FE000
1401FD3F8000
0000FEBF0000
0000BFFC0000
00007FF40000
00003FD00000
00007F800000
0001FFC00000
0003FFD00000
000FEFE00000
002FCBE00000
00BF47F00000
02FD03F401C0
0BF802F80BC0
1FE001FEBF40
7F8000BFFD00
7E00001FE400
ENDCHAR
STARTCHAR uni0426
ENCODING 1062
SWIDTH 890 0
DWIDTH 21 0
BBX 25 28 0 -8
BITMAP
01BE40002D0000
0BFFC0007F0000
2FAFD0007F0000
BD0FD000BF0000
F40FD000BE0000
900FD000FE0000
001FD000FD0000
002FC001FD0000
002F8002FC0000
003F8003FC0000
007F4007F80000
007F000BF80000
00BF000FF40000
00BE001FF40000
00FD003BF40000
00FD00B7F40000
00FD02E3F90600
00FFAF83FFAF40
007FFE01BFFE00
001BE4002FE400
00000001FF8000
0000000BFF4000
0000007F6F0000
000000FD3E0000
000001F87D0000
000001FEFC0000
000000FFF40000
0000006F900000
ENDCHAR
STARTCHAR uni0427
ENCODING 1063
SWIDTH 773 0
DWIDTH 19 0
BBX 16 20 2 0
BITMAP
0B80002D
1FC0007E
1FD000BE
1FC000BE
1FC000FD
2FC000FD
3F8001FD
3F4002FC
7F4007FC
7F400FF8
7F402FF8
3FEAFEF8
1FFFF2F4
06FE42F4
000003F0
000003F0
000007F0
000007E0
00000BE0
000007D0
ENDCHAR
STARTCHAR uni0428
ENCODING 1064
SWIDTH 1272 0
DWIDTH 31 0
BBX 34 20 0 0
BITMAP
01BE40007C000B8000
0BFFC000BD000FC000
2FAFD000FE001FC000
BD0FD000FD001FC000
F40FD001FD002FC000
900FD001FC002F8000
001FD002F8003F8000
002FC002F8007F4000
002F8003F4007F4000
003F8007F000BF0000
007F400BE000FF0000
007F000FE001FF0000
00BF001FD002FE0000
00BE003FD007FE0000
00FD007FC00BBD0000
00FD00FBC01DFD0090
00FD03DBD07CFE02E0
00FFAF8BFAF4BFAFC0
007FFE07FFD07FFE00
001FE401BE001BE400
ENDCHAR
STARTCHAR uni0429
ENCODING 1065
SWIDTH 1272 0
DWIDTH 31 0
BBX 34 28 0 -8
BITMAP
01BE40007C000B8000
0BFFC000BD000FC000
2FAFD000FE001FC000
BD0FD000FD001FC000
F40FD001FD002FC000
900FD001FC002F8000
001FD002F8003F8000
002FC002F8007F4000
002F8003F4007F4000
003F8007F000BF0000
007F400BE000FF0000
007F000FE001FE0000
00BF001FD002FE0000
00BE003FD007FE0000
00FD007FC00BBD0000
00FD00FBC01DFD0000
00FD03DBD07CFE4090
00FFAF8BFAF4BFEBD0
007FFE07FFD02FFF80
001FE401FE0007FD00
0000000000006FE000
000000000002FFD000
00000000000FDBC000
00000000002F4BC000
00000000003F1F8000
00000000007FBF0000
00000000003FFD0000
00000000000BE40000
ENDCHAR
STARTCHAR uni042A
ENCODING 1066
SWIDTH 863 0
DWIDTH 21 0
BBX 19 20 2 0
BITMAP
0001540000
7FFFFC0000
7FFFFC0000
155BF00000
000FD00000
001FC00000
002F800000
003FAFF900
00BFFFFFD0
07FFEABFF0
0FFD000BF4
0AFD0007F4
00FD0003F4
00FD0003F4
00FD0007F0
00BD000FE0
00BF002FC0
003FEAFF40
001FFFF900
0002FF9000
ENDCHAR
STARTCHAR uni042B
ENCODING 1067
SWIDTH 1078 0
DWIDTH 26 0
BBX 25 20 0 0
BITMAP
002E0000000B80
007F0000001FC0
00BE0000001FC0
00FE0000002FC0
00FD0000002F80
01FC0000002F80
01F80000003F40
02FABFE4003F40
03FFFFFE007F00
2FFEAAFF407F00
7FF0007FC0BE00
2BF0002FC0BE00
07E0001FC0FD00
07E0002FC0FD00
07F0002F81FC00
07F0007F41FC00
03F801FE02F800
01FEAFF802F800
00BFFFE002F800
001BFA4001F400
ENDCHAR
STARTCHAR uni042C
ENCODING 1068
SWIDTH 721 0
DWIDTH 17 0
BBX 17 20 0 0
BITMAP
002E000000
007F000000
00BE000000
00FE000000
00FD000000
01FC000000
01F8000000
02FABFE400
03FFFFFE00
2FFEAAFF40
7FF0007FC0
2BF0002FC0
07E0001FC0
07E0002FC0
07F0002F80
07F0007F40
03F801FE00
01FEAFF800
00BFFFE000
001BFA4000
ENDCHAR
STARTCHAR uni042D
ENCODING 1069
SWIDTH 755 0
DWIDTH 18 0
BBX 17 20 1 0
BITMAP
001BFE4000
02FFFFE000
0BFAAFF800
1F9002FD00
2E0000FF00
0400007F40
0000003F40
0000003F80
0000003F80
00BFFFFF80
00FFFFFF80
005555BF40
0000007F00
280000BE00
BD0000FD00
FD0002F800
BE001BF400
7FA6BFD000
2FFFFE0000
06FFA40000
ENDCHAR
STARTCHAR uni042E
ENCODING 1070
SWIDTH 1246 0
DWIDTH 30 0
BBX 31 20 -1 0
BITMAP
006F80000507E400
02FFE0003F8BFE00
0FFFF400FFC2FF80
2F43F402F7C02FD0
7C03F407EB800BE0
7403F40BDF4007F0
0003F40FFF0007F4
0003F01FFC0003F4
0007F02FF40003F4
0007F6FF800003F4
01FFFFFF400007F4
02FFFFBF400007F0
006FD03F40000BF0
001FC03F80000FD0
002F802FC0002FC0
002F802FD000BF40
003F400FF402FE00
007F0007FFBFF800
007E0001FFFFD000
007D00002BF90000
ENDCHAR
STARTCHAR uni042F
ENCODING 1071
SWIDTH 850 0
DWIDTH 20 0
BBX 24 20 0 0
BITMAP
00006FE9B800
0007FFFFFC00
001FFAAFFC00
002F8002FC00
007F4002F800
007F0003F800
00BE0007F400
007F000BF400
007F400FF000
003FD02FF000
001FFFFFE000
0007FFFFE000
000056FFD000
000007EBD000
10001FCBD004
B4007F4BD01D
BC01FD0BE07D
BFAFF40BFFF8
3FFFD007FFE0
0BF90001BE40
ENDCHAR
STARTCHAR uni0430
ENCODING 1072
SWIDTH 470 0
DWIDTH 11 0
BBX 14 11 1 0
BITMAP
01BC0000
07FFD000
1FEBD000
3F4BD000
BE0FC000
FC0F8000
FC1F81D0
FC2F87D0
FEBFEF80
BFFBFE00
2F82F400
ENDCHAR
STARTCHAR uni0431
ENCODING 1073
SWIDTH 473 0
DWIDTH 11 0
BBX 14 22 1 0
BITMAP
00001000
001BF400
02FFF000
0BFE9000
0F900000
0F800000
0BD00000
03F40000
01FD0000
007F0000
001F8000
06FFD000
1FFFE000
3FAFE000
BE1FE140
FD0FFFE0
FC0BFFD0
FC0FE500
FC1FC000
BEBF4000
7FFE0000
1BE40000
ENDCHAR
STARTCHAR uni0432
ENCODING 1074
SWIDTH 473 0
DWIDTH 11 0
BBX 14 22 1 0
BITMAP
002F4000
00FFC000
02FBD000
07D3D000
0BC3D000
0F87C000
1F4B8000
2F4F4000
3F1E0000
3F3D0000
7E740000
7EFE0000
BFFF8000
BFAFD000
BE1FE140
BD0FFFE0
BD07FFD0
7D03E900
7E07D000
3FAFC000
1FFF0000
06F80000
ENDCHAR
STARTCHAR uni0433
ENCODING 1075
SWIDTH 380 0
DWIDTH 9 0
BBX 11 11 1 0
BITMAP
1BF800
7FFE00
BABF00
007E00
02F800
1FD000
7E001C
FC00BC
FEABF4
BFFFD0
2BF900
ENDCHAR
STARTCHAR uni0434
ENCODING 1076
SWIDTH 479 0
DWIDTH 12 0
BBX 14 22 0 -11
BITMAP
006F0000
01FFF400
07FAF400
0FD2F000
2F83F000
3F03E000
3F07E1B0
3F0BDBF0
3FAFFFD0
2FFFFE00
0BEBF400
002FC000
00FF8000
03FF4000
0F9F0000
2E2F0000
7C3E0000
B87D0000
F4F80000
FAF40000
BFE00000
2F400000
ENDCHAR
STARTCHAR uni0435
ENCODING 1077
SWIDTH 393 0
DWIDTH 9 0
BBX 12 11 1 0
BITMAP
06F800
1FFF00
7FBF40
BD1F40
FC2F00
F9FD04
FFE01D
FE00BD
BFABF8
3FFFE0
0AFA00
ENDCHAR
STARTCHAR uni0436
ENCODING 1078
SWIDTH 717 0
DWIDTH 17 0
BBX 21 11 0 0
BITMAP
02E47C1F8000
0BFCBCBFE000
0FBEF9FAF000
0A1FFBE1F000
001FFBD1D000
041FFFD00100
3D2FBFD00B40
7D3DFFE02F00
BEBCFAFABD00
7FF4F4BFF800
1F90B02F9000
ENDCHAR
STARTCHAR uni0437
ENCODING 1079
SWIDTH 435 0
DWIDTH 10 0
BBX 14 22 -1 -11
BITMAP
00AF9000
02FFF000
07EAF400
0140F400
0001F400
0007E000
006F8060
07FD02F0
0BE01FD0
07FDBE40
007FF400
002F8000
00FF8000
07EF8000
0F8F8000
2E1F4000
7C2F0000
B83E0000
F4BD0000
FAF80000
BFE00000
2F800000
ENDCHAR
STARTCHAR uni0438
ENCODING 1080
SWIDTH 462 0
DWIDTH 11 0
BBX 13 11 1 0
BITMAP
1F02D000
3F07D000
7E0BD000
7E0FC000
BD1F8000
BD2F8000
BC3F41C0
BDBF47C0
BFEFAF80
7FDFFD00
2E0BE400
ENDCHAR
STARTCHAR uni0439
ENCODING 1081
SWIDTH 462 0
DWIDTH 11 0
BBX 13 19 1 0
BITMAP
00001000
05007800
1F41F400
1FEBF000
0FFFC000
02FE0000
00000000
00000000
1F02D000
3F07D000
7E0BD000
7E0FC000
BD1F8000
BD2F8000
BC3F41C0
BDBF47C0
BFEFAF80
7FDFFD00
2E0BE400
ENDCHAR
STARTCHAR uni043A
ENCODING 1082
SWIDTH 465 0
DWIDTH 11 0
BBX 14 11 1 0
BITMAP
1F0BE000
3F2FF800
7EBEBC00
7DF87C00
BEF47400
BFF00040
BFF402D0
BFF80BC0
BEFEAF80
BD7FFE00
3C0BE400
ENDCHAR
STARTCHAR uni043B
ENCODING 1083
SWIDTH 549 0
DWIDTH 13 0
BBX 16 11 0 0
BITMAP
0001F800
0003FC00
0007FC00
000FFC00
001FFC00
282FBC01
BC7DFC0B
FCFCBC2E
FEF4BEFD
BFE07FF4
2F402F80
ENDCHAR
STARTCHAR uni043C
ENCODING 1084
SWIDTH 734 0
DWIDTH 18 0
BBX 21 11 0 0
BITMAP
0002E02E0000
000BF0BF4000
000FF1FF4000
001FF2FF0000
002EF7EF0000
283EFB9F0000
BC7DFF6F0380
FCF8FF2F4B80
FEF4FE1FAF00
BFE0BD1FFC00
2F40780BE000
ENDCHAR
STARTCHAR uni043D
ENCODING 1085
SWIDTH 475 0
DWIDTH 11 0
BBX 14 11 1 0
BITMAP
1F01E000
3F03E000
7E07E000
7D07D000
BFFFC000
BFFFC040
BD5F81D0
BC0F87D0
BC0FEF80
BC0FFE00
3807E400
ENDCHAR
STARTCHAR uni043E
ENCODING 1086
SWIDTH 451 0
DWIDTH 11 0
BBX 13 11 1 0
BITMAP
06F90000
1FFF4000
7FBFC000
BD3FD140
FC2FFFC0
FC0FFF80
FC0BE500
FD0F8000
BFBF4000
3FFE0000
0BE40000
ENDCHAR
STARTCHAR uni043F
ENCODING 1087
SWIDTH 496 0
DWIDTH 12 0
BBX 14 11 1 0
BITMAP
1F06E000
3F1FF000
7E7FF000
7DFBE000
BEE7E000
BFC7D010
BF4BD0B0
BF0BC2F0
BE0BEFD0
BD0BFF40
3C02F800
ENDCHAR
STARTCHAR uni0440
ENCODING 1088
SWIDTH 481 0
DWIDTH 12 0
BBX 18 22 -3 -11
BITMAP
002D6F4000
007EFFC000
007FEFD000
007F47E000
007E07E000
007D0BD000
00BD0FC0E0
01FD2F87E0
02FEBFAFC0
07FFFFFE00
0BBF97E400
1EBD000000
2DBD000000
3CBC000000
78BC000000
78F8000000
B4F8000000
B5F4000000
F5F0000000
BBE0000000
7FC0000000
2E40000000
ENDCHAR
STARTCHAR uni0441
ENCODING 1089
SWIDTH 368 0
DWIDTH 9 0
BBX 12 11 0 0
BITMAP
01BE00
07FF80
1FEF80
2F8B80
3F0B40
3F0000
7F000B
3F407E
2FEAFD
0FFFE4
02FE40
ENDCHAR
STARTCHAR uni0442
ENCODING 1090
SWIDTH 744 0
DWIDTH 18 0
BBX 20 11 1 0
BITMAP
1F07D06E00
3F2FE1FF00
7E7FE7FF00
7DFBEFBE00
BED7ED7E00
BFCBFC7D01
BF4BF4BC0B
BF0BF0BC2E
BE0BE0FEFD
BD0BD0BFF4
3C07802F80
ENDCHAR
STARTCHAR uni0443
ENCODING 1091
SWIDTH 479 0
DWIDTH 12 0
BBX 14 22 0 -11
BITMAP
07C0B400
0FC1F400
1F82F400
1F83F000
2F47F000
2F4BE000
2F0FE0B0
2F6FD6F0
2FFFEFD0
1FFBFE00
0B9BF400
001FC000
00BF8000
02FF4000
0BAF0000
2E2F0000
7C3E0000
B47D0000
F4F80000
FAF40000
BFE00000
2F400000
ENDCHAR
STARTCHAR uni0444
ENCODING 1092
SWIDTH 721 0
DWIDTH 17 0
BBX 20 27 1 -8
BITMAP
0000140000
0000BC0000
0000FC0000
0001F80000
0001F40000
0002F00000
0003F00000
0003E00000
01BFD7E000
07FFEFF800
1FDBF9FD00
3F4BF0BD00
BD0FE0BD00
FC0FD0FC00
FC1FC1FC1D
FC2FC3F47D
FEBF9FFAF8
BFEFFFFFE0
2F8FF9BE40
001F400000
001F400000
001F400000
001F400000
001F400000
001F400000
001F400000
001F000000
ENDCHAR
STARTCHAR uni0445
ENCODING 1093
SWIDTH 529 0
DWIDTH 13 0
BBX 16 11 0 0
BITMAP
02F42F40
0BFEFFC0
0FBFFBC0
0B5FD740
001FC000
041FC000
3D2F800E
7D3FC07E
BEBFFAFC
7FFBFFE0
1F91BE40
ENDCHAR
STARTCHAR uni0446
ENCODING 1094
SWIDTH 501 0
DWIDTH 12 0
BBX 14 18 1 -7
BITMAP
1F02D000
3F07D000
3E0BD000
7E0FC000
BD1F8000
BD2F8000
BC3F4000
BCBF4190
BFEF9BD0
7FCFFF80
2E07F900
002FD000
01FBC000
07D78000
0B4F4000
0FAF0000
0FFD0000
07E40000
ENDCHAR
STARTCHAR uni0447
ENCODING 1095
SWIDTH 555 0
DWIDTH 13 0
BBX 18 13 -1 0
BITMAP
000B400000
002FD00000
003FFFF400
007DFFF800
00BC1FE000
00F82F8000
02F0FD0000
07D2F40040
0F87E002D0
2F07E01BD0
7C07FABF40
1003FFFD00
0000BF9000
ENDCHAR
STARTCHAR uni0448
ENCODING 1096
SWIDTH 693 0
DWIDTH 17 0
BBX 19 11 1 0
BITMAP
1F02D07C00
3F07D0BC00
7E0BD0F800
7E0FC1F800
BD1FC2F400
BD2F83F000
BC3F8BF028
BCBF9FF0B8
BFEFFFFBF0
7FCFF6FFC0
2E47E0BD00
ENDCHAR
STARTCHAR uni0449
ENCODING 1097
SWIDTH 732 0
DWIDTH 18 0
BBX 19 18 1 -7
BITMAP
1F02D07C00
3F07D0BC00
7E0BD0F800
7E0FC1F800
BD1FC2F400
BD2F83F000
BC3F8BF000
BCBF9FE018
BFEFFFF9BC
7FCFF5FFF4
2E47E0BF80
000007FC00
00002FF800
0000B8F400
0001F1F000
0001FBE000
0001FF8000
0000BE0000
ENDCHAR
STARTCHAR uni044A
ENCODING 1098
SWIDTH 542 0
DWIDTH 13 0
BBX 15 12 1 0
BITMAP
54000000
FFF80000
BFF80000
0BD00000
1F9F9000
3FFFF000
3FEBF800
3F41F82C
3F02F4BC
2FEBFBF4
1FFFFFD0
06FEBE00
ENDCHAR
STARTCHAR uni044B
ENCODING 1099
SWIDTH 702 0
DWIDTH 17 0
BBX 19 11 1 0
BITMAP
1F40007800
3F4000FC00
3F0002F800
7E6F43F800
BFFFDBF400
BFABFFF000
BE03FFF02C
BD07FBF0B8
7FAFE2FBF4
2FFF81FFD0
07F900BE00
ENDCHAR
STARTCHAR uni044C
ENCODING 1100
SWIDTH 517 0
DWIDTH 12 0
BBX 15 11 1 0
BITMAP
1F400000
3F400000
3F000000
7E6F8000
BFFFE000
BFABF000
BE03F074
BD07E1F4
7FAFEBE0
2FFFFF80
07FAF900
ENDCHAR
STARTCHAR uni044D
ENCODING 1101
SWIDTH 466 0
DWIDTH 11 0
BBX 14 11 1 0
BITMAP
1BF90000
3FFF8000
2AAFD000
0007E180
01FFFFD0
52FFFFD0
F45BF500
F40BE000
FEAFC000
BFFF4000
1BF90000
ENDCHAR
STARTCHAR uni044E
ENCODING 1102
SWIDTH 676 0
DWIDTH 16 0
BBX 19 11 1 0
BITMAP
1F00BF8000
3F03FFE000
7E0FEBF400
7D1F87F810
BFFF47FFF4
BFFF42FFF4
BEBF40FA40
BC2F82F400
BC1FEBE000
BC0BFFC000
3801BE0000
ENDCHAR
STARTCHAR uni044F
ENCODING 1103
SWIDTH 543 0
DWIDTH 13 0
BBX 16 11 0 0
BITMAP
001FEB40
00BFFF40
00FEAF00
01F42E00
00F47E00
28BFFD01
BC2FFD0B
FC07BD2F
FE6F3EBD
7FFD3FF4
1FE01F80
ENDCHAR
STARTCHAR uni0450
ENCODING 1104
SWIDTH 393 0
DWIDTH 9 0
BBX 12 20 1 0
BITMAP
1E0000
3F4000
2F8000
0BC000
03E000
01F000
007000
000000
000000
06F800
1FFF00
7FBF40
BD1F40
FC2F00
F9FD04
FFE01D
FE00BD
BFABF8
3FFFE0
0AFA00
ENDCHAR
STARTCHAR uni0451
ENCODING 1105
SWIDTH 393 0
DWIDTH 9 0
BBX 12 17 1 0
BITMAP
0B42D0
1FCBF0
2F8BE0
1F47D0
000000
000000
06F800
1FFF00
7FBF40
BD1F40
FC2F00
F9FD04
FFE01D
FE00BD
BFABF8
3FFFE0
0AFA00
ENDCHAR
STARTCHAR uni0452
ENCODING 1106
SWIDTH 514 0
DWIDTH 12 0
BBX 14 31 1 -11
BITMAP
01E00000
03F00000
07E00000
0BE00000
BFFFD000
BFFFE000
1FD54000
2F800000
2F400000
3F06E000
3F1FF400
7E3FF000
7EBBF000
7EE3F000
BFC7E000
BF87E1F0
BF47DBE0
BF0BFF80
7E0BFD00
3D0FE000
002F8000
00BF8000
03FF4000
0FAF0000
2E3E0000
7C7D0000
F4BC0000
F4F80000
FBF00000
FFD00000
6E400000
ENDCHAR
STARTCHAR uni0453
ENCODING 1107
SWIDTH 380 0
DWIDTH 9 0
BBX 11 20 1 0
BITMAP
000B40
002F80
003F40
007D00
00F800
01E000
01C000
000000
000000
1BF800
7FFE00
BABF00
007E00
02F800
1FD000
7E001C
FC00BC
FEABF4
BFFFD0
2BF900
ENDCHAR
STARTCHAR uni0454
ENCODING 1108
SWIDTH 379 0
DWIDTH 9 0
BBX 12 11 0 0
BITMAP
01BF40
0BFFD0
1FEBE0
2F4140
3FFD00
3FFD01
7F540B
3F402F
2FEAFD
0FFFF4
02BE40
ENDCHAR
STARTCHAR uni0455
ENCODING 1109
SWIDTH 427 0
DWIDTH 10 0
BBX 14 12 0 -1
BITMAP
007D0000
00BD0000
01FC0000
02F80000
07FD0000
0BFF0000
1F7F8080
7E1FC2D0
F80FDBC0
E1FFFF00
03FFE800
01B90000
ENDCHAR
STARTCHAR uni0456
ENCODING 1110
SWIDTH 246 0
DWIDTH 6 0
BBX 8 16 1 0
BITMAP
0B80
2FE0
2FD0
1F80
0000
1F00
3F00
3E00
7E00
BD00
BD01
FC0B
BC2F
BEFD
7FF4
2F80
ENDCHAR
STARTCHAR uni0457
ENCODING 1111
SWIDTH 246 0
DWIDTH 6 0
BBX 9 17 0 0
BITMAP
7C1F00
FE3F40
FD3F40
781E00
000000
000000
07C000
0FC000
0F8000
1F8000
2F4000
2F4040
3F02C0
2F0BC0
2FBF40
1FFD00
0BE000
ENDCHAR
STARTCHAR uni0458
ENCODING 1112
SWIDTH 254 0
DWIDTH 6 0
BBX 15 27 -6 -11
BITMAP
00007D00
0000FF00
0001FF00
0000BD00
00000000
0000B800
0000FC00
0000FC00
0001F800
0001F800
0002F400
0002F478
0002F6F8
0003FFE0
0003FF40
0003F800
000BE000
007FD000
01FFC000
07DF8000
0F4F8000
2E1F4000
3C2E0000
7C7D0000
7EFC0000
7FF40000
1F900000
ENDCHAR
STARTCHAR uni0459
ENCODING 1113
SWIDTH 794 0
DWIDTH 19 0
BBX 22 11 0 0
BITMAP
0001F8000000
0003FC000000
0007FC000000
000FFC7E4000
001FFEFFD000
142FBFAFE000
BC7EBD07E0B0
FCFCBC0BD2F0
FEF4BFAFEFD0
BFE03FFFFF40
2F401BFAF800
ENDCHAR
STARTCHAR uni045A
ENCODING 1114
SWIDTH 751 0
DWIDTH 18 0
BBX 20 11 1 0
BITMAP
1F02F00000
3F03E00000
7E07E00000
7D0BDBE400
BFFFFFFC00
BFFFFAFE01
BD5FD07E0B
BC0BC0BD2F
BC0BFAFEBD
BC03FFFFF4
3800BFAF80
ENDCHAR
STARTCHAR uni045B
ENCODING 1115
SWIDTH 502 0
DWIDTH 12 0
BBX 14 20 1 0
BITMAP
01E00000
03F00000
07E00000
0BE00000
BFFFD000
BFFFE000
1FD54000
2F800000
2F400000
3F06E000
3F1FF400
7E3FF000
7EBBF000
7EE3E000
BFC7E010
BF87D0B0
BF4BD2F0
BF0BEBD0
7E07FF40
3C02F900
ENDCHAR
STARTCHAR uni045C
ENCODING 1116
SWIDTH 465 0
DWIDTH 11 0
BBX 14 20 1 0
BITMAP
0001E000
0002F400
0007F000
000BD000
000F4000
002E0000
00280000
00000000
00000000
1F0BE000
3F2FF800
7EBEBC00
7DF87C00
BEF47400
BFF00040
BFF402D0
BFF80BC0
BEFEAF80
BD7FFE00
3C0BE400
ENDCHAR
STARTCHAR uni045D
ENCODING 1117
SWIDTH 462 0
DWIDTH 11 0
BBX 13 20 1 0
BITMAP
0B400000
1FC00000
0FD00000
07E00000
01F40000
00B80000
00280000
00000000
00000000
1F02D000
3F07D000
7E0BD000
7E0FC000
BD1F8000
BD2F8000
BC3F41C0
BDBF47C0
BFEFAF80
7FDFFD00
2E0BE400
ENDCHAR
STARTCHAR uni045E
ENCODING 1118
SWIDTH 479 0
DWIDTH 12 0
BBX 14 30 0 -11
BITMAP
00000400
01401E00
07D07D00
07FAFC00
03FFF000
00BF8000
00000000
00000000
07C0B400
0FC1F400
1F82F400
1F83F000
2F47F000
2F4BE000
2F0FE0B0
2F6FD6F0
2FFFEFD0
1FFBFE00
0B9BF400
001FC000
00BF8000
02FF4000
0BAF0000
2E2F0000
7C3E0000
B47D0000
F4F80000
FAF40000
BFE00000
2F400000
ENDCHAR
STARTCHAR uni045F
ENCODING 1119
SWIDTH 600 0
DWIDTH 14 0
BBX 13 14 1 -3
BITMAP
1F02D000
3F07D000
7E0BD000
7E0FC000
BD1F8000
BC2F8040
BC7F42C0
BEFF4BC0
BFEFEF40
7FCFFD00
2F47E400
2F000000
2E000000
1D000000
ENDCHAR
STARTCHAR uni0462
ENCODING 1122
SWIDTH 721 0
DWIDTH 17 0
BBX 17 20 0 0
BITMAP
002E000000
00BF000000
1FFFF80000
2FFFF80000
06FE500000
01FC000000
02F8000000
02FABFE400
03FFFFFE00
2FFEAAFF40
7FF0007FC0
2BF0002FC0
07E0001FC0
07E0002FC0
07F0002F80
07F0007F40
03F801FE00
01FEAFF800
00BFFFE000
001BFA4000
ENDCHAR
STARTCHAR uni0463
ENCODING 1123
SWIDTH 517 0
DWIDTH 12 0
BBX 16 16 0 0
BITMAP
00500000
02F00000
07F00000
0BE00000
7FFF4000
BFFF4000
1FD50000
1F800000
2F9BE000
2FBFF800
2FEAFC00
2F80FC1D
2F41FC7D
1FEBFAF8
0BFFFFE0
01BEBE40
ENDCHAR
STARTCHAR uni046A
ENCODING 1130
SWIDTH 1234 0
DWIDTH 30 0
BBX 32 20 0 0
BITMAP
002FFFFFFFFFFFE0
007FFFFFFFFFFFF0
0016FF555556FE40
00003F400003F400
00002F80000BE000
00001FC0001FD000
00000FD0007F8000
00000BE006FF0000
000002FFFFF80000
000001FFFFD00000
00000FFFFFF40000
00003FD7F2FC0000
0000BF0BE0FD0000
0001FD0BE0BE0000
0002F80FD07F4000
1407F00FD03F800A
7D0BE00FC01FD02E
7FAFC01FC00BFAFC
2FFF001FC003FFF4
0BF8001F4000BF80
ENDCHAR
STARTCHAR uni046B
ENCODING 1131
SWIDTH 788 0
DWIDTH 19 0
BBX 22 20 0 0
BITMAP
000000BD0000
000001FE0000
000002FD0000
000003FD0000
000007FD0000
00000BBC0000
00000FBC0000
00001F7C0000
00002F7C0000
001FBE7DB800
002FFD7FFC00
001BFCBFA400
0000F87E0000
0002F8BC0000
0403F8FC0000
3D0BFAFD00B0
7D2FFBFE02F0
BEBE7FAFABD0
7FF87F4FFF40
1F903E02F900
ENDCHAR
STARTCHAR uni0472
ENCODING 1138
SWIDTH 816 0
DWIDTH 20 0
BBX 18 20 1 0
BITMAP
0001BF9000
002FFFFD00
00BFEAFF40
02FD007FC0
07F4001FE0
0FE0000BF0
1FC0000BF0
3F800007F0
3FFF940BF0
7FFFFFFFF0
7FAABFFFF0
7F00055FE0
7F00000FE0
7F40001FC0
3F80003F80
2FC000BF00
1FE002FD00
0BFEAFF400
01FFFFD000
002BF90000
ENDCHAR
STARTCHAR uni0473
ENCODING 1139
SWIDTH 451 0
DWIDTH 11 0
BBX 13 11 1 0
BITMAP
06F90000
1FFF4000
7FAFC000
BD0BD040
FD47FFC0
FFFFFFC0
FFFFFE40
FC5FC000
BFAF8000
3FFE0000
0BF40000
ENDCHAR
STARTCHAR uni0474
ENCODING 1140
SWIDTH 797 0
DWIDTH 19 0
BBX 21 20 3 0
BITMAP
2E00001FFA00
7F00003FFF80
BF00007FAF80
BF00007F0100
BE0000BE0000
FE0000FE0000
FE0001FD0000
FD0001FC0000
FD0002F80000
FD0003F40000
FD0007F00000
FD000FE00000
FE001FC00000
BE002F800000
BF007F000000
7F40FD000000
3F87F8000000
1FFFE0000000
0BFF80000000
02F900000000
ENDCHAR
STARTCHAR uni0475
ENCODING 1141
SWIDTH 420 0
DWIDTH 10 0
BBX 12 11 1 0
BITMAP
7802FE
BC07FF
BC0BD5
BC0FC0
BD2F40
BD3F00
BDBD00
BEF800
7FF400
3FD000
1F4000
ENDCHAR
STARTCHAR uni048A
ENCODING 1162
SWIDTH 890 0
DWIDTH 21 0
BBX 25 32 0 -5
BITMAP
00000000B00000
00002D01F00000
00003F47E00000
00002FFFC00000
00000FFF400000
00000154000000
00000000000000
01BE40002D0000
0BFFC0007F0000
2FAFD0007F0000
BD0FD000BF0000
F40FD000BE0000
900FD000FE0000
001FD000FD0000
002FC001FD0000
002F8002FC0000
003F8003FC0000
007F4007F80000
007F000BF80000
00BF000FF40000
00BE001FF40000
00FD003BF40000
00FD00B7F40340
00FD02E3F40F40
00FFAF83FEBE00
007FFE02FFF800
001BE4006FE000
000000001FC000
000000003F4000
00000000BE0000
00000001FC0000
00000000F40000
ENDCHAR
STARTCHAR uni048B
ENCODING 1163
SWIDTH 462 0
DWIDTH 11 0
BBX 13 22 1 -4
BITMAP
00003400
1F00B400
1F86F000
1FFFD000
07FF4000
00540000
00000000
1F02D000
3F07D000
7E0BD000
7E0FC000
BD1F8000
BD2F8000
BC3F41C0
BDBF47C0
BFEF9F80
7FDFFE00
2E0BF800
0007E000
001F8000
002F4000
002D0000
ENDCHAR
STARTCHAR uni048C
ENCODING 1164
SWIDTH 721 0
DWIDTH 17 0
BBX 17 20 0 0
BITMAP
002E000000
00BF000000
1FFFF80000
2FFFF80000
06FE500000
01FC000000
02F8000000
02FABFE400
03FFFFFE00
2FFEAAFF40
7FF0007FC0
2BF0002FC0
07E0001FC0
07E0002FC0
07F0002F80
07F0007F40
03F801FE00
01FEAFF800
00BFFFE000
001BFA4000
ENDCHAR
STARTCHAR uni048D
ENCODING 1165
SWIDTH 517 0
DWIDTH 12 0
BBX 16 16 0 0
BITMAP
00500000
02F00000
07F00000
0BE00000
7FFF4000
BFFF4000
1FD50000
1F800000
2F9BE000
2FBFF800
2FEAFC00
2F80FC1D
2F41FC7D
1FEBFAF8
0BFFFFE0
01BEBE40
ENDCHAR
STARTCHAR uni048E
ENCODING 1166
SWIDTH 805 0
DWIDTH 19 0
BBX 21 22 1 -2
BITMAP
0001AFE90000
000BFFFF8000
007FEABFE000
01FD000FF000
03F00007F800
0BD0B803F800
1F81FC03F800
2F01FC7BF800
3E02F87FF400
7D02F80FFE00
BC03F42FEF40
BC2BFAFF4500
BC7FFFFD0000
F86FFF900000
F80BE0000000
BC0FE0000000
BC0FD0000000
7D1FC0000000
7F2FC0000000
2FFF80000000
0BFF40000000
01FD00000000
ENDCHAR
STARTCHAR uni048F
ENCODING 1167
SWIDTH 481 0
DWIDTH 12 0
BBX 18 22 -3 -11
BITMAP
002D6F4000
007EFFC000
007FEFD000
007F47E000
007E07E000
007D0BD000
00BDAFC090
00FDBF82E0
02FEBFAFC0
07FFFFFE00
0BBF97E400
0EBD000000
2DBD000000
3CBC000000
7CBC000000
78F8000000
B4F8000000
B5F4000000
F5F0000000
BBE0000000
7FC0000000
2E40000000
ENDCHAR
STARTCHAR uni0490
ENCODING 1168
SWIDTH 645 0
DWIDTH 15 0
BBX 21 26 1 0
BITMAP
000000000500
000000001F40
000000001F40
000000002F40
000000002F00
000000003F00
006BFFFFFE00
0BFFFFFFFD00
7FFFF9555000
BE07F0000000
FC0BE0000000
F80FE0000000
FC0FD0000000
BD1FC0000000
101FC0000000
002F80000000
002F80000000
003F40000000
003F40000000
007F00000000
007F00000000
00BF00000000
00BE00000000
00FE00000000
00FE00000000
00BC00000000
ENDCHAR
STARTCHAR uni0491
ENCODING 1169
SWIDTH 394 0
DWIDTH 9 0
BBX 10 15 1 0
BITMAP
000140
0003C0
0007D0
000BC0
1FFFC0
3FFF40
7E5400
7D0000
BD0000
BD0000
BC0000
BC0000
BC0000
BC0000
380000
ENDCHAR
STARTCHAR uni0492
ENCODING 1170
SWIDTH 635 0
DWIDTH 15 0
BBX 20 20 1 0
BITMAP
006BFFFFFD
0BFFFFFFFD
3FFFF95554
BE07F00000
FC0BE00000
F80FE00000
FC0FD00000
BD1FD00000
141FC00000
02FFFE0000
07FFFF0000
017F940000
003F400000
007F400000
007F000000
00BF000000
00BE000000
00FE000000
00FE000000
00BD000000
ENDCHAR
STARTCHAR uni0493
ENCODING 1171
SWIDTH 380 0
DWIDTH 9 0
BBX 12 11 0 0
BITMAP
06FE00
1FFF80
2EAFC0
001F80
50BF00
7FF800
2FFD0B
3F146F
3FAAFD
2FFFF4
0AFE40
ENDCHAR
STARTCHAR uni0494
ENCODING 1172
SWIDTH 884 0
DWIDTH 21 0
BBX 23 31 1 -11
BITMAP
006BFFFFFD00
0BFFFFFFFD00
3FFFF9555400
BE47F0000000
FC0BE0000000
F80FE0000000
FC0FD0000000
BD1FD0000000
681FC0000000
002FC1BF8000
002F8BFFF000
003FBFABF400
003FF403F800
007FD002F800
007F4002F824
00BF0003F5F8
00BE0003FBF8
00FE0003FFE0
00FE0007FF40
00BC000BF800
0000002FE000
000001FFD000
000007FFC000
00001FEFC000
00003F6F8000
00007D2F4000
0000BC7E0000
0000F8BD0000
0000FEF80000
0000BFF00000
00002F800000
ENDCHAR
STARTCHAR uni0495
ENCODING 1173
SWIDTH 441 0
DWIDTH 11 0
BBX 12 18 1 -7
BITMAP
1BF800
7FFE00
BABF00
007E00
01F800
1FD000
7E0000
FC001B
FEABBF
BFFFF8
2FFFD0
01FF00
0BFE00
2E3D00
7C7C00
7EF800
7FE000
2F8000
ENDCHAR
STARTCHAR uni0496
ENCODING 1174
SWIDTH 1234 0
DWIDTH 30 0
BBX 33 28 0 -8
BITMAP
001BE0007D001FE400
00FFFC00FD00BFFC00
01FAFE00FD01FEBD00
00807F01FD03F42800
00002F81FC0BE00000
00001F81FC0FD00000
00000FC2F83F800000
00000BE2F9FF000000
000002FFFFF8000000
000001FFFFD0000000
00001FFFFFF4000000
00003FD7F2FC000000
0000BF0BE0FD000000
0001FD0BE0BF000000
0002F80FD07F400000
2807F00FD03FC00000
7E0BE00FC01FE50B80
7FAFC01FC00BFFFF40
2FFF001FC002FFFD00
0BF8001F40007FE000
000000000001FF8000
00000000000BFF4000
00000000003F9F4000
0000000000BD2F0000
0000000000FC7E0000
0000000000FEFD0000
0000000000BFF40000
00000000002F900000
ENDCHAR
STARTCHAR uni0497
ENCODING 1175
SWIDTH 803 0
DWIDTH 19 0
BBX 22 18 0 -7
BITMAP
02E47C1F8000
0BFCBCBFE000
0FBEF9FAF000
0A1FFBE1F000
001FFBD1D000
041FFFD00000
3D2FBFD00000
7D3DFFE001E0
BEBCFAFAABE0
7FF4F4FFFF40
1F90B06FF800
0000001FE000
000000BBD000
000002D7C000
0000078B8000
00000BAF4000
00000BFD0000
000002F40000
ENDCHAR
STARTCHAR uni0498
ENCODING 1176
SWIDTH 725 0
DWIDTH 17 0
BBX 16 28 1 -8
BITMAP
001AFE40
00BFFFE0
03FEAFF4
07F403F8
0BD002F8
0BD002F8
07D003F4
014007E0
00001F80
001BFF90
002FFBF4
001541FC
000000FD
7D0000FE
BE0001FD
BE0002FD
7F400BF8
3FEABFE0
1FFFFF80
01BFFE00
000BFE00
007FBD00
01FCBC00
02F4BC00
03F1F800
03FBF000
03FFD000
00BE4000
ENDCHAR
STARTCHAR uni0499
ENCODING 1177
SWIDTH 445 0
DWIDTH 11 0
BBX 14 18 0 -7
BITMAP
02FE4000
0FFFE000
2FABF000
2E03E000
001BC000
00FE0000
006FD040
3807D7D0
7EAFEFC0
3FFFFE00
0BFFE400
006F8000
02FF4000
07DF4000
0F5F0000
1FBE0000
0FFC0000
07E00000
ENDCHAR
STARTCHAR uni049A
ENCODING 1178
SWIDTH 937 0
DWIDTH 22 0
BBX 26 28 0 -8
BITMAP
001BFE9000B800
01FFFFF001FC00
07FAAFF002F800
0FD01FC003F400
1F802FC00BF000
1F402F801FD000
1F802F802F8000
0FC03F40BF0000
06403F46F80000
0001BFAFE00000
0003FFFE400000
0003FFFE400000
0000BE7FC00000
0000BD1FE00000
1400FD0BF40000
7C01FC03F80040
7E02F802FE56D0
3FABF400FFFFD0
1FFFD0007FFE40
02FE40001FF400
00000000BFD000
00000007FFD000
0000001FDBC000
0000003F4FC000
0000007F1F4000
0000007FBF0000
0000003FFD0000
0000001BE40000
ENDCHAR
STARTCHAR uni049B
ENCODING 1179
SWIDTH 531 0
DWIDTH 13 0
BBX 14 18 1 -7
BITMAP
1F0BE000
3F2FF800
7EBEBC00
7DF87C00
BEF47800
BFF00000
BFF40000
BFF400B0
BEFE77F0
BD7FFF90
3C0BFD00
001BF000
007FE000
01F2E000
03D7C000
07EF8000
03FF0000
01F80000
ENDCHAR
STARTCHAR uni049C
ENCODING 1180
SWIDTH 937 0
DWIDTH 22 0
BBX 26 20 0 0
BITMAP
001BFE9000B800
01FFFFF001FC00
07FAAFF002F800
0FD01FC003F400
1F802FC00BF000
1F402F841FD000
1F802FAD3F8000
0FC03F6DBF0000
06403F7FF80000
0001BFBFE00000
0003FFFE400000
0003FFFE400000
0000BEBFC00000
0000BEBFE00000
1000FDBFF40040
7C01FCB7F801E0
7E02F872FE07D0
3FABF400FFFF80
1FFFD0007FFE00
02FE40001BE400
ENDCHAR
STARTCHAR uni049D
ENCODING 1181
SWIDTH 485 0
DWIDTH 12 0
BBX 14 11 1 0
BITMAP
1F06F400
3F0FFD00
7E2FBD00
7EBD3D00
BEBC2800
BFF80050
BFF801E0
BFFC03E0
BFFFAFC0
BE6FFE00
380BF800
ENDCHAR
STARTCHAR uni049E
ENCODING 1182
SWIDTH 937 0
DWIDTH 22 0
BBX 26 20 0 0
BITMAP
001BFE9000B800
01FFFFF001FC00
07FAAFF002F800
0FD01FC003F400
1F801FC00BF000
1F47FFFC1FD000
1F8BFFFC2F8000
0FC17F94BF0000
06403F46F80000
0001BFAFE00000
0003FFFE400000
0003FFFE400000
0000BE7FC00000
0000BD1FE00000
1000FD0BF40040
7C01FC03F801E0
7E02F802FE07D0
3FABF400FFFF80
1FFFD0007FFE00
02FE40001BE400
ENDCHAR
STARTCHAR uni049F
ENCODING 1183
SWIDTH 473 0
DWIDTH 11 0
BBX 14 20 1 0
BITMAP
01E00000
03F00000
07F00000
0BE00000
BFFFD000
BFFFE000
2FD54000
2F800000
2F400000
3F07E400
3F2FFC00
7E7EBD00
7EFC7C00
7EF47800
BFF40000
BFF401D0
BFF807D0
BFBEAF80
7E3FFE00
2D0BE400
ENDCHAR
STARTCHAR uni04A0
ENCODING 1184
SWIDTH 937 0
DWIDTH 22 0
BBX 26 20 0 0
BITMAP
0000055000B800
0BFFFFF001FC00
0BFFFFF002F800
01556FC003F400
00002FC00BF000
00002F801FD000
00002F802F8000
00003F40BE0000
00003F46F80000
0001BFAFE00000
0003FFFE400000
0003FFFE400000
0000BE7FC00000
0000BD1FE00000
1000FD0BF40040
7C01FC03F801E0
7E02F802FE07D0
3FABF400FFFF80
1FFFD0007FFE00
02FE40001BE400
ENDCHAR
STARTCHAR uni04A1
ENCODING 1185
SWIDTH 555 0
DWIDTH 13 0
BBX 16 12 1 0
BITMAP
50000000
FFF07E40
BFF2FFC0
17E7EBC0
07EFC7C0
07EF4780
0BFF4000
0BFF401D
0BFF807D
0BFBEAF8
07E3FFE0
02D0BE40
ENDCHAR
STARTCHAR uni04A2
ENCODING 1186
SWIDTH 907 0
DWIDTH 22 0
BBX 26 29 -1 -8
BITMAP
0000000002F800
006F80000BFD00
06FFF0001FAE00
1FEBF4003F1E00
3E03F400BD1E00
7803F400FC1E00
2003F401F83D00
0003F402F47800
0003F003F6F400
0007F003FFD000
005BFAAFFE0000
02FFFFFFF40000
01FFEA5BE00000
001FD00BE00000
001FC00BE00000
002F8007F00000
003F8007F40050
003F4003FD52E0
007F0002FFFFD0
007E0000BFFF40
007D00001FF800
000000007FE000
00000002FFE000
0000000FE7D000
0000002F8BC000
0000003F0F8000
0000003FBF4000
0000002FFE0000
0000000BF40000
ENDCHAR
STARTCHAR uni04A3
ENCODING 1187
SWIDTH 515 0
DWIDTH 12 0
BBX 14 18 1 -7
BITMAP
1F01E000
3F03E000
7E07E000
7D0BD000
BFFFC000
BFFFC000
BD5F8000
BC0F81E0
BC0FFBE0
BC0BFF40
3807F800
002FE000
00BFD000
02E7C000
078B8000
0BEF4000
0BFE0000
02F40000
ENDCHAR
STARTCHAR uni04A4
ENCODING 1188
SWIDTH 873 0
DWIDTH 21 0
BBX 28 21 -1 0
BITMAP
00000000005550
006F800007FFFD
02FFE0001FFFFE
0FEBF4002F8014
3E03F4007F0000
7803F400FD0000
2003F401FC0000
0003F402F80000
0003F002F40000
0007F003F40000
0007F55BF00000
01FFFFFFF00000
02FFFFFFE00000
006FD00BE00000
001FC00BE00000
002F800BE00000
002F8007F002C0
003F4003F40BC0
007F0002FEBF40
007E0000FFFD00
007D00002FE000
ENDCHAR
STARTCHAR uni04A5
ENCODING 1189
SWIDTH 475 0
DWIDTH 11 0
BBX 14 12 1 0
BITMAP
00001E00
1F01FF00
3F03F400
7E07E000
7D07D000
BFFFC000
BFFFC040
BD5F81D0
BC0F87D0
BC0FEF80
BC0FFE00
3807E400
ENDCHAR
STARTCHAR uni04A8
ENCODING 1192
SWIDTH 997 0
DWIDTH 24 0
BBX 26 20 1 0
BITMAP
0006F800000000
002FFC00000000
00FFF41BF90000
02FE00BFFF8000
0BF403FFFFE000
0FE00BF40BF400
1FC01FD003F800
3F802FC002FC00
3F403F8001FC00
7F407F4001FC00
7F007F4001FC00
7F007F4002F800
7F003F4003F400
7F403F800BF000
3F802FD01FD000
2FD00FF0BF4050
0FF407FFFD1BF0
07FFFFFFFFFFE0
01BFFFFFFFFF40
001AFFA6BFA400
ENDCHAR
STARTCHAR uni04A9
ENCODING 1193
SWIDTH 574 0
DWIDTH 14 0
BBX 17 11 0 0
BITMAP
01BC000000
07FC7E0000
1FD2FF8000
2F47EBC000
3F0B83D000
3E0F87C040
7E0F8B8380
3F0BAF5F80
2F9BFFBF00
0FFFFFF800
02FEBF9000
ENDCHAR
STARTCHAR uni04AA
ENCODING 1194
SWIDTH 781 0
DWIDTH 19 0
BBX 21 31 1 -11
BITMAP
0001BF900000
001FFFF80000
00BFEAFD0000
02FD00BE0000
07F4007E0000
0FE0007E0000
1FC000BE0000
2F8000780000
3F4000000000
7F4000000000
7F4000000000
7F0000000000
7F0000000000
7F4000000000
3F8000010000
2FC0001E0740
1FE000BE2F40
07FEABFEFE00
01FFFFFFF400
001BF9BF8000
000001FD0000
00000BFC0000
00002FF80000
0000BDF40000
0001F1F40000
0003D2F00000
000783D00000
000B8BC00000
000BEF800000
0007FE000000
0002F8000000
ENDCHAR
STARTCHAR uni04AB
ENCODING 1195
SWIDTH 431 0
DWIDTH 10 0
BBX 13 19 0 -8
BITMAP
01BE0000
07FF8000
0FEF8000
2F4B8000
3F0B4000
3F000000
7F000000
3F400780
2FEAAF80
1FFFFE00
06FFF400
007F8000
02FF4000
0B9F4000
1F1F0000
2E7D0000
2FFC0000
1FF00000
05400000
ENDCHAR
STARTCHAR uni04AC
ENCODING 1196
SWIDTH 697 0
DWIDTH 17 0
BBX 21 28 1 -8
BITMAP
005AFFFFFE40
0BFFFFFFFF80
3FEABF95AA00
BE007F000000
F800BF000000
F800BE000000
FC00FE000000
7C00FD000000
0001FC000000
0002FC000000
0002F8000000
0003F8000000
0003F4000000
0003F4000000
0007F0000000
0007F0000000
000BF0000000
000BFE000000
000BFF000000
0007FE000000
001FFE000000
007E7D000000
01F87C000000
02F4BC000000
03F1F4000000
03FFF0000000
01FFC0000000
001500000000
ENDCHAR
STARTCHAR uni04AD
ENCODING 1197
SWIDTH 784 0
DWIDTH 19 0
BBX 21 18 1 -7
BITMAP
1F07D06E0000
3F2FE1FF0000
7E7FE7FF0000
7DFBEFBE0000
BED7EE7E0000
BFCBFC7D0000
BF4BF4BC0000
BF0BF0BC0B40
BE0BE0BFBF00
BD0BD07FF900
3C07802FD000
000001FF0000
000007FF0000
00001F6E0000
00003D7D0000
00007EF80000
00003FF00000
00001F800000
ENDCHAR
STARTCHAR uni04AE
ENCODING 1198
SWIDTH 677 0
DWIDTH 16 0
BBX 15 20 3 0
BITMAP
7D0001F8
BF0003F8
7F400BF0
3F801FD0
1FD03F80
0FE07F00
0BF0FD00
07F6F800
02FFF000
01FFD000
00FF8000
00BF4000
007F0000
007F0000
007E0000
007E0000
007E0000
00BE0000
00BE0000
007D0000
ENDCHAR
STARTCHAR uni04AF
ENCODING 1199
SWIDTH 472 0
DWIDTH 11 0
BBX 14 19 1 -8
BITMAP
7802E000
BC0BF000
BD0FF000
7D1FF000
7E0FEAD0
7E0FFFD0
3E2FBF80
3F3E0000
3FBC0000
2FF40000
2FD00000
2F800000
2F800000
1F800000
1F800000
1F800000
1F800000
0F800000
0B400000
ENDCHAR
STARTCHAR uni04B0
ENCODING 1200
SWIDTH 677 0
DWIDTH 16 0
BBX 15 20 3 0
BITMAP
7D0001F8
BF0003F8
7F400BF0
3F801FD0
1FD03F80
0FE0BF00
0BF1FD00
03F6F800
02FFF000
01FFD000
00BF8000
05BF9400
1FFFFC00
1FFFF800
007E0000
007E0000
007E0000
00BE0000
00BE0000
007D0000
ENDCHAR
STARTCHAR uni04B1
ENCODING 1201
SWIDTH 472 0
DWIDTH 11 0
BBX 15 19 0 -8
BITMAP
1E00B800
2F02FC00
2F43FC00
1F47FC00
1F83FAB4
1F83FFF4
0F8BEFE0
0FCF8000
0FEF0000
0BFD0000
1FF90000
BFFF4000
7FFF4000
07E00000
07E00000
07E00000
07E00000
03E00000
02D00000
ENDCHAR
STARTCHAR uni04B2
ENCODING 1202
SWIDTH 716 0
DWIDTH 17 0
BBX 21 28 -1 -8
BITMAP
00BF80007D00
07FFF002FD00
1FABF807F800
2E02FC1FE000
1401FD3F8000
0000FEFE0000
0000BFFC0000
00007FF00000
00003FD00000
00007F800000
0001FFC00000
0007FFD00000
000FEFE00000
003FCBF00000
00BF07F00000
02FD03F80040
0BF402FD47C0
1FE001FFEFC0
7F8000BFFE00
7E00002FF400
000000BFD000
000007FFC000
00001FDF8000
00007F0F8000
00007E2F4000
0000BEBE0000
00007FFC0000
00001BE00000
ENDCHAR
STARTCHAR uni04B3
ENCODING 1203
SWIDTH 601 0
DWIDTH 14 0
BBX 17 19 0 -8
BITMAP
02F42F4000
0BFEFFC000
0FBFFBC000
0B1FD74000
001FC00000
041FC00000
3D2F800000
7D3FC00280
BEBFE69F80
7FFBFFFE00
1F92FFF400
00006F8000
0001FF8000
000BDF4000
001F1F0000
002E3E0000
002FFC0000
001FF40000
0001400000
ENDCHAR
STARTCHAR uni04B4
ENCODING 1204
SWIDTH 1040 0
DWIDTH 25 0
BBX 27 28 1 -8
BITMAP
006AFFFA41F000
0BFFFFFFC2F800
3FEABFEA83F800
BE003F8003F400
FC007F4003F400
F8007F0007F000
FC00BE000BF000
BD00FE000BE000
2401FD000FE000
0001FC001FD000
0002FC002FD000
0003F8003FD000
0003F4007FC000
0007F400FFC000
0007F001EFC000
0007F0039FC000
0007F01F5FD418
0007FEBD1FFDFC
0002FFF40BFFF4
0000BF9001BF80
000000000BFC00
000000007FF800
00000002F9F800
00000007E1F400
0000000BD2F000
0000000BEBE000
00000007FF8000
00000002FE0000
ENDCHAR
STARTCHAR uni04B5
ENCODING 1205
SWIDTH 501 0
DWIDTH 12 0
BBX 14 23 1 -7
BITMAP
01555000
07FFF400
07FFE000
00000000
00000000
1F02D000
3F07D000
3E0BD000
7E0FC000
BD1F8000
BD2F8000
BC3F4000
BCBF4190
BFEF9BD0
7FCFFF80
2E07F900
002FD000
01FBC000
07D78000
0B4F4000
0FAF0000
0FFD0000
07E40000
ENDCHAR
STARTCHAR uni04B6
ENCODING 1206
SWIDTH 804 0
DWIDTH 19 0
BBX 20 28 2 -8
BITMAP
0B80002D00
1FC0007E00
1FD000BE00
1FC000BE00
1FC000FD00
2FC000FD00
2F8001FD00
3F8002FC00
7F4003FC00
7F400BF800
7F401FF800
3F81BEF800
2FFFF6F400
0BFFD2F400
005503F400
000003F000
000003FA4B
000003FFBF
000001BFFD
0000002FE0
000001FF40
00000BFF00
00007F6F00
0000FD3E00
0001F87D00
0001FEFC00
0000FFF400
00006F9000
ENDCHAR
STARTCHAR uni04B7
ENCODING 1207
SWIDTH 631 0
DWIDTH 15 0
BBX 19 20 -1 -7
BITMAP
0005000000
001FC00000
002FEAB400
003EFFF800
007CBFE000
00F81F8000
01F4BD0000
03E2F40000
0BC3E00000
2F47E00078
7D07FABAF4
2403FFFFD0
0001BFFE00
00000BF400
00007EF000
0000F5F000
0002E2E000
0003EBC000
0002FF4000
0000B90000
ENDCHAR
STARTCHAR uni04B8
ENCODING 1208
SWIDTH 773 0
DWIDTH 19 0
BBX 16 20 2 0
BITMAP
0B80002D
1FC0007E
1FD000BE
1FC000BE
1FC000FD
2FC000FD
2F8741FD
3F8782FC
3F4B83FC
7F4B4BF8
7F4F5FF8
7F9FBEF8
3FFFFAF4
1FFFE2F4
06FE43F0
002E03F0
001D07F0
000407E0
00000BE0
000007D0
ENDCHAR
STARTCHAR uni04B9
ENCODING 1209
SWIDTH 575 0
DWIDTH 14 0
BBX 18 14 -1 0
BITMAP
0000040000
000B4D0000
002FED0000
003FFEBC00
007DFFFC00
00BDDBF400
00F82FD000
02F4BE0000
07E1F80060
0F82F401F0
2F03F00BE0
7C03FEBF80
1001FFFE00
00006FE400
ENDCHAR
STARTCHAR uni04BA
ENCODING 1210
SWIDTH 755 0
DWIDTH 18 0
BBX 19 20 2 0
BITMAP
07D0000000
0BE0000000
0BE0000000
0FE0000000
0FD0000000
0FD0000000
1FC0000000
1FC0000000
2F80000000
2F82BF8000
3F6FFFE000
3FBEAFF400
7FF403F800
7FC003F800
BF4003F404
BE0007F41C
FE0007F07C
FD0007FAF4
FD0007FFD0
B80001FE00
ENDCHAR
STARTCHAR uni04BB
ENCODING 1211
SWIDTH 502 0
DWIDTH 12 0
BBX 14 22 1 0
BITMAP
002F4000
00FFC000
02FBD000
03E3D000
0BC3D000
0F87C000
1F4B8000
2F4F4000
2F2E0000
3E3C0000
3EF40000
7FE6E000
7F9FF400
BE7FF000
BDBBF000
BEE3E000
BFC7E010
BF87D0B0
BF4BD2F0
BF0BEBD0
BE07FF40
7802F800
ENDCHAR
STARTCHAR uni04BC
ENCODING 1212
SWIDTH 808 0
DWIDTH 19 0
BBX 22 20 1 0
BITMAP
00001AFE4000
0000BFFFD000
0002FEAFF000
000BF403F400
002FD002F800
003F8001F800
00BF0001F800
24FE0002F800
BDFD0003F400
BFFFFFFFF400
7FFFFFFFE000
06FD55554000
02FC00000000
01FD00000000
00FE00000000
00BF40000000
007FD00007D0
001FFEAAFFD0
0006FFFFFE40
00006BFE9000
ENDCHAR
STARTCHAR uni04BD
ENCODING 1213
SWIDTH 483 0
DWIDTH 12 0
BBX 15 11 0 0
BITMAP
000BE400
007FFC00
00FEBD00
02F47D00
13F0BC00
BBF6F400
BFFF9078
1BF802F8
01FEAFE0
00BFFF80
001BF900
ENDCHAR
STARTCHAR uni04BE
ENCODING 1214
SWIDTH 808 0
DWIDTH 19 0
BBX 22 26 1 -6
BITMAP
00001AFE4000
0000BFFFD000
0002FEAFF000
000BF403F400
002FD002F800
003F8001F800
00BF0001F800
24FE0002F800
BDFD0003F400
BFFFFFFFF400
7FFFFFFFE000
06FD55554000
02FC00000000
01FD00000000
01FE00000000
00BF40000000
007FD00007D0
001FFEAAFFD0
0007FFFFFE40
0000FFFE9000
0002F0000000
0003D0000000
0007D0000000
0003FA800000
0002FFC00000
0000BF400000
ENDCHAR
STARTCHAR uni04BF
ENCODING 1215
SWIDTH 483 0
DWIDTH 12 0
BBX 15 17 0 -6
BITMAP
000BE400
007FFC00
00FEBD00
01F87D00
12F07D00
B7F2F800
BFFFE028
2FF900B8
02F91BF4
00FFFFD0
002FFE00
0007D000
000F8000
000F4000
000F8100
000BFF00
0002FE00
ENDCHAR
STARTCHAR uni04C0
ENCODING 1216
SWIDTH 495 0
DWIDTH 12 0
BBX 15 20 -1 0
BITMAP
00BFFFF0
02FFFFF4
00ABFA90
0007F400
0007F000
0007F000
000BE000
000BE000
000FD000
000FD000
001FC000
001FC000
002F8000
002F8000
003F4000
003F4000
007F4000
16BFA400
7FFFFE00
7FFFFD00
ENDCHAR
STARTCHAR uni04C1
ENCODING 1217
SWIDTH 1234 0
DWIDTH 30 0
BBX 32 27 0 0
BITMAP
00000005002C0000
0000000F807C0000
0000000BD5F80000
00000007FFF00000
00000001BE400000
0000000000000000
0000000000000000
001BE0007D001FE4
00FFFC00FD00BFFC
01FAFE00FD01FEBD
00807F01FD03F428
00002F81FC0BE000
00001F81FC0FD000
00000FC2F83F8000
00000BE2F9FF0000
000002FFFFF80000
000001FFFFD00000
00000FFFFFF40000
00003FD7F2FC0000
0000BF0BE0FD0000
0001FD0BE0BE0000
0002F80FD07F4000
1407F00FD03F800A
7D0BE00FC01FD02E
7FAFC01FC00BFAFC
2FFF001FC003FFF4
0BF8001F4000BF80
ENDCHAR
STARTCHAR uni04C2
ENCODING 1218
SWIDTH 717 0
DWIDTH 17 0
BBX 21 19 0 0
BITMAP
000000140000
0005003C0000
000F80B80000
000FEBF40000
000BFFD00000
0001FE400000
000000000000
000000000000
02E47C1F8000
0BFCBCBFE000
0FBEF9FAF000
0A1FFBE1F000
001FFBD1D000
041FFFD00100
3D2FBFD00B40
7D3DFFE02F00
BEBCFAFABD00
7FF4F4BFF800
1F90B02F9000
ENDCHAR
STARTCHAR uni04C3
ENCODING 1219
SWIDTH 937 0
DWIDTH 22 0
BBX 26 28 0 -8
BITMAP
001BFE9000B800
01FFFFF001FC00
07FAAFF002F800
0FD01FC003F400
1F802FC00BF000
1F402F801FD000
1F802F802F8000
0FC03F40BF0000
06403F46F80000
0001BFAFE00000
0003FFFE400000
0003FFFE400000
0000BE7FC00000
0000BD1FE00000
1400FD0BF40000
7C01FC03F80040
7E02F802FE56D0
3FABF400FFFFD0
1FFFD0007FFE40
02FE40001FF400
00000000BFD000
00000007FFD000
0000001FDBC000
0000003F4FC000
0000007F1F4000
0000007FBF0000
0000003FFD0000
0000001BE40000
ENDCHAR
STARTCHAR uni04C4
ENCODING 1220
SWIDTH 531 0
DWIDTH 13 0
BBX 14 18 1 -7
BITMAP
1F0BE000
3F2FF800
7EBEBC00
7DF87C00
BEF47800
BFF00000
BFF40000
BFF400B0
BEFE77F0
BD7FFF90
3C0BFD00
001BF000
007FE000
01F2E000
03D7C000
07EF8000
03FF0000
01F80000
ENDCHAR
STARTCHAR uni04C5
ENCODING 1221
SWIDTH 861 0
DWIDTH 21 0
BBX 24 25 0 -5
BITMAP
0000001B8000
0000003FC000
0000007FC000
000000BFC000
000000FFC000
000001FFC000
000002FFC000
000003FFC000
000007EF8000
00000BEF8000
00000FDF8000
00002F9FC000
00003F1FC000
00007E1FC000
1000FD0FD001
BC02F80FD00E
BD0BF40BF07E
7FAFD007FFFC
2FFF8002FFF0
06F900007FC0
000000003F40
00000000BD00
00000001F800
00000003F400
00000002D000
ENDCHAR
STARTCHAR uni04C6
ENCODING 1222
SWIDTH 549 0
DWIDTH 13 0
BBX 16 15 0 -4
BITMAP
0001F800
0003FC00
0007FC00
000FFC00
001FFC00
282FBC01
BC7DFC0B
FCFCBC2E
FEF4BEBD
BFE07FF4
2F402FD0
00002F40
00007E00
0000FC00
0000B400
ENDCHAR
STARTCHAR uni04C7
ENCODING 1223
SWIDTH 907 0
DWIDTH 22 0
BBX 26 29 -1 -8
BITMAP
0000000002F800
006F80000BFD00
06FFF0001FAE00
1FEBF4003F1E00
3E03F400BD1E00
7803F400FC1E00
2003F401F83D00
0003F402F47800
0003F003F6F400
0007F003FFD000
005BFAAFFE0000
02FFFFFFF40000
01FFEA5BE00000
001FD00BE00000
001FC00BE00000
002F8007F00000
003F8007F40050
003F4003FD52E0
007F0002FFFFD0
007E0000BFFF40
007D00001FF800
000000007FE000
00000002FFE000
0000000FE7D000
0000002F8BC000
0000003F0F8000
0000003FBF4000
0000002FFE0000
0000000BF40000
ENDCHAR
STARTCHAR uni04C8
ENCODING 1224
SWIDTH 515 0
DWIDTH 12 0
BBX 14 18 1 -7
BITMAP
1F01E000
3F03E000
7E07E000
7D0BD000
BFFFC000
BFFFC000
BD5F8000
BC0F81E0
BC0FFBE0
BC0BFF40
3807F800
002FE000
00BFD000
02E7C000
078B8000
0BEF4000
0BFE0000
02F40000
ENDCHAR
STARTCHAR uni04C9
ENCODING 1225
SWIDTH 873 0
DWIDTH 21 0
BBX 25 26 -1 -5
BITMAP
0000000002F800
006F80000BFD00
06FFF0001FAE00
1FEBF4003F1E00
3E03F400BD1E00
7803F400FC1E00
2003F401F83D00
0003F402F47800
0003F003F6F400
0007F003FFD000
005BFAAFFE0000
02FFFFFFF40000
01FFEA5BE00000
001FD00BE00000
001FC00BE00000
002F8007F00080
003F8007F003C0
003F4003F81F80
007F0002FFFF00
007E0000BFFC00
007D00002FF400
000000000FD000
000000002F8000
000000007F0000
00000000BD0000
00000000780000
ENDCHAR
STARTCHAR uni04CA
ENCODING 1226
SWIDTH 475 0
DWIDTH 11 0
BBX 14 15 1 -4
BITMAP
1F01E000
3F03E000
7E07E000
7D07D000
BFFFC000
BFFFC040
BD5F81D0
BC0F87D0
BC0FEF80
BC0FFE00
3807F800
0003E000
000BC000
001F4000
001E0000
ENDCHAR
STARTCHAR uni04CB
ENCODING 1227
SWIDTH 773 0
DWIDTH 19 0
BBX 16 28 2 -8
BITMAP
0B80002D
1FC0007E
1FD000BE
1FC000BE
1FC000FD
2FC000FD
3F8001FD
3F4002FC
7F4007FC
7F400FF8
7F402FF8
3FEAFEF8
1FFFF2F4
06FE42F4
000003F0
000007F0
000007F0
00002FE0
0000BFE0
0002FFD0
001FFC00
00BEBC00
02F8F800
07F0F400
07E2F000
0BFBE000
07FFC000
01BE0000
ENDCHAR
STARTCHAR uni04CC
ENCODING 1228
SWIDTH 555 0
DWIDTH 13 0
BBX 18 16 -1 -3
BITMAP
000B400000
002FD00000
003FFFF400
007DFFF800
00BC1FE000
00F82F8000
02F0FD0000
07D2F40040
0F87E002D0
2F07E01BD0
7C07FABF40
1003FFFD00
0000BFF400
000001F400
000000F000
0000005000
ENDCHAR
STARTCHAR uni04CD
ENCODING 1229
SWIDTH 1133 0
DWIDTH 27 0
BBX 31 25 0 -5
BITMAP
000002F4007E0000
00000BF800FF4000
00000BF801FF4000
00000FF802FF0000
00001FF807FF0000
00001FF80BFF0000
00002FF80FBF0000
00003FF81FBE0000
00003EF83F7E0000
00007DF87E7E0000
0000BDF8BD7E0000
0000FCF8FC7E0000
0000F8FDF87E0000
0001F4BDF47E0000
0002F0BFF07F0000
B807E0BFD07F0074
BD0BD07FC03F41F0
BFAF803F802FEBE0
3FFF003F400FFF80
0BF8001F0002FE00
000000000002F800
000000000007F000
00000000000FD000
00000000001F8000
00000000001E0000
ENDCHAR
STARTCHAR uni04CE
ENCODING 1230
SWIDTH 734 0
DWIDTH 18 0
BBX 21 15 0 -4
BITMAP
0002E02E0000
000BF0BF4000
000FF1FF4000
001FF2FF0000
002EF7EF0000
283EFB9F0000
BC7DFF6F0380
FCF8FF2F4B80
FEF4FE1FAE00
BFE0BD1FFC00
2F40780BF000
0000000BC000
0000002F4000
0000003E0000
000000780000
ENDCHAR
STARTCHAR uni04CF
ENCODING 1231
SWIDTH 222 0
DWIDTH 5 0
BBX 6 19 1 0
BITMAP
02E0
07E0
0BD0
0FD0
0FC0
1FC0
1F80
2F40
2F40
3F00
3F00
7E00
7E00
BD00
BD00
FC00
FC00
FC00
F800
ENDCHAR
STARTCHAR uni04D0
ENCODING 1232
SWIDTH 786 0
DWIDTH 19 0
BBX 21 27 1 0
BITMAP
000005007400
00001F00F400
00001F96F000
00000FFFD000
000002FE4000
000000000000
000000000000
00001AFFA400
0002FFFFFC00
001FFFAFF800
00BFD0001000
02FE001F4000
07F8003F8000
0FE0003F4000
1FD0007F0000
3F8000BE0000
3F4000BE0000
7F0000FD0000
BF0001FD0000
BF0002FC0000
BF0003FC0000
BF000BFC0040
7F401FFC02C0
3FC07EFD0B80
1FFBF9FFBF40
0BFFE0BFFD00
01BE402FE000
ENDCHAR
STARTCHAR uni04D1
ENCODING 1233
SWIDTH 470 0
DWIDTH 11 0
BBX 14 19 1 0
BITMAP
00001400
05003C00
0F80B800
0FEBF400
0BFFD000
01FE4000
00000000
00000000
01BC0000
07FFD000
1FEBD000
3F4BD000
BE0FC000
FC0F8000
FC1F81D0
FC2F87D0
FEBFEF80
BFFBFE00
2F82F400
ENDCHAR
STARTCHAR uni04D2
ENCODING 1234
SWIDTH 786 0
DWIDTH 19 0
BBX 21 26 1 0
BITMAP
00000B42D000
00002FCBF000
00002FCBF000
00001F47D000
000000000000
000000000000
00001AFFA400
0002FFFFFC00
001FFFAFF800
00BFD0001000
02FE001F4000
07F8003F8000
0FE0003F4000
1FD0007F0000
3F8000BE0000
3F4000BE0000
7F0000FD0000
BF0001FD0000
BF0002FC0000
BF0003FC0000
BF000BFC0040
7F401FFC02C0
3FC07EFD0B80
1FFBF9FFBF40
0BFFE0BFFD00
01BE402FE000
ENDCHAR
STARTCHAR uni04D3
ENCODING 1235
SWIDTH 470 0
DWIDTH 11 0
BBX 14 17 1 0
BITMAP
02D0B400
07F2FC00
0BE2F800
07D1F400
00000000
00000000
01BC0000
07FFD000
1FEBD000
3F4BD000
BE0FC000
FC0F8000
FC1F81D0
FC2F87D0
FEBFEF80
BFFBFE00
2F82F400
ENDCHAR
STARTCHAR uni04D4
ENCODING 1236
SWIDTH 1015 0
DWIDTH 24 0
BBX 27 20 1 0
BITMAP
00006B81FFFF80
0007FFD7FFFF80
002FFF8BEAAA00
00BFD00FD00000
02FE001FC00000
07F8002F800000
0FE0003F800000
1FD0007F400000
3F80007F000000
7F4000BFFFFC00
7F0000FFFFFC00
BF0001FEAAA400
BF0002FD000000
BF0003FD000000
BF000BFD000000
7F400FFE000010
3F802FBF4001F4
1FFAFD3FFAAFF0
0BFFF41FFFFF90
01BF8001BFE900
ENDCHAR
STARTCHAR uni04D5
ENCODING 1237
SWIDTH 653 0
DWIDTH 16 0
BBX 18 11 1 0
BITMAP
00AF2F9000
07FFFFF400
2FEBFAF400
7F47E0F400
BD0BC1F400
FC0FDBD000
FC1FFE41E0
FC2FE00BE0
FEBFFABFC0
7FF6FFFE00
1F906FE400
ENDCHAR
STARTCHAR uni04D6
ENCODING 1238
SWIDTH 686 0
DWIDTH 16 0
BBX 20 27 0 0
BITMAP
0000500740
0001F00F40
0001F96F00
0000FFFD00
00002FE400
0000000000
0000000000
0001BFE400
001FFFFE00
00BFEABF80
01FE001FC0
02FC000FC0
03F8001FC0
02F8001F80
01FD000A00
00BFE80000
002FFD0000
02FFFD0000
0BF9000000
2FD0000000
3F80000000
7F40000000
3F80000004
3FD00001BD
1FFEAABFFD
06FFFFFFE4
006BFFE900
ENDCHAR
STARTCHAR uni04D7
ENCODING 1239
SWIDTH 393 0
DWIDTH 9 0
BBX 12 19 1 0
BITMAP
000050
1400F0
3E02E0
3FAFD0
2FFF40
07F900
000000
000000
06F800
1FFF00
7FBF40
BD1F40
FC2F00
F9FD04
FFE01D
FE00BD
BFABF8
3FFFE0
0AFA00
ENDCHAR
STARTCHAR uni04D8
ENCODING 1240
SWIDTH 792 0
DWIDTH 19 0
BBX 18 20 1 0
BITMAP
001AFE8000
00BFFFF800
03FEABFE00
0BE000BF40
0B40003FC0
0000001FD0
0000000FD0
0000000FE0
0000000FE0
1AAAAAAFD0
7FFFFFFFD0
BFFFFFFFD0
BF00002FC0
7F00003F80
7F40007F40
3F8000FE00
2FE007FC00
0BFEAFF000
02FFFF8000
006FF90000
ENDCHAR
STARTCHAR uni04D9
ENCODING 1241
SWIDTH 455 0
DWIDTH 11 0
BBX 14 11 0 0
BITMAP
06FE4000
1FFFE000
1AABF400
0002F860
2FFFFFF0
3FFFFFF0
7E56F940
7D02F400
7FAFF000
2FFFC000
06FA0000
ENDCHAR
STARTCHAR uni04DA
ENCODING 1242
SWIDTH 792 0
DWIDTH 19 0
BBX 18 26 1 0
BITMAP
000781E000
000FD3F400
000FD3F400
000B82E000
0000000000
0000000000
001AFE8000
00BFFFF800
03FEABFE00
0BE000BF40
0B40003FC0
0000001FD0
0000000FD0
0000000FE0
0000000FE0
1AAAAAAFD0
7FFFFFFFD0
BFFFFFFFD0
BF00002FC0
7F00003F80
7F40007F40
3F8000FE00
2FE007FC00
0BFEAFF000
02FFFF8000
006FF90000
ENDCHAR
STARTCHAR uni04DB
ENCODING 1243
SWIDTH 455 0
DWIDTH 11 0
BBX 14 17 0 0
BITMAP
02D0B400
0BE2F800
0BE2F800
07D1F400
00000000
00000000
06FE4000
1FFFE000
1AABF400
0002F860
2FFFFFF0
3FFFFFF0
7E56F940
7D02F400
7FAFF000
2FFFC000
06FA0000
ENDCHAR
STARTCHAR uni04DC
ENCODING 1244
SWIDTH 1234 0
DWIDTH 30 0
BBX 32 26 0 0
BITMAP
00000007C1F00000
0000000FE3F80000
0000000FD3F40000
0000000B82E00000
0000000000000000
0000000000000000
001BE0007D001FE4
00FFFC00FD00BFFC
01FAFE00FD01FEBD
00807F01FD03F428
00002F81FC0BE000
00001F81FC0FD000
00000FC2F83F8000
00000BE2F9FF0000
000002FFFFF80000
000001FFFFD00000
00000FFFFFF40000
00003FD7F2FC0000
0000BF0BE0FD0000
0001FD0BE0BE0000
0002F80FD07F4000
1407F00FD03F800A
7D0BE00FC01FD02E
7FAFC01FC00BFAFC
2FFF001FC003FFF4
0BF8001F4000BF80
ENDCHAR
STARTCHAR uni04DD
ENCODING 1245
SWIDTH 717 0
DWIDTH 17 0
BBX 21 17 0 0
BITMAP
0002D0B40000
0007F1FC0000
000BF2FC0000
0007D1F40000
000000000000
000000000000
02E47C1F8000
0BFCBCBFE000
0FBEF9FAF000
0A1FFBE1F000
001FFBD1D000
041FFFD00100
3D2FBFD00B40
7D3DFFE02F00
BEBCFAFABD00
7FF4F4BFF800
1F90B02F9000
ENDCHAR
STARTCHAR uni04DE
ENCODING 1246
SWIDTH 725 0
DWIDTH 17 0
BBX 16 26 1 0
BITMAP
000781E0
000FD3F4
000FD3F4
000B82E0
00000000
00000000
001AFE40
00BFFFE0
03FEAFF4
07F403F8
0BD002F8
0BD002F8
07D003F4
014007E0
00001F80
001BFF90
002FFBF4
001541FD
000000FD
7D0000FE
BE0001FD
BE0002FC
7F400BF8
3FEABFE0
1FFFFF40
01BFE400
ENDCHAR
STARTCHAR uni04DF
ENCODING 1247
SWIDTH 435 0
DWIDTH 10 0
BBX 14 28 -1 -11
BITMAP
02E0B800
07F1FC00
07F1FC00
02D0B400
00000000
00000000
00AF9000
02FFF000
07EAF400
0140F400
0001F400
0007E000
006F8060
07FD02F0
0BE01FD0
07FDBE40
007FF400
002F8000
00FF8000
07EF8000
0F8F8000
2E1F4000
7C2F0000
B83E0000
F4BD0000
FAF80000
BFE00000
2F800000
ENDCHAR
STARTCHAR uni04E0
ENCODING 1248
SWIDTH 744 0
DWIDTH 18 0
BBX 18 20 1 0
BITMAP
001BFFA500
01FFFFFFD0
07FAAAFFD0
0BE000BF40
0FD000FD00
0BD002FC00
03D007F400
00400FE000
00003F8000
001BFF9000
002FFBF400
001541FD00
000000FD00
7D0000FE00
BE0001FD00
BE0002FC00
7F400BF800
3FEABFE000
1FFFFF4000
01BFE40000
ENDCHAR
STARTCHAR uni04E1
ENCODING 1249
SWIDTH 435 0
DWIDTH 10 0
BBX 14 22 -1 -11
BITMAP
07FFFF00
0BFFFF00
015BFE00
001FE400
007F4000
01F80010
07F001F0
0BD00BF0
0BF47F80
02FFFD00
002FE000
007F8000
01FF8000
07EF8000
1F4F8000
3E1F4000
7C2F0000
B83E0000
F4BD0000
FAF80000
BFE00000
2F800000
ENDCHAR
STARTCHAR uni04E2
ENCODING 1250
SWIDTH 890 0
DWIDTH 21 0
BBX 25 25 0 0
BITMAP
00001AAA400000
00003FFF800000
00002FFF400000
00000000000000
00000000000000
01BE40002E0000
0BFFC0007F0000
2FAFD0007F0000
BD0FD000BF0000
F40FD000BE0000
900FD000FE0000
001FC000FD0000
002FC001FD0000
002F8002FC0000
003F8003FC0000
007F4007F80000
007F000BF80000
00BE000FF40000
00BE002FF40000
00FD007BF40100
00FD01F7F40740
00FE07E3F82F40
00FFFF83FFFE00
007FFE01FFF800
001BE4006F9000
ENDCHAR
STARTCHAR uni04E3
ENCODING 1251
SWIDTH 462 0
DWIDTH 11 0
BBX 13 16 1 0
BITMAP
02AA9000
0BFFF000
0BFFE000
00000000
00000000
1F02D000
3F07D000
7E0BD000
7E0FC000
BD1F8000
BD2F8000
BC3F41C0
BDBF47C0
BFEFAF80
7FDFFD00
2E0BE400
ENDCHAR
STARTCHAR uni04E4
ENCODING 1252
SWIDTH 890 0
DWIDTH 21 0
BBX 25 26 0 0
BITMAP
00001E07800000
00003F4FD00000
00003F4FD00000
00002E0B800000
00000000000000
00000000000000
01BE40002E0000
0BFFC0007F0000
2FAFD0007F0000
BD0FD000BF0000
F40FD000BE0000
900FD000FE0000
001FC000FD0000
002FC001FD0000
002F8002FC0000
003F8003FC0000
007F4007F80000
007F000BF80000
00BE000FF40000
00BE002FF40000
00FD007BF40100
00FD01F7F40740
00FE07E3F82F40
00FFFF83FFFE00
007FFE01FFF800
001BE4006F9000
ENDCHAR
STARTCHAR uni04E5
ENCODING 1253
SWIDTH 462 0
DWIDTH 11 0
BBX 13 17 1 0
BITMAP
07D1F400
0BE2F800
0FE3F400
0781E000
00000000
00000000
1F02D000
3F07D000
7E0BD000
7E0FC000
BD1F8000
BD2F8000
BC3F41C0
BDBF47C0
BFEFAF80
7FDFFD00
2E0BE400
ENDCHAR
STARTCHAR uni04E6
ENCODING 1254
SWIDTH 816 0
DWIDTH 20 0
BBX 18 26 1 0
BITMAP
0002E0B800
0007F5FD00
0007F5FD00
0002E0B800
0000000000
0000000000
0001BF9000
002FFFFD00
00BFEAFF40
02FD007FC0
07F4001FE0
0FE0000BF0
1FC0000BF0
3F800007F0
3F400007F0
7F400007F0
7F00000BF0
7F00000BE0
7F00000FE0
7F40001FC0
3F80003F80
2FC000BF00
1FE002FD00
0BFEAFF400
01FFFFD000
002BF90000
ENDCHAR
STARTCHAR uni04E7
ENCODING 1255
SWIDTH 451 0
DWIDTH 11 0
BBX 13 17 1 0
BITMAP
0B42D000
2F8BE000
2F8BE000
1F47D000
00000000
00000000
06F90000
1FFF4000
7FBFC000
BD3FD140
FC2FFFC0
FC0FFF80
FC0BE500
FD0F8000
BFBF4000
3FFE0000
0BE40000
ENDCHAR
STARTCHAR uni04E8
ENCODING 1256
SWIDTH 816 0
DWIDTH 20 0
BBX 18 20 1 0
BITMAP
0001BF9000
002FFFFD00
00BFEAFF40
02FD007FC0
07F4001FE0
0FE0000FF0
1FC0000BF0
3F800007F0
3F400007F0
7FFFFFFFF0
7FFFFFFFF0
7F95555FE0
7F00000FE0
7F40001FC0
3F40002F80
2FC0007F00
1FE002FD00
0BFEAFF400
01FFFFD000
002BF90000
ENDCHAR
STARTCHAR uni04E9
ENCODING 1257
SWIDTH 451 0
DWIDTH 11 0
BBX 13 11 1 0
BITMAP
06F90000
1FFF4000
7FAFC000
BD0BD540
FFFFFFC0
FFFFFF80
FD5BD500
FD0F8000
BFBF4000
3FFE0000
0BE40000
ENDCHAR
STARTCHAR uni04EA
ENCODING 1258
SWIDTH 816 0
DWIDTH 20 0
BBX 18 26 1 0
BITMAP
0002E0B800
0007F5FD00
0007F5FD00
0002E0B800
0000000000
0000000000
0001BF9000
002FFFFD00
00BFEAFF40
02FD007FC0
07F4001FE0
0FE0000FF0
1FC0000BF0
3F800007F0
3F400007F0
7FFFFFFFF0
7FFFFFFFF0
7F95555FE0
7F00000FE0
7F40001FC0
3F40002F80
2FC0007F00
1FE002FD00
0BFEAFF400
01FFFFD000
002BF90000
ENDCHAR
STARTCHAR uni04EB
ENCODING 1259
SWIDTH 451 0
DWIDTH 11 0
BBX 13 17 1 0
BITMAP
0B43D000
2F8BE000
2F8BE000
1F47D000
00000000
00000000
06F90000
1FFF4000
7FAFC000
BD0BD540
FFFFFFC0
FFFFFF80
FD5BD500
FD0F8000
BFBF4000
3FFE0000
0BE40000
ENDCHAR
STARTCHAR uni04EC
ENCODING 1260
SWIDTH 755 0
DWIDTH 18 0
BBX 17 26 1 0
BITMAP
000B82E000
000FD3F400
001FD7F400
000B82E000
0000000000
0000000000
001BFE4000
02FFFFE000
0BFAAFF800
1F9002FD00
2E0000FF00
0400007F40
0000003F40
0000003F80
0000003F80
00BFFFFF80
00FFFFFF80
005555BF40
0000007F00
280000BE00
BD0000FD00
FD0002F800
BE001BF400
7FA6BFD000
2FFFFE0000
06FFA40000
ENDCHAR
STARTCHAR uni04ED
ENCODING 1261
SWIDTH 466 0
DWIDTH 11 0
BBX 14 17 1 0
BITMAP
0B82E000
1FD7F000
1FC7F000
0B82E000
00000000
00000000
1BF90000
3FFF8000
2AAFD000
0007E180
01FFFFD0
52FFFFD0
F45BF500
F40BE000
FEAFC000
BFFF4000
1BF90000
ENDCHAR
STARTCHAR uni04EE
ENCODING 1262
SWIDTH 824 0
DWIDTH 20 0
BBX 22 31 1 -6
BITMAP
00006AA80000
0000FFFD0000
0000FFFD0000
000000000000
000000000000
06F90000B800
2FFF0001FC00
BEBF4002FC00
F43F4002F800
403F4003F800
007F0007F400
00BF000BF400
00BE001FF000
00FD003FF000
00FD00BFE000
00FD02FBE000
00FFAFDBD000
007FFF4FD000
001BE80FDAE0
0000001FFFE0
000006FFFE80
00006FFF8000
0002FE2F4000
000BE03F4000
002F407F0000
003E00BE0000
007E01FC0000
007F47F40000
003FFFE00000
001FFF400000
000154000000
ENDCHAR
STARTCHAR uni04EF
ENCODING 1263
SWIDTH 479 0
DWIDTH 12 0
BBX 14 27 0 -11
BITMAP
00AAA400
02FFFC00
02FFF800
00000000
00000000
07C0B400
0FC1F400
1F82F400
1F83F000
2F47F000
2F4BE000
2F0FE0B0
2F6FD6F0
2FFFEFD0
1FFBFE00
0B9BF400
001FC000
00BF8000
02FF4000
0BAF0000
2E2F0000
7C3E0000
B47D0000
F4F80000
FAF40000
BFE00000
2F400000
ENDCHAR
STARTCHAR uni04F0
ENCODING 1264
SWIDTH 824 0
DWIDTH 20 0
BBX 22 32 1 -6
BITMAP
0000B82E0000
0001FC7F0000
0001FC7F0000
0000B42D0000
000000000000
000000000000
06F90000B800
2FFF0001FC00
BEBF4002FC00
F43F4002F800
403F4003F800
007F0007F400
00BF000BF400
00BE001FF000
00FD003FF000
00FD00BFE000
00FD02FBE000
00FFAFDBD000
007FFF4FD000
001BE80FDAE0
0000001FFFE0
000006FFFE80
00006FFF8000
0002FE2F4000
000BE03F4000
002F407F0000
003E00BE0000
007E01FC0000
007F47F40000
003FFFE00000
001FFF400000
000154000000
ENDCHAR
STARTCHAR uni04F1
ENCODING 1265
SWIDTH 479 0
DWIDTH 12 0
BBX 14 28 0 -11
BITMAP
01F47D00
02F8BE00
03F8FD00
01E07800
00000000
00000000
07C0B400
0FC1F400
1F82F400
1F83F000
2F47F000
2F4BE000
2F0FE0B0
2F6FD6F0
2FFFEFD0
1FFBFE00
0B9BF400
001FC000
00BF8000
02FF4000
0BAF0000
2E2F0000
7C3E0000
B47D0000
F4F80000
FAF40000
BFE00000
2F400000
ENDCHAR
STARTCHAR uni04F2
ENCODING 1266
SWIDTH 824 0
DWIDTH 20 0
BBX 22 34 1 -6
BITMAP
000005050000
00001F4F8000
00002F5F8000
00003E2F0000
00007C3D0000
000074380000
000000000000
000000000000
06F90000B800
2FFF0001FC00
BEBF4002FC00
F43F4002F800
403F4003F800
007F0007F400
00BF000BF400
00BE001FF000
00FD003FF000
00FD00BFE000
00FD02FBE000
00FFAFDBD000
007FFF4FD000
001BE80FDAE0
0000001FFFE0
000006FFFE80
00006FFF8000
0002FE2F4000
000BE03F4000
002F407F0000
003E00BE0000
007E01FC0000
007F47F40000
003FFFE00000
001FFF400000
000154000000
ENDCHAR
STARTCHAR uni04F3
ENCODING 1267
SWIDTH 479 0
DWIDTH 12 0
BBX 14 31 0 -11
BITMAP
000B4B40
001F8FC0
002F5F80
003E2F00
007C3D00
00B47800
00A07000
00000000
00000000
07C0B400
0FC1F400
1F82F400
1F83F000
2F47F000
2F4BE000
2F0FE0B0
2F6FD6F0
2FFFEFD0
1FFBFE00
0B9BF400
001FC000
00BF8000
02FF4000
0BAF0000
2E2F0000
7C3E0000
B47D0000
F4F80000
FAF40000
BFE00000
2F400000
ENDCHAR
STARTCHAR uni04F4
ENCODING 1268
SWIDTH 773 0
DWIDTH 19 0
BBX 16 26 2 0
BITMAP
001E0780
003F4FD0
003F4FD0
002E0B80
00000000
00000000
0B80002D
1FC0007E
1FD000BE
1FC000BE
1FC000FD
2FC000FD
3F8001FD
3F4002FC
7F4007FC
7F400FF8
7F402FF8
3FEAFEF8
1FFFF2F4
06FE42F4
000003F0
000003F0
000007F0
000007E0
00000BE0
000007D0
ENDCHAR
STARTCHAR uni04F5
ENCODING 1269
SWIDTH 555 0
DWIDTH 13 0
BBX 18 17 -1 0
BITMAP
0000B42D00
0002F8BE00
0002F8BE00
0001F47D00
000B400000
002FD00000
003FFFF400
007DFFF800
00BC1FE000
00F82F8000
02F0FD0000
07D2F40040
0F87E002D0
2F07E01BD0
7C07FABF40
1003FFFD00
0000BF9000
ENDCHAR
STARTCHAR uni04F6
ENCODING 1270
SWIDTH 600 0
DWIDTH 14 0
BBX 20 28 1 -8
BITMAP
006BFFFFFD
0BFFFFFFFD
7FFFF95554
BE07F00000
FC0BE00000
F80FE00000
FC0FD00000
BC1FC00000
001FC00000
002F800000
002F800000
003F400000
003F400000
007F000000
007F000000
00BF000000
00BE000000
00FFE00000
00FFE00000
007FE00000
01FFD00000
0BE7D00000
1F8BC00000
3F0F800000
3F2F400000
3FFE000000
1FF8000000
0550000000
ENDCHAR
STARTCHAR uni04F7
ENCODING 1271
SWIDTH 441 0
DWIDTH 11 0
BBX 12 18 1 -7
BITMAP
1BF800
7FFE00
BABF00
007E00
01F800
1FD000
7E0000
FC001B
FEABBF
BFFFF8
2FFFD0
01FF00
0BFE00
2E3D00
7C7C00
7EF800
7FE000
2F8000
ENDCHAR
STARTCHAR uni04F8
ENCODING 1272
SWIDTH 1078 0
DWIDTH 26 0
BBX 25 26 0 0
BITMAP
000000B42D0000
000002FCBF0000
000002FCBE0000
000001F47D0000
00000000000000
00000000000000
002E0000000B80
007F0000001FC0
00BE0000001FC0
00FE0000002FC0
00FD0000002F80
01FC0000002F80
01F80000003F40
02FABFE4003F40
03FFFFFE007F00
2FFEAAFF407F00
7FF0007FC0BE00
2BF0002FC0BE00
07E0001FC0FD00
07E0002FC0FD00
07F0002F81FC00
07F0007F41FC00
03F801FE02F800
01FEAFF802F800
00BFFFE002F800
001BFA4001F400
ENDCHAR
STARTCHAR uni04F9
ENCODING 1273
SWIDTH 702 0
DWIDTH 17 0
BBX 19 17 1 0
BITMAP
001F07C000
003F8FD000
003F4FD000
001E078000
0000000000
0000000000
1F40007800
3F4000FC00
3F0002F800
7E6F43F800
BFFFDBF400
BFABFFF000
BE03FFF02C
BD07FBF0B8
7FAFE2FBF4
2FFF81FFD0
07F900BE00
ENDCHAR
STARTCHAR uni04FA
ENCODING 1274
SWIDTH 635 0
DWIDTH 15 0
BBX 23 29 -2 -9
BITMAP
0001AFFFFFF4
002FFFFFFFF4
00FFFFE55550
02F81FC00000
03F02F800000
03E03F800000
03F03F400000
02F47F400000
00507F000000
000BFFF80000
001FFFFC0000
0005FE500000
0000FD000000
0001FD000000
0001FC000000
0001FC000000
0002FC000000
0002F8000000
0003F8000000
0003F4000000
0007F0000000
000BF0000000
000FE0000000
000FD0000000
281FC0000000
7E7F40000000
7FFE00000000
3FF800000000
065000000000
ENDCHAR
STARTCHAR uni04FB
ENCODING 1275
SWIDTH 441 0
DWIDTH 11 0
BBX 13 18 0 -7
BITMAP
06FE0000
1FFF8000
2EAFC000
001F8000
50BF4000
7FF80000
2FFD0000
3F1406C0
3FAAEFC0
2FFFFE00
0BFFF400
007FC000
02FF8000
0B8F4000
1F1F0000
1FBE0000
1FF80000
0BE00000
ENDCHAR
STARTCHAR uni04FC
ENCODING 1276
SWIDTH 716 0
DWIDTH 17 0
BBX 21 28 -1 -8
BITMAP
00BF80007D00
07FFF002FD00
1FABF807F800
2E02FC1FE000
1401FD3F8000
0000FEFE0000
0000BFFC0000
00007FF00000
00003FD00000
00007F800000
0001FFC00000
0007FFD00000
000FEFE00000
003FCBF00000
00BF07F00000
02FD03F80040
0BF402FD47C0
1FE001FFEFC0
7F8000BFFE00
7E00002FF400
000000BFD000
000007FFC000
00001FDF8000
00007F0F8000
00007E2F4000
0000BEBE0000
00007FFC0000
00001BE00000
ENDCHAR
STARTCHAR uni04FD
ENCODING 1277
SWIDTH 601 0
DWIDTH 14 0
BBX 17 19 0 -8
BITMAP
02F42F4000
0BFEFFC000
0FBFFBC000
0B1FD74000
001FC00000
041FC00000
3D2F800000
7D3FC00280
BEBFE69F80
7FFBFFFE00
1F92FFF400
00006F8000
0001FF8000
000BDF4000
001F1F0000
002E3E0000
002FFC0000
001FF40000
0001400000
ENDCHAR
STARTCHAR uni04FE
ENCODING 1278
SWIDTH 712 0
DWIDTH 17 0
BBX 21 20 -1 0
BITMAP
00BF8000BD00
07FFF002FD00
1FABF807F400
2D02FC1FE000
1400FD7F8000
0000BEFE0000
00007FF80000
00007FE00000
002FFFFF4000
007FFFFF8000
0016FFD50000
0003FFD00000
000FEFD00000
002FCBE00000
00BF47F00000
02FD03F401C0
0BF802F807C0
1FE001FEAF40
7F8000BFFD00
7E00001FE400
ENDCHAR
STARTCHAR uni04FF
ENCODING 1279
SWIDTH 529 0
DWIDTH 13 0
BBX 16 11 0 0
BITMAP
02F42F40
0BFEFFC0
0FAFFBC0
0B1FD740
00BFF800
14FFF805
7D6FD01E
BD3FC07E
BEBFFAFC
7FFBFFE0
1F91BE40
ENDCHAR
STARTCHAR uni0510
ENCODING 1296
SWIDTH 706 0
DWIDTH 17 0
BBX 15 20 1 0
BITMAP
001BFE40
00BFFFE0
02FEAFF4
03F402FC
07F000FC
07E000FC
07F000F4
03F40000
01FC0000
01FFF800
1FEBFC00
3F815400
BF000000
BE0000BC
BF0000FC
BF4001FC
7FD007F8
2FFAAFF0
0BFFFF80
01AFF900
ENDCHAR
STARTCHAR uni0511
ENCODING 1297
SWIDTH 392 0
DWIDTH 9 0
BBX 12 11 0 0
BITMAP
02FE00
0FFF80
1FAB80
1F4000
0FF400
0BF801
3FA40B
7E006F
7FABFD
3FFFF4
0BFE40
ENDCHAR
STARTCHAR uni0512
ENCODING 1298
SWIDTH 884 0
DWIDTH 21 0
BBX 25 28 0 -8
BITMAP
0000001B800000
0000003FC00000
0000007FC00000
000000BFC00000
000000FFC00000
000001FFC00000
000002FFC00000
000003FFC00000
000007EF800000
00000BDF800000
00000FDF800000
00002F9FC00000
00003F1FC00000
00007E1FC00000
1000FD1FC00000
BC02F80FD00000
BD0BF40BE10B40
7FAFD007FFFF40
2FFF8002FFFD00
06F90000BFE000
00000002FF4000
0000001FFF4000
0000007F6F0000
000000FD3E0000
000001F87D0000
000001FEFC0000
000000FFF40000
0000006F900000
ENDCHAR
STARTCHAR uni0513
ENCODING 1299
SWIDTH 631 0
DWIDTH 15 0
BBX 18 19 0 -8
BITMAP
0001F80000
0003FC0000
0007FC0000
000BFC0000
001FFC0000
142FF80000
BC7DF80000
FCBCFC01D0
FEF4FEABE0
BFE0BFFF80
2F407FFD00
00001FE000
0000BFD000
0002EBC000
00078B8000
000B5F4000
000FFE0000
0007F80000
0001500000
ENDCHAR
STARTCHAR uni051A
ENCODING 1306
SWIDTH 816 0
DWIDTH 20 0
BBX 20 28 1 -8
BITMAP
0001BF9000
002FFFFD00
00BFEAFF40
02FD007FC0
07F4001FD0
0FE0000BE0
1FC0000BF0
2F800007F0
3F400007F0
7F400007F0
7F00000BF0
7F00000BE0
7F00000FD0
7F40001FD0
3F80003F80
3FC000BF40
1FE002FD00
0BFEAFF800
02FFFFD000
006FFE0000
0001FF0000
00007F8000
00003FC002
00001FE00B
00000FF42E
000007FFFC
000001FFE0
0000001940
ENDCHAR
STARTCHAR uni051B
ENCODING 1307
SWIDTH 500 0
DWIDTH 12 0
BBX 14 22 1 -10
BITMAP
0001F400
01BFF400
07FFF000
1FEBE000
3F4BD000
BE0FD000
FC0FC000
FC1F8AA0
FC3F6FF0
FEBF7FE0
BFFF3C00
2F7F2C00
007E2C00
007E2C00
007E3C00
00BD3C00
00BD3800
007D7800
007EB400
003FF000
002FD000
000A4000
ENDCHAR
STARTCHAR uni051C
ENCODING 1308
SWIDTH 1217 0
DWIDTH 29 0
BBX 30 20 3 0
BITMAP
2E0000BC001FD000
7F0000FD00BFF400
BF0001FC01FAF800
BF0002FC02F0FC00
BE0002FC02E0FC00
FE0003F803E0F800
FD0007F802E1F800
FD000BF802F6F400
FD000BF800FFF000
FD000FF8007FFA90
FD001FF8001FFFE0
FD002FF8001FEFD0
FD007EF8003F4000
FD00BDF8007E0000
BE01F8FC00FD0000
7F02F0FC02F40000
3F4BD0BE0BE00000
2FFF807FFF800000
1FFE002FFE000000
06F4000BE4000000
ENDCHAR
STARTCHAR uni051D
ENCODING 1309
SWIDTH 700 0
DWIDTH 17 0
BBX 19 11 1 0
BITMAP
7807C07C00
BC0BC1FE00
BC0FC2FD00
BC2FC2FD14
BD3FD2FFFC
BD7FD3FFF8
BDFBDBD550
BEF7EF8000
7FE3FF0000
3FC3FD0000
1F41F40000
ENDCHAR
STARTCHAR uni0524
ENCODING 1316
SWIDTH 892 0
DWIDTH 21 0
BBX 24 28 1 -8
BITMAP
005ABFFFFA94
07FFFFFFFFFD
3FFBF956FFFD
BE47F400FD00
FC07F001FC00
F80BE002FC00
FC0FE002F800
BC0FD003F800
101FD003F400
001FC007F000
002FC00BF000
002F800BE000
003F800FD000
003F400FD000
007F401FC000
007F001FD004
00BF000FFE2D
00BF000BFFFD
00BE0001BFF4
007D0001BF80
0000000BFD00
0000007FFD00
000001FDBC00
000003F4F800
000007F1F400
000007FBF000
000003FFD000
000001BE4000
ENDCHAR
STARTCHAR uni0525
ENCODING 1317
SWIDTH 536 0
DWIDTH 13 0
BBX 15 18 1 -7
BITMAP
1F06E000
3F1FF000
7E7FF000
7DFBE000
BEE7E000
BFC7D000
BF4BC000
BF0BC0B4
BE0BFBF0
BD07FFD0
3C02FD00
001BF000
007FF000
01F6E000
03D3D000
03EF8000
03FF0000
01F80000
ENDCHAR
STARTCHAR uni0526
ENCODING 1318
SWIDTH 818 0
DWIDTH 20 0
BBX 21 28 2 -8
BITMAP
02E000000000
03F000000000
07F000000000
0BF000000000
0BE000000000
0FD000000000
1FD000000000
1FC000000000
2FC000000000
2F81BF800000
3F9FFFF00000
3FBFAFF40000
7FF403F80000
7FC003F80000
BF4003F40000
BE0003F40000
FE0007FF8B80
FD0007FFFF40
FD0003FFFD00
B80001AFE000
000001FF8000
00000BFF4000
00003F9F4000
0000BD2F0000
0000FC7E0000
0000FEFC0000
0000BFF40000
00002F900000
ENDCHAR
STARTCHAR uni0527
ENCODING 1319
SWIDTH 542 0
DWIDTH 13 0
BBX 15 30 1 -7
BITMAP
00050000
007F8000
01FFC000
02E7D000
07D3D000
0BC3C000
0F87C000
1F4B8000
2F4F0000
3F2E0000
3E7C0000
7EF40000
7FD6E000
7F9FF400
BE7FF000
BDBBF000
BEE3E000
BFC7E000
BF87D000
BF4BD0B4
BF0BFAF4
BE07FFD0
7801FE00
000BF400
007EF000
01F6E000
02D3D000
03EBC000
03FF4000
01F90000
ENDCHAR
STARTCHAR uni0528
ENCODING 1320
SWIDTH 873 0
DWIDTH 21 0
BBX 27 29 -3 -8
BITMAP
00000000001F80
0006F80000BFD0
002FFE0001FAE0
00FEBF4003F1E0
03E03F400BD1E0
07803F400FC1E0
02003F401F82D0
00003F402F47C0
00003F002F5F40
00007F003FBD00
00007F55BFF400
001FFFFFFF4000
002FFFFFFE0000
0006FD00BE0000
0001FC00BE0000
0001FC00BE0000
0002F8007F002C
0002F8003F40BC
0003F4002FEBF4
0007F0000FFFD0
0007F00002FE00
000BE000000000
000FD000000000
001FC000000000
142F8000000000
BD3F4000000000
BEBE0000000000
7FFC0000000000
1FE00000000000
ENDCHAR
STARTCHAR uni0529
ENCODING 1321
SWIDTH 475 0
DWIDTH 11 0
BBX 18 18 -3 -7
BITMAP
001F01E000
003F03E000
007E07E000
007D07D000
00BFFFC000
00BFFFC040
00BD5F81D0
00BC0F87D0
00BC0FEF80
00BC0FFE00
00BC07E400
00BD000000
00BD000000
00BC000000
78BC000000
BEF8000000
7FF4000000
1FD0000000
ENDCHAR
STARTCHAR uni052E
ENCODING 1326
SWIDTH 884 0
DWIDTH 21 0
BBX 25 28 0 -8
BITMAP
0000001B800000
0000003FC00000
0000007FC00000
000000BFC00000
000000FFC00000
000001FFC00000
000002FFC00000
000003FFC00000
000007EF800000
00000BDF800000
00000FDF800000
00002F9FC00000
00003F1FC00000
00007E1FC00000
1000FD1FC00000
BC02F80FD00000
BD0BF40BE10B40
7FAFD007FFFF40
2FFF8002FFFD00
06F90000BFE000
00000002FF4000
0000001FFF4000
0000007F6F0000
000000FD3E0000
000001F87D0000
000001FEFC0000
000000FFF40000
0000006F900000
ENDCHAR
STARTCHAR uni052F
ENCODING 1327
SWIDTH 631 0
DWIDTH 15 0
BBX 18 19 0 -8
BITMAP
0001F80000
0003FC0000
0007FC0000
000BFC0000
001FFC0000
142FF80000
BC7DF80000
FCBCFC01D0
FEF4FEABE0
BFE0BFFF80
2F407FFD00
00001FE000
0000BFD000
0002EBC000
00078B8000
000B5F4000
000FFE0000
0007F80000
0001500000
ENDCHAR
STARTCHAR Wgrave
ENCODING 7808
SWIDTH 1217 0
DWIDTH 29 0
BBX 30 28 3 0
BITMAP
0000500000000000
0001F80000000000
0001FE0000000000
0000BFD000000000
00000BF400000000
000000B400000000
0000000000000000
0000000000000000
2E0000BC001FD000
7F0000FD00BFF400
BF0001FC01FAF800
BF0002FC02F0FC00
BE0002FC02E0FC00
FE0003F803E0F800
FD0007F802E1F800
FD000BF802F6F400
FD000BF800FFF000
FD000FF8007FFA90
FD001FF8001FFFE0
FD002FF8001FEFD0
FD007EF8003F4000
FD00BDF8007E0000
BE01F8FC00FD0000
7F02F0FC02F40000
3F4BD0BE0BE00000
2FFF807FFF800000
1FFE002FFE000000
06F4000BE4000000
ENDCHAR
STARTCHAR wgrave
ENCODING 7809
SWIDTH 700 0
DWIDTH 17 0
BBX 19 20 1 0
BITMAP
00B4000000
01FC000000
00FD000000
003F000000
001F400000
000B800000
0002800000
0000000000
0000000000
7807C07C00
BC0BC1FE00
BC0FC2FD00
BC2FC2FD14
BD3FD2FFFC
BD7FD3FFF8
BDFBDBD550
BEF7EF8000
7FE3FF0000
3FC3FD0000
1F41F40000
ENDCHAR
STARTCHAR Wacute
ENCODING 7810
SWIDTH 1217 0
DWIDTH 29 0
BBX 30 28 3 0
BITMAP
0000000005000000
000000007F000000
00000001FF000000
00000007FD000000
0000002FD0000000
0000002D00000000
0000000000000000
0000000000000000
2E0000BC001FD000
7F0000FD00BFF400
BF0001FC01FAF800
BF0002FC02F0FC00
BE0002FC02E0FC00
FE0003F803E0F800
FD0007F802E1F800
FD000BF802F6F400
FD000BF800FFF000
FD000FF8007FFA90
FD001FF8001FFFE0
FD002FF8001FEFD0
FD007EF8003F4000
FD00BDF8007E0000
BE01F8FC00FD0000
7F02F0FC02F40000
3F4BD0BE0BE00000
2FFF807FFF800000
1FFE002FFE000000
06F4000BE4000000
ENDCHAR
ENDFONT
